%TF.GenerationSoftware,KiCad,Pcbnew,10.0.4*%
%TF.CreationDate,2026-07-10T16:38:57+03:00*%
%TF.ProjectId,AuxPlay,41757850-6c61-4792-9e6b-696361645f70,rev?*%
%TF.SameCoordinates,Original*%
%TF.FileFunction,Copper,L1,Top*%
%TF.FilePolarity,Positive*%
%FSLAX46Y46*%
G04 Gerber Fmt 4.6, Leading zero omitted, Abs format (unit mm)*
G04 Created by KiCad (PCBNEW 10.0.4) date 2026-07-10 16:38:57*
%MOMM*%
%LPD*%
G01*
G04 APERTURE LIST*
%TA.AperFunction,ComponentPad*%
%ADD10C,1.700000*%
%TD*%
%TA.AperFunction,ComponentPad*%
%ADD11O,1.500000X3.000000*%
%TD*%
%TA.AperFunction,ViaPad*%
%ADD12C,0.600000*%
%TD*%
%TA.AperFunction,Conductor*%
%ADD13C,0.200000*%
%TD*%
%TA.AperFunction,Conductor*%
%ADD14C,1.000000*%
%TD*%
%TA.AperFunction,Conductor*%
%ADD15C,0.500000*%
%TD*%
G04 APERTURE END LIST*
D10*
%TO.P,A1,1,SCK_1*%
%TO.N,/GND*%
X87635000Y-73630000D03*
%TO.P,A1,2,BCK_2*%
%TO.N,/GPIO11*%
X90175000Y-73630000D03*
%TO.P,A1,3,DIN_3*%
%TO.N,/GPIO12*%
X92715000Y-73630000D03*
%TO.P,A1,4,LCK_4*%
%TO.N,/GPIO13*%
X95255000Y-73630000D03*
%TO.P,A1,5,GND_5*%
%TO.N,/GND*%
X97795000Y-73630000D03*
%TO.P,A1,6,VIN_6*%
%TO.N,/5V*%
X100335000Y-73630000D03*
%TO.P,A1,7,LOUT_7*%
%TO.N,/Left*%
X87000000Y-46960000D03*
%TO.P,A1,8,AGND_8*%
%TO.N,/GND*%
X87000000Y-49500000D03*
%TO.P,A1,9,ROUT_9*%
%TO.N,/Right*%
X87000000Y-52040000D03*
%TO.P,A1,10,AGND_10*%
%TO.N,/GND*%
X87000000Y-54580000D03*
%TO.P,A1,11,A3V3_11*%
%TO.N,unconnected-(A1-A3V3-Pad11)*%
X87000000Y-57120000D03*
%TO.P,A1,12,FMT_12*%
%TO.N,unconnected-(A1-FMT-Pad12)*%
X87000000Y-59660000D03*
%TO.P,A1,13,XSMT_13*%
%TO.N,/3V3*%
X87000000Y-62200000D03*
%TO.P,A1,14,DEMP_14*%
%TO.N,unconnected-(A1-DEMP-Pad14)*%
X87000000Y-64740000D03*
%TO.P,A1,15,FLT_15*%
%TO.N,unconnected-(A1-FLT-Pad15)*%
X87000000Y-67280000D03*
%TD*%
D11*
%TO.P,J2,1*%
%TO.N,/GND*%
X92000000Y-30200000D03*
%TO.P,J2,2*%
%TO.N,/Left*%
X92000000Y-37000000D03*
%TO.P,J2,3*%
%TO.N,/Right*%
X97000000Y-32500000D03*
%TD*%
D10*
%TO.P,J1,1,3V3_1*%
%TO.N,/3V3*%
X132000000Y-77560000D03*
%TO.P,J1,2,RST_2*%
%TO.N,unconnected-(J1-RST-Pad2)*%
X132000000Y-75020000D03*
%TO.P,J1,3,GPIO36_3*%
%TO.N,unconnected-(J1-GPIO36-Pad3)*%
X132000000Y-72480000D03*
%TO.P,J1,4,GPIO39_4*%
%TO.N,unconnected-(J1-GPIO39-Pad4)*%
X132000000Y-69940000D03*
%TO.P,J1,5,GPIO34_5*%
%TO.N,unconnected-(J1-GPIO34-Pad5)*%
X132000000Y-67400000D03*
%TO.P,J1,6,GPIO35_6*%
%TO.N,unconnected-(J1-GPIO35-Pad6)*%
X132000000Y-64860000D03*
%TO.P,J1,7,GPIO32_7*%
%TO.N,unconnected-(J1-GPIO32-Pad7)*%
X132000000Y-62320000D03*
%TO.P,J1,8,GPIO33_8*%
%TO.N,unconnected-(J1-GPIO33-Pad8)*%
X132000000Y-59780000D03*
%TO.P,J1,9,GPIO25_9*%
%TO.N,unconnected-(J1-GPIO25-Pad9)*%
X132000000Y-57240000D03*
%TO.P,J1,10,GPIO26_10*%
%TO.N,unconnected-(J1-GPIO26-Pad10)*%
X132000000Y-54700000D03*
%TO.P,J1,11,GPIO27_11*%
%TO.N,unconnected-(J1-GPIO27-Pad11)*%
X132000000Y-52160000D03*
%TO.P,J1,12,GPIO14_12*%
%TO.N,unconnected-(J1-GPIO14-Pad12)*%
X132000000Y-49620000D03*
%TO.P,J1,13,GPIO12_13*%
%TO.N,/GPIO12*%
X132000000Y-47080000D03*
%TO.P,J1,14,GND_14*%
%TO.N,/GND*%
X132000000Y-44540000D03*
%TO.P,J1,15,GPIO13_15*%
%TO.N,/GPIO13*%
X132000000Y-42000000D03*
%TO.P,J1,16,GPIO9_16*%
%TO.N,unconnected-(J1-GPIO9-Pad16)*%
X132000000Y-39460000D03*
%TO.P,J1,17,GPIO10_17*%
%TO.N,unconnected-(J1-GPIO10-Pad17)*%
X132000000Y-36920000D03*
%TO.P,J1,18,GPIO11_18*%
%TO.N,/GPIO11*%
X132000000Y-34380000D03*
%TO.P,J1,19,5V_19*%
%TO.N,unconnected-(J1-5V-Pad19)*%
X132000000Y-31840000D03*
%TO.P,J1,20,5V_20*%
%TO.N,/5V*%
X132000000Y-29300000D03*
%TO.P,J1,21,GND_21*%
%TO.N,/GND*%
X106500000Y-77560000D03*
%TO.P,J1,22,GPIO23_22*%
%TO.N,unconnected-(J1-GPIO23-Pad22)*%
X106500000Y-75020000D03*
%TO.P,J1,23,GPIO22_23*%
%TO.N,unconnected-(J1-GPIO22-Pad23)*%
X106500000Y-72480000D03*
%TO.P,J1,24,GPIO1_24*%
%TO.N,unconnected-(J1-GPIO1-Pad24)*%
X106500000Y-69940000D03*
%TO.P,J1,25,GPIO3_25*%
%TO.N,unconnected-(J1-GPIO3-Pad25)*%
X106500000Y-67400000D03*
%TO.P,J1,26,GPIO21_26*%
%TO.N,unconnected-(J1-GPIO21-Pad26)*%
X106500000Y-64860000D03*
%TO.P,J1,27,GND_27*%
%TO.N,/GND*%
X106500000Y-62320000D03*
%TO.P,J1,28,GPIO19_28*%
%TO.N,unconnected-(J1-GPIO19-Pad28)*%
X106500000Y-59780000D03*
%TO.P,J1,29,GPIO18_29*%
%TO.N,unconnected-(J1-GPIO18-Pad29)*%
X106500000Y-57240000D03*
%TO.P,J1,30,GPIO5_30*%
%TO.N,unconnected-(J1-GPIO5-Pad30)*%
X106500000Y-54700000D03*
%TO.P,J1,31,GND_31*%
%TO.N,/GND*%
X106500000Y-52160000D03*
%TO.P,J1,32,GND_32*%
X106500000Y-49620000D03*
%TO.P,J1,33,GPIO4_33*%
%TO.N,unconnected-(J1-GPIO4-Pad33)*%
X106500000Y-47080000D03*
%TO.P,J1,34,GPIO0_34*%
%TO.N,unconnected-(J1-GPIO0-Pad34)*%
X106500000Y-44540000D03*
%TO.P,J1,35,GPIO2_35*%
%TO.N,unconnected-(J1-GPIO2-Pad35)*%
X106500000Y-42000000D03*
%TO.P,J1,36,GPIO15_36*%
%TO.N,unconnected-(J1-GPIO15-Pad36)*%
X106500000Y-39460000D03*
%TO.P,J1,37,GPIO8_37*%
%TO.N,unconnected-(J1-GPIO8-Pad37)*%
X106500000Y-36920000D03*
%TO.P,J1,38,GPIO7_38*%
%TO.N,unconnected-(J1-GPIO7-Pad38)*%
X106500000Y-34380000D03*
%TO.P,J1,39,GPIO6_39*%
%TO.N,unconnected-(J1-GPIO6-Pad39)*%
X106500000Y-31840000D03*
%TO.P,J1,40,GND_40*%
%TO.N,/GND*%
X106500000Y-29300000D03*
%TD*%
D12*
%TO.N,/GPIO11*%
X114000000Y-49500000D03*
%TO.N,/GPIO12*%
X115000000Y-50000000D03*
%TO.N,/GPIO13*%
X116000000Y-50500000D03*
%TD*%
%TO.N,/GPIO11*%
D13*
X90175000Y-73630000D02*
X90175000Y-69398654D01*
X106263654Y-53310000D02*
X110190000Y-53310000D01*
X110190000Y-53310000D02*
X114000000Y-49500000D01*
X90175000Y-69398654D02*
X106263654Y-53310000D01*
%TO.N,/GPIO12*%
X109150000Y-55850000D02*
X115000000Y-50000000D01*
X106263654Y-55850000D02*
X109150000Y-55850000D01*
X92715000Y-69398654D02*
X106263654Y-55850000D01*
X92715000Y-73630000D02*
X92715000Y-69398654D01*
%TO.N,/GPIO13*%
X95255000Y-69398654D02*
X106263654Y-58390000D01*
X95255000Y-73630000D02*
X95255000Y-69398654D01*
X108110000Y-58390000D02*
X116000000Y-50500000D01*
X106263654Y-58390000D02*
X108110000Y-58390000D01*
%TO.N,/5V*%
D14*
X119000000Y-42300000D02*
X132000000Y-29300000D01*
X105815000Y-79110000D02*
X107390000Y-79110000D01*
X107390000Y-79110000D02*
X119000000Y-67500000D01*
X119000000Y-67500000D02*
X119000000Y-42300000D01*
X100335000Y-73630000D02*
X105815000Y-79110000D01*
%TO.N,/Left*%
X87000000Y-46960000D02*
X92000000Y-41960000D01*
X92000000Y-41960000D02*
X92000000Y-37000000D01*
%TO.N,/Right*%
X87000000Y-52040000D02*
X97000000Y-42040000D01*
X97000000Y-42040000D02*
X97000000Y-32500000D01*
%TO.N,/3V3*%
D15*
X113500000Y-74500000D02*
X128940000Y-74500000D01*
X107940000Y-80060000D02*
X113500000Y-74500000D01*
X88500000Y-63700000D02*
X88500000Y-70926522D01*
X88500000Y-70926522D02*
X86335000Y-73091522D01*
X86335000Y-74168478D02*
X92226522Y-80060000D01*
X86335000Y-73091522D02*
X86335000Y-74168478D01*
X92226522Y-80060000D02*
X107940000Y-80060000D01*
X128940000Y-74500000D02*
X132000000Y-77560000D01*
X87000000Y-62200000D02*
X88500000Y-63700000D01*
%TD*%
%TA.AperFunction,Conductor*%
%TO.N,/GND*%
G36*
X98909925Y-74391371D02*
G01*
X98934660Y-74356047D01*
X98957322Y-74316796D01*
X98981737Y-74286646D01*
X99014273Y-74265516D01*
X99051747Y-74255474D01*
X99090489Y-74257504D01*
X99126709Y-74271407D01*
X99156859Y-74295822D01*
X99172095Y-74316791D01*
X99194914Y-74356315D01*
X99194917Y-74356319D01*
X99194918Y-74356321D01*
X99262558Y-74452920D01*
X99338344Y-74543238D01*
X99338350Y-74543245D01*
X99338358Y-74543254D01*
X99421746Y-74626642D01*
X99421755Y-74626650D01*
X99421761Y-74626655D01*
X99512077Y-74702440D01*
X99512083Y-74702444D01*
X99512084Y-74702445D01*
X99608685Y-74770086D01*
X99710814Y-74829050D01*
X99741923Y-74843556D01*
X99817680Y-74878882D01*
X99817685Y-74878883D01*
X99817694Y-74878888D01*
X99928510Y-74919222D01*
X99928516Y-74919223D01*
X99928520Y-74919225D01*
X99959536Y-74927535D01*
X100042420Y-74949744D01*
X100158556Y-74970222D01*
X100225096Y-74976042D01*
X100262737Y-74985427D01*
X100295638Y-75005985D01*
X100301969Y-75011889D01*
X104387898Y-79097819D01*
X104410702Y-79129205D01*
X104422690Y-79166102D01*
X104422690Y-79204898D01*
X104410702Y-79241795D01*
X104387898Y-79273181D01*
X104356512Y-79295985D01*
X104319615Y-79307973D01*
X104300217Y-79309500D01*
X92588751Y-79309500D01*
X92550433Y-79303431D01*
X92515866Y-79285818D01*
X92501070Y-79273181D01*
X88244867Y-75016978D01*
X88222063Y-74985592D01*
X88210075Y-74948695D01*
X88210075Y-74909899D01*
X88222063Y-74873002D01*
X88244867Y-74841616D01*
X88270549Y-74821909D01*
X88361047Y-74769660D01*
X88396371Y-74744925D01*
X87764409Y-74112963D01*
X87796065Y-74104481D01*
X87856619Y-74079399D01*
X87913381Y-74046627D01*
X87965380Y-74006727D01*
X88011727Y-73960380D01*
X88051627Y-73908381D01*
X88084399Y-73851619D01*
X88109481Y-73791065D01*
X88117963Y-73759409D01*
X88749925Y-74391371D01*
X88774660Y-74356047D01*
X88797322Y-74316796D01*
X88821737Y-74286646D01*
X88854273Y-74265516D01*
X88891747Y-74255474D01*
X88930489Y-74257504D01*
X88966709Y-74271407D01*
X88996859Y-74295822D01*
X89012095Y-74316791D01*
X89034914Y-74356315D01*
X89034917Y-74356319D01*
X89034918Y-74356321D01*
X89102558Y-74452920D01*
X89178344Y-74543238D01*
X89178350Y-74543245D01*
X89178358Y-74543254D01*
X89261746Y-74626642D01*
X89261755Y-74626650D01*
X89261761Y-74626655D01*
X89352077Y-74702440D01*
X89352083Y-74702444D01*
X89352084Y-74702445D01*
X89448685Y-74770086D01*
X89550814Y-74829050D01*
X89581923Y-74843556D01*
X89657680Y-74878882D01*
X89657685Y-74878883D01*
X89657694Y-74878888D01*
X89768510Y-74919222D01*
X89768516Y-74919223D01*
X89768520Y-74919225D01*
X89799536Y-74927535D01*
X89882420Y-74949744D01*
X89998556Y-74970222D01*
X90116034Y-74980499D01*
X90116035Y-74980500D01*
X90116036Y-74980500D01*
X90233965Y-74980500D01*
X90233965Y-74980499D01*
X90351444Y-74970222D01*
X90467580Y-74949744D01*
X90581490Y-74919222D01*
X90692306Y-74878888D01*
X90799186Y-74829050D01*
X90901315Y-74770086D01*
X90997916Y-74702445D01*
X91088254Y-74626642D01*
X91171642Y-74543254D01*
X91244744Y-74456135D01*
X91247442Y-74452920D01*
X91247445Y-74452916D01*
X91315086Y-74356315D01*
X91337615Y-74317292D01*
X91362027Y-74287147D01*
X91394564Y-74266017D01*
X91432038Y-74255975D01*
X91470780Y-74258006D01*
X91506999Y-74271908D01*
X91537149Y-74296323D01*
X91552383Y-74317290D01*
X91574914Y-74356315D01*
X91574917Y-74356319D01*
X91574918Y-74356321D01*
X91642558Y-74452920D01*
X91718344Y-74543238D01*
X91718350Y-74543245D01*
X91718358Y-74543254D01*
X91801746Y-74626642D01*
X91801755Y-74626650D01*
X91801761Y-74626655D01*
X91892077Y-74702440D01*
X91892083Y-74702444D01*
X91892084Y-74702445D01*
X91988685Y-74770086D01*
X92090814Y-74829050D01*
X92121923Y-74843556D01*
X92197680Y-74878882D01*
X92197685Y-74878883D01*
X92197694Y-74878888D01*
X92308510Y-74919222D01*
X92308516Y-74919223D01*
X92308520Y-74919225D01*
X92339536Y-74927535D01*
X92422420Y-74949744D01*
X92538556Y-74970222D01*
X92656034Y-74980499D01*
X92656035Y-74980500D01*
X92656036Y-74980500D01*
X92773965Y-74980500D01*
X92773965Y-74980499D01*
X92891444Y-74970222D01*
X93007580Y-74949744D01*
X93121490Y-74919222D01*
X93232306Y-74878888D01*
X93339186Y-74829050D01*
X93441315Y-74770086D01*
X93537916Y-74702445D01*
X93628254Y-74626642D01*
X93711642Y-74543254D01*
X93784744Y-74456135D01*
X93787442Y-74452920D01*
X93787445Y-74452916D01*
X93855086Y-74356315D01*
X93877615Y-74317292D01*
X93902027Y-74287147D01*
X93934564Y-74266017D01*
X93972038Y-74255975D01*
X94010780Y-74258006D01*
X94046999Y-74271908D01*
X94077149Y-74296323D01*
X94092383Y-74317290D01*
X94114914Y-74356315D01*
X94114917Y-74356319D01*
X94114918Y-74356321D01*
X94182558Y-74452920D01*
X94258344Y-74543238D01*
X94258350Y-74543245D01*
X94258358Y-74543254D01*
X94341746Y-74626642D01*
X94341755Y-74626650D01*
X94341761Y-74626655D01*
X94432077Y-74702440D01*
X94432083Y-74702444D01*
X94432084Y-74702445D01*
X94528685Y-74770086D01*
X94630814Y-74829050D01*
X94661923Y-74843556D01*
X94737680Y-74878882D01*
X94737685Y-74878883D01*
X94737694Y-74878888D01*
X94848510Y-74919222D01*
X94848516Y-74919223D01*
X94848520Y-74919225D01*
X94879536Y-74927535D01*
X94962420Y-74949744D01*
X95078556Y-74970222D01*
X95196034Y-74980499D01*
X95196035Y-74980500D01*
X95196036Y-74980500D01*
X95313965Y-74980500D01*
X95313965Y-74980499D01*
X95431444Y-74970222D01*
X95547580Y-74949744D01*
X95661490Y-74919222D01*
X95772306Y-74878888D01*
X95879186Y-74829050D01*
X95981315Y-74770086D01*
X96077916Y-74702445D01*
X96168254Y-74626642D01*
X96251642Y-74543254D01*
X96324744Y-74456135D01*
X96327442Y-74452920D01*
X96327445Y-74452916D01*
X96395086Y-74356315D01*
X96417905Y-74316790D01*
X96442316Y-74286646D01*
X96474852Y-74265516D01*
X96512326Y-74255474D01*
X96551069Y-74257504D01*
X96587288Y-74271407D01*
X96617438Y-74295822D01*
X96632676Y-74316794D01*
X96655338Y-74356046D01*
X96655348Y-74356062D01*
X96680072Y-74391371D01*
X96680074Y-74391372D01*
X97312036Y-73759409D01*
X97320519Y-73791065D01*
X97345601Y-73851619D01*
X97378373Y-73908381D01*
X97418273Y-73960380D01*
X97464620Y-74006727D01*
X97516619Y-74046627D01*
X97573381Y-74079399D01*
X97633935Y-74104481D01*
X97665590Y-74112962D01*
X97033626Y-74744925D01*
X97068948Y-74769658D01*
X97068963Y-74769667D01*
X97171039Y-74828601D01*
X97171055Y-74828609D01*
X97277867Y-74878417D01*
X97277875Y-74878420D01*
X97388657Y-74918742D01*
X97502526Y-74949254D01*
X97502533Y-74949255D01*
X97618620Y-74969725D01*
X97618619Y-74969725D01*
X97736054Y-74979999D01*
X97736057Y-74980000D01*
X97853943Y-74980000D01*
X97853945Y-74979999D01*
X97971380Y-74969725D01*
X98087466Y-74949255D01*
X98087473Y-74949254D01*
X98201341Y-74918742D01*
X98201343Y-74918742D01*
X98312124Y-74878420D01*
X98312132Y-74878417D01*
X98418944Y-74828609D01*
X98418960Y-74828601D01*
X98521043Y-74769663D01*
X98556371Y-74744925D01*
X97924409Y-74112963D01*
X97956065Y-74104481D01*
X98016619Y-74079399D01*
X98073381Y-74046627D01*
X98125380Y-74006727D01*
X98171727Y-73960380D01*
X98211627Y-73908381D01*
X98244399Y-73851619D01*
X98269481Y-73791065D01*
X98277963Y-73759409D01*
X98909925Y-74391371D01*
G37*
%TD.AperFunction*%
%TA.AperFunction,Conductor*%
G36*
X105256630Y-60367429D02*
G01*
X105288016Y-60390233D01*
X105307717Y-60415908D01*
X105359914Y-60506315D01*
X105359917Y-60506319D01*
X105359918Y-60506321D01*
X105427559Y-60602922D01*
X105503344Y-60693238D01*
X105503350Y-60693245D01*
X105503358Y-60693254D01*
X105586746Y-60776642D01*
X105586755Y-60776650D01*
X105586761Y-60776655D01*
X105677077Y-60852440D01*
X105677083Y-60852444D01*
X105677084Y-60852445D01*
X105773685Y-60920086D01*
X105812703Y-60942613D01*
X105813204Y-60942902D01*
X105843354Y-60967317D01*
X105864484Y-60999854D01*
X105874525Y-61037327D01*
X105872494Y-61076070D01*
X105858591Y-61112289D01*
X105834176Y-61142439D01*
X105813204Y-61157676D01*
X105773957Y-61180334D01*
X105738626Y-61205072D01*
X106370590Y-61837036D01*
X106338935Y-61845519D01*
X106278381Y-61870601D01*
X106221619Y-61903373D01*
X106169620Y-61943273D01*
X106123273Y-61989620D01*
X106083373Y-62041619D01*
X106050601Y-62098381D01*
X106025519Y-62158935D01*
X106017036Y-62190590D01*
X105385072Y-61558626D01*
X105360334Y-61593957D01*
X105360328Y-61593967D01*
X105301403Y-61696028D01*
X105301390Y-61696055D01*
X105251582Y-61802867D01*
X105251579Y-61802875D01*
X105211257Y-61913656D01*
X105211257Y-61913658D01*
X105180745Y-62027526D01*
X105180744Y-62027533D01*
X105160274Y-62143619D01*
X105150000Y-62261054D01*
X105150000Y-62378945D01*
X105160274Y-62496380D01*
X105180744Y-62612466D01*
X105180745Y-62612473D01*
X105211257Y-62726341D01*
X105211257Y-62726343D01*
X105251579Y-62837124D01*
X105251582Y-62837132D01*
X105301390Y-62943944D01*
X105301398Y-62943960D01*
X105360332Y-63046036D01*
X105360348Y-63046062D01*
X105385072Y-63081371D01*
X105385074Y-63081372D01*
X106017036Y-62449409D01*
X106025519Y-62481065D01*
X106050601Y-62541619D01*
X106083373Y-62598381D01*
X106123273Y-62650380D01*
X106169620Y-62696727D01*
X106221619Y-62736627D01*
X106278381Y-62769399D01*
X106338935Y-62794481D01*
X106370590Y-62802962D01*
X105738626Y-63434925D01*
X105773948Y-63459658D01*
X105773963Y-63459667D01*
X105813204Y-63482323D01*
X105843354Y-63506738D01*
X105864483Y-63539274D01*
X105874525Y-63576748D01*
X105872494Y-63615491D01*
X105858591Y-63651710D01*
X105834176Y-63681860D01*
X105813206Y-63697096D01*
X105773691Y-63719910D01*
X105773678Y-63719918D01*
X105677077Y-63787559D01*
X105586761Y-63863344D01*
X105586737Y-63863366D01*
X105503366Y-63946737D01*
X105503344Y-63946761D01*
X105427559Y-64037077D01*
X105359918Y-64133678D01*
X105359909Y-64133693D01*
X105300953Y-64235808D01*
X105300941Y-64235832D01*
X105251117Y-64342680D01*
X105210774Y-64453520D01*
X105180258Y-64567412D01*
X105180255Y-64567425D01*
X105159778Y-64683553D01*
X105149500Y-64801032D01*
X105149500Y-64918967D01*
X105159778Y-65036446D01*
X105180255Y-65152574D01*
X105180258Y-65152587D01*
X105210774Y-65266479D01*
X105210777Y-65266489D01*
X105210778Y-65266490D01*
X105246338Y-65364191D01*
X105251117Y-65377319D01*
X105300941Y-65484167D01*
X105300950Y-65484186D01*
X105300953Y-65484191D01*
X105359909Y-65586306D01*
X105359918Y-65586321D01*
X105427559Y-65682922D01*
X105503344Y-65773238D01*
X105503350Y-65773245D01*
X105503358Y-65773254D01*
X105586746Y-65856642D01*
X105586755Y-65856650D01*
X105586761Y-65856655D01*
X105677077Y-65932440D01*
X105677083Y-65932444D01*
X105677084Y-65932445D01*
X105773685Y-66000086D01*
X105790857Y-66010000D01*
X105812703Y-66022613D01*
X105842853Y-66047028D01*
X105863983Y-66079565D01*
X105874024Y-66117039D01*
X105871993Y-66155782D01*
X105858090Y-66192000D01*
X105833675Y-66222150D01*
X105812703Y-66237387D01*
X105773693Y-66259909D01*
X105773678Y-66259918D01*
X105677077Y-66327559D01*
X105586761Y-66403344D01*
X105586737Y-66403366D01*
X105503366Y-66486737D01*
X105503344Y-66486761D01*
X105427559Y-66577077D01*
X105359918Y-66673678D01*
X105359909Y-66673693D01*
X105300953Y-66775808D01*
X105300941Y-66775832D01*
X105251117Y-66882680D01*
X105210774Y-66993520D01*
X105180258Y-67107412D01*
X105180255Y-67107425D01*
X105159778Y-67223553D01*
X105149500Y-67341032D01*
X105149500Y-67458967D01*
X105159778Y-67576446D01*
X105180255Y-67692574D01*
X105180258Y-67692587D01*
X105210774Y-67806479D01*
X105210777Y-67806489D01*
X105210778Y-67806490D01*
X105246338Y-67904191D01*
X105251117Y-67917319D01*
X105300941Y-68024167D01*
X105300950Y-68024186D01*
X105300953Y-68024191D01*
X105359909Y-68126306D01*
X105359918Y-68126321D01*
X105427559Y-68222922D01*
X105503344Y-68313238D01*
X105503350Y-68313245D01*
X105503358Y-68313254D01*
X105586746Y-68396642D01*
X105586755Y-68396650D01*
X105586761Y-68396655D01*
X105677077Y-68472440D01*
X105677083Y-68472444D01*
X105677084Y-68472445D01*
X105773685Y-68540086D01*
X105811143Y-68561712D01*
X105812703Y-68562613D01*
X105842853Y-68587028D01*
X105863983Y-68619565D01*
X105874024Y-68657039D01*
X105871993Y-68695782D01*
X105858090Y-68732000D01*
X105833675Y-68762150D01*
X105812703Y-68777387D01*
X105773693Y-68799909D01*
X105773678Y-68799918D01*
X105677077Y-68867559D01*
X105586761Y-68943344D01*
X105586737Y-68943366D01*
X105503366Y-69026737D01*
X105503344Y-69026761D01*
X105427559Y-69117077D01*
X105359918Y-69213678D01*
X105359909Y-69213693D01*
X105300953Y-69315808D01*
X105300941Y-69315832D01*
X105251117Y-69422680D01*
X105210774Y-69533520D01*
X105180258Y-69647412D01*
X105180255Y-69647425D01*
X105159778Y-69763553D01*
X105149500Y-69881032D01*
X105149500Y-69998967D01*
X105159778Y-70116446D01*
X105180255Y-70232574D01*
X105180258Y-70232587D01*
X105210774Y-70346479D01*
X105251117Y-70457319D01*
X105300941Y-70564167D01*
X105300950Y-70564186D01*
X105300953Y-70564191D01*
X105359909Y-70666306D01*
X105359918Y-70666321D01*
X105427559Y-70762922D01*
X105503344Y-70853238D01*
X105503350Y-70853245D01*
X105503358Y-70853254D01*
X105586746Y-70936642D01*
X105586755Y-70936650D01*
X105586761Y-70936655D01*
X105677077Y-71012440D01*
X105677083Y-71012444D01*
X105677084Y-71012445D01*
X105773685Y-71080086D01*
X105811143Y-71101712D01*
X105812703Y-71102613D01*
X105842853Y-71127028D01*
X105863983Y-71159565D01*
X105874024Y-71197039D01*
X105871993Y-71235782D01*
X105858090Y-71272000D01*
X105833675Y-71302150D01*
X105812703Y-71317387D01*
X105773693Y-71339909D01*
X105773678Y-71339918D01*
X105677077Y-71407559D01*
X105586761Y-71483344D01*
X105586737Y-71483366D01*
X105503366Y-71566737D01*
X105503344Y-71566761D01*
X105427559Y-71657077D01*
X105359918Y-71753678D01*
X105359909Y-71753693D01*
X105300953Y-71855808D01*
X105300941Y-71855832D01*
X105251117Y-71962680D01*
X105210774Y-72073520D01*
X105180258Y-72187412D01*
X105180255Y-72187425D01*
X105159778Y-72303553D01*
X105149500Y-72421032D01*
X105149500Y-72538967D01*
X105159778Y-72656446D01*
X105180255Y-72772574D01*
X105180258Y-72772587D01*
X105210774Y-72886479D01*
X105210777Y-72886489D01*
X105210778Y-72886490D01*
X105242394Y-72973355D01*
X105251117Y-72997319D01*
X105275391Y-73049374D01*
X105300950Y-73104186D01*
X105300953Y-73104191D01*
X105359909Y-73206306D01*
X105359918Y-73206321D01*
X105427559Y-73302922D01*
X105503344Y-73393238D01*
X105503350Y-73393245D01*
X105503358Y-73393254D01*
X105586746Y-73476642D01*
X105586755Y-73476650D01*
X105586761Y-73476655D01*
X105677077Y-73552440D01*
X105677083Y-73552444D01*
X105677084Y-73552445D01*
X105773685Y-73620086D01*
X105790855Y-73629999D01*
X105812703Y-73642613D01*
X105842853Y-73667028D01*
X105863983Y-73699565D01*
X105874024Y-73737039D01*
X105871993Y-73775782D01*
X105858090Y-73812000D01*
X105833675Y-73842150D01*
X105812703Y-73857387D01*
X105773693Y-73879909D01*
X105773678Y-73879918D01*
X105677077Y-73947559D01*
X105586761Y-74023344D01*
X105586737Y-74023366D01*
X105503366Y-74106737D01*
X105503344Y-74106761D01*
X105427559Y-74197077D01*
X105359918Y-74293678D01*
X105359909Y-74293693D01*
X105300953Y-74395808D01*
X105300941Y-74395832D01*
X105251117Y-74502680D01*
X105210774Y-74613520D01*
X105180258Y-74727412D01*
X105180255Y-74727425D01*
X105159778Y-74843553D01*
X105149500Y-74961032D01*
X105149500Y-75078967D01*
X105159778Y-75196446D01*
X105180255Y-75312574D01*
X105180258Y-75312587D01*
X105210774Y-75426479D01*
X105251117Y-75537319D01*
X105300941Y-75644167D01*
X105300950Y-75644186D01*
X105300953Y-75644191D01*
X105359909Y-75746306D01*
X105359918Y-75746321D01*
X105427559Y-75842922D01*
X105503344Y-75933238D01*
X105503350Y-75933245D01*
X105503358Y-75933254D01*
X105586746Y-76016642D01*
X105586755Y-76016650D01*
X105586761Y-76016655D01*
X105677077Y-76092440D01*
X105677083Y-76092444D01*
X105677084Y-76092445D01*
X105773685Y-76160086D01*
X105813202Y-76182901D01*
X105813204Y-76182902D01*
X105843354Y-76207317D01*
X105864484Y-76239854D01*
X105874525Y-76277327D01*
X105872494Y-76316070D01*
X105858591Y-76352289D01*
X105834176Y-76382439D01*
X105813204Y-76397676D01*
X105773957Y-76420334D01*
X105738626Y-76445072D01*
X106370590Y-77077036D01*
X106338935Y-77085519D01*
X106278381Y-77110601D01*
X106221619Y-77143373D01*
X106169620Y-77183273D01*
X106123273Y-77229620D01*
X106083373Y-77281619D01*
X106050601Y-77338381D01*
X106025519Y-77398935D01*
X106017036Y-77430590D01*
X105385072Y-76798626D01*
X105360334Y-76833957D01*
X105360328Y-76833967D01*
X105301403Y-76936028D01*
X105301388Y-76936059D01*
X105298184Y-76942930D01*
X105276489Y-76975092D01*
X105245916Y-76998976D01*
X105209460Y-77012244D01*
X105170688Y-77013596D01*
X105133395Y-77002901D01*
X105101233Y-76981206D01*
X105098123Y-76978202D01*
X101716889Y-73596969D01*
X101694085Y-73565583D01*
X101682097Y-73528686D01*
X101681044Y-73520111D01*
X101675222Y-73453556D01*
X101654744Y-73337420D01*
X101624222Y-73223510D01*
X101583888Y-73112694D01*
X101583883Y-73112685D01*
X101583882Y-73112680D01*
X101534058Y-73005832D01*
X101534050Y-73005814D01*
X101475086Y-72903685D01*
X101407445Y-72807084D01*
X101407444Y-72807083D01*
X101407440Y-72807077D01*
X101331655Y-72716761D01*
X101331650Y-72716755D01*
X101331642Y-72716746D01*
X101248254Y-72633358D01*
X101248245Y-72633350D01*
X101248238Y-72633344D01*
X101157922Y-72557559D01*
X101061321Y-72489918D01*
X101061316Y-72489915D01*
X101061315Y-72489914D01*
X100959186Y-72430950D01*
X100959167Y-72430941D01*
X100852319Y-72381117D01*
X100852308Y-72381113D01*
X100852306Y-72381112D01*
X100741490Y-72340778D01*
X100741489Y-72340777D01*
X100741479Y-72340774D01*
X100627587Y-72310258D01*
X100627590Y-72310258D01*
X100627580Y-72310256D01*
X100589566Y-72303553D01*
X100511446Y-72289778D01*
X100393967Y-72279500D01*
X100393964Y-72279500D01*
X100276036Y-72279500D01*
X100276032Y-72279500D01*
X100158553Y-72289778D01*
X100042425Y-72310255D01*
X100042422Y-72310255D01*
X100042420Y-72310256D01*
X100042415Y-72310257D01*
X100042412Y-72310258D01*
X99928520Y-72340774D01*
X99817680Y-72381117D01*
X99710832Y-72430941D01*
X99710808Y-72430953D01*
X99608693Y-72489909D01*
X99608678Y-72489918D01*
X99512077Y-72557559D01*
X99421761Y-72633344D01*
X99421737Y-72633366D01*
X99338366Y-72716737D01*
X99338344Y-72716761D01*
X99262559Y-72807077D01*
X99194918Y-72903678D01*
X99194910Y-72903691D01*
X99172096Y-72943206D01*
X99147681Y-72973355D01*
X99115143Y-72994485D01*
X99077669Y-73004525D01*
X99038927Y-73002494D01*
X99002708Y-72988590D01*
X98972559Y-72964175D01*
X98957323Y-72943204D01*
X98934667Y-72903963D01*
X98934658Y-72903948D01*
X98909925Y-72868626D01*
X98277962Y-73500589D01*
X98269481Y-73468935D01*
X98244399Y-73408381D01*
X98211627Y-73351619D01*
X98171727Y-73299620D01*
X98125380Y-73253273D01*
X98073381Y-73213373D01*
X98016619Y-73180601D01*
X97956065Y-73155519D01*
X97924409Y-73147037D01*
X98556372Y-72515074D01*
X98556371Y-72515072D01*
X98521062Y-72490348D01*
X98521036Y-72490332D01*
X98418960Y-72431398D01*
X98418944Y-72431390D01*
X98312132Y-72381582D01*
X98312124Y-72381579D01*
X98201342Y-72341257D01*
X98087473Y-72310745D01*
X98087466Y-72310744D01*
X97971379Y-72290274D01*
X97971380Y-72290274D01*
X97853945Y-72280000D01*
X97736054Y-72280000D01*
X97618619Y-72290274D01*
X97502533Y-72310744D01*
X97502526Y-72310745D01*
X97388658Y-72341257D01*
X97388656Y-72341257D01*
X97277875Y-72381579D01*
X97277867Y-72381582D01*
X97171055Y-72431390D01*
X97171028Y-72431403D01*
X97068967Y-72490328D01*
X97068957Y-72490334D01*
X97033626Y-72515072D01*
X97665590Y-73147036D01*
X97633935Y-73155519D01*
X97573381Y-73180601D01*
X97516619Y-73213373D01*
X97464620Y-73253273D01*
X97418273Y-73299620D01*
X97378373Y-73351619D01*
X97345601Y-73408381D01*
X97320519Y-73468935D01*
X97312036Y-73500590D01*
X96680072Y-72868626D01*
X96655334Y-72903957D01*
X96632676Y-72943204D01*
X96608261Y-72973354D01*
X96575725Y-72994483D01*
X96538251Y-73004525D01*
X96499508Y-73002494D01*
X96463289Y-72988591D01*
X96433139Y-72964176D01*
X96417902Y-72943204D01*
X96417613Y-72942703D01*
X96395086Y-72903685D01*
X96327445Y-72807084D01*
X96327444Y-72807083D01*
X96327440Y-72807077D01*
X96251655Y-72716761D01*
X96251650Y-72716755D01*
X96251642Y-72716746D01*
X96168254Y-72633358D01*
X96168245Y-72633350D01*
X96168238Y-72633344D01*
X96077922Y-72557559D01*
X95981321Y-72489918D01*
X95981319Y-72489917D01*
X95981315Y-72489914D01*
X95917498Y-72453069D01*
X95887349Y-72428655D01*
X95866220Y-72396117D01*
X95856179Y-72358644D01*
X95855500Y-72345683D01*
X95855500Y-69698750D01*
X95861569Y-69660432D01*
X95879182Y-69625865D01*
X95891813Y-69611075D01*
X105112657Y-60390230D01*
X105144040Y-60367429D01*
X105180937Y-60355441D01*
X105219733Y-60355441D01*
X105256630Y-60367429D01*
G37*
%TD.AperFunction*%
%TA.AperFunction,Conductor*%
G36*
X130652452Y-32183639D02*
G01*
X130683838Y-32206443D01*
X130706642Y-32237829D01*
X130712676Y-32251707D01*
X130751112Y-32357306D01*
X130751115Y-32357313D01*
X130751119Y-32357323D01*
X130761435Y-32379445D01*
X130800950Y-32464186D01*
X130800953Y-32464191D01*
X130859909Y-32566306D01*
X130859918Y-32566321D01*
X130927559Y-32662922D01*
X131003344Y-32753238D01*
X131003350Y-32753245D01*
X131003358Y-32753254D01*
X131086746Y-32836642D01*
X131086755Y-32836650D01*
X131086761Y-32836655D01*
X131177077Y-32912440D01*
X131177083Y-32912444D01*
X131177084Y-32912445D01*
X131273685Y-32980086D01*
X131311143Y-33001712D01*
X131312703Y-33002613D01*
X131342853Y-33027028D01*
X131363983Y-33059565D01*
X131374024Y-33097039D01*
X131371993Y-33135782D01*
X131358090Y-33172000D01*
X131333675Y-33202150D01*
X131312703Y-33217387D01*
X131273693Y-33239909D01*
X131273678Y-33239918D01*
X131177077Y-33307559D01*
X131086761Y-33383344D01*
X131086737Y-33383366D01*
X131003366Y-33466737D01*
X131003344Y-33466761D01*
X130927559Y-33557077D01*
X130859918Y-33653678D01*
X130859909Y-33653693D01*
X130800953Y-33755808D01*
X130800941Y-33755832D01*
X130751117Y-33862680D01*
X130710774Y-33973520D01*
X130680258Y-34087412D01*
X130680255Y-34087425D01*
X130659778Y-34203553D01*
X130649500Y-34321032D01*
X130649500Y-34438967D01*
X130659778Y-34556446D01*
X130680255Y-34672574D01*
X130680258Y-34672587D01*
X130710774Y-34786479D01*
X130751117Y-34897319D01*
X130798765Y-34999500D01*
X130800950Y-35004186D01*
X130800953Y-35004191D01*
X130859909Y-35106306D01*
X130859918Y-35106321D01*
X130927559Y-35202922D01*
X131003344Y-35293238D01*
X131003350Y-35293245D01*
X131003358Y-35293254D01*
X131086746Y-35376642D01*
X131086755Y-35376650D01*
X131086761Y-35376655D01*
X131177077Y-35452440D01*
X131177083Y-35452444D01*
X131177084Y-35452445D01*
X131273685Y-35520086D01*
X131301325Y-35536044D01*
X131312703Y-35542613D01*
X131342853Y-35567028D01*
X131363983Y-35599565D01*
X131374024Y-35637039D01*
X131371993Y-35675782D01*
X131358090Y-35712000D01*
X131333675Y-35742150D01*
X131312703Y-35757387D01*
X131273693Y-35779909D01*
X131273678Y-35779918D01*
X131177077Y-35847559D01*
X131086761Y-35923344D01*
X131086737Y-35923366D01*
X131003366Y-36006737D01*
X131003344Y-36006761D01*
X130927559Y-36097077D01*
X130859918Y-36193678D01*
X130859909Y-36193693D01*
X130800953Y-36295808D01*
X130800941Y-36295832D01*
X130751117Y-36402680D01*
X130710774Y-36513520D01*
X130680258Y-36627412D01*
X130680255Y-36627425D01*
X130659778Y-36743553D01*
X130649500Y-36861032D01*
X130649500Y-36978967D01*
X130659778Y-37096446D01*
X130680255Y-37212574D01*
X130680258Y-37212587D01*
X130710774Y-37326479D01*
X130751117Y-37437319D01*
X130800941Y-37544167D01*
X130800950Y-37544186D01*
X130800953Y-37544191D01*
X130859909Y-37646306D01*
X130859918Y-37646321D01*
X130927559Y-37742922D01*
X131003344Y-37833238D01*
X131003350Y-37833245D01*
X131003358Y-37833254D01*
X131086746Y-37916642D01*
X131086755Y-37916650D01*
X131086761Y-37916655D01*
X131177077Y-37992440D01*
X131177083Y-37992444D01*
X131177084Y-37992445D01*
X131273685Y-38060086D01*
X131311143Y-38081712D01*
X131312703Y-38082613D01*
X131342853Y-38107028D01*
X131363983Y-38139565D01*
X131374024Y-38177039D01*
X131371993Y-38215782D01*
X131358090Y-38252000D01*
X131333675Y-38282150D01*
X131312703Y-38297387D01*
X131273693Y-38319909D01*
X131273678Y-38319918D01*
X131177077Y-38387559D01*
X131086761Y-38463344D01*
X131086737Y-38463366D01*
X131003366Y-38546737D01*
X131003344Y-38546761D01*
X130927559Y-38637077D01*
X130859918Y-38733678D01*
X130859909Y-38733693D01*
X130800953Y-38835808D01*
X130800941Y-38835832D01*
X130751117Y-38942680D01*
X130710774Y-39053520D01*
X130680258Y-39167412D01*
X130680255Y-39167425D01*
X130659778Y-39283553D01*
X130649500Y-39401032D01*
X130649500Y-39518967D01*
X130659778Y-39636446D01*
X130680255Y-39752574D01*
X130680258Y-39752587D01*
X130710774Y-39866479D01*
X130751117Y-39977319D01*
X130800941Y-40084167D01*
X130800950Y-40084186D01*
X130800953Y-40084191D01*
X130859909Y-40186306D01*
X130859918Y-40186321D01*
X130927559Y-40282922D01*
X131003344Y-40373238D01*
X131003350Y-40373245D01*
X131003358Y-40373254D01*
X131086746Y-40456642D01*
X131086755Y-40456650D01*
X131086761Y-40456655D01*
X131177077Y-40532440D01*
X131177083Y-40532444D01*
X131177084Y-40532445D01*
X131273685Y-40600086D01*
X131311143Y-40621712D01*
X131312703Y-40622613D01*
X131342853Y-40647028D01*
X131363983Y-40679565D01*
X131374024Y-40717039D01*
X131371993Y-40755782D01*
X131358090Y-40792000D01*
X131333675Y-40822150D01*
X131312703Y-40837387D01*
X131273693Y-40859909D01*
X131273678Y-40859918D01*
X131177077Y-40927559D01*
X131086761Y-41003344D01*
X131086737Y-41003366D01*
X131003366Y-41086737D01*
X131003344Y-41086761D01*
X130927559Y-41177077D01*
X130859918Y-41273678D01*
X130859909Y-41273693D01*
X130800953Y-41375808D01*
X130800941Y-41375832D01*
X130751117Y-41482680D01*
X130710774Y-41593520D01*
X130680258Y-41707412D01*
X130680255Y-41707425D01*
X130659778Y-41823553D01*
X130649500Y-41941032D01*
X130649500Y-42058967D01*
X130659778Y-42176446D01*
X130680255Y-42292574D01*
X130680258Y-42292587D01*
X130710774Y-42406479D01*
X130710777Y-42406489D01*
X130710778Y-42406490D01*
X130735706Y-42474980D01*
X130751117Y-42517319D01*
X130800941Y-42624167D01*
X130800950Y-42624186D01*
X130853046Y-42714420D01*
X130859909Y-42726306D01*
X130859918Y-42726321D01*
X130927559Y-42822922D01*
X131003344Y-42913238D01*
X131003350Y-42913245D01*
X131003358Y-42913254D01*
X131086746Y-42996642D01*
X131086755Y-42996650D01*
X131086761Y-42996655D01*
X131177077Y-43072440D01*
X131177083Y-43072444D01*
X131177084Y-43072445D01*
X131273685Y-43140086D01*
X131312703Y-43162613D01*
X131313204Y-43162902D01*
X131343354Y-43187317D01*
X131364484Y-43219854D01*
X131374525Y-43257327D01*
X131372494Y-43296070D01*
X131358591Y-43332289D01*
X131334176Y-43362439D01*
X131313204Y-43377676D01*
X131273957Y-43400334D01*
X131238626Y-43425072D01*
X131870590Y-44057036D01*
X131838935Y-44065519D01*
X131778381Y-44090601D01*
X131721619Y-44123373D01*
X131669620Y-44163273D01*
X131623273Y-44209620D01*
X131583373Y-44261619D01*
X131550601Y-44318381D01*
X131525519Y-44378935D01*
X131517036Y-44410590D01*
X130885072Y-43778626D01*
X130860334Y-43813957D01*
X130860328Y-43813967D01*
X130801403Y-43916028D01*
X130801390Y-43916055D01*
X130751582Y-44022867D01*
X130751579Y-44022875D01*
X130711257Y-44133656D01*
X130711257Y-44133658D01*
X130680745Y-44247526D01*
X130680744Y-44247533D01*
X130660274Y-44363619D01*
X130650000Y-44481054D01*
X130650000Y-44598945D01*
X130660274Y-44716380D01*
X130680744Y-44832466D01*
X130680745Y-44832473D01*
X130711257Y-44946341D01*
X130711257Y-44946343D01*
X130751579Y-45057124D01*
X130751582Y-45057132D01*
X130801390Y-45163944D01*
X130801398Y-45163960D01*
X130860332Y-45266036D01*
X130860348Y-45266062D01*
X130885072Y-45301371D01*
X130885074Y-45301372D01*
X131517036Y-44669409D01*
X131525519Y-44701065D01*
X131550601Y-44761619D01*
X131583373Y-44818381D01*
X131623273Y-44870380D01*
X131669620Y-44916727D01*
X131721619Y-44956627D01*
X131778381Y-44989399D01*
X131838935Y-45014481D01*
X131870590Y-45022962D01*
X131238626Y-45654925D01*
X131273948Y-45679658D01*
X131273963Y-45679667D01*
X131313204Y-45702323D01*
X131343354Y-45726738D01*
X131364483Y-45759274D01*
X131374525Y-45796748D01*
X131372494Y-45835491D01*
X131358591Y-45871710D01*
X131334176Y-45901860D01*
X131313206Y-45917096D01*
X131273691Y-45939910D01*
X131273678Y-45939918D01*
X131177077Y-46007559D01*
X131086761Y-46083344D01*
X131086737Y-46083366D01*
X131003366Y-46166737D01*
X131003344Y-46166761D01*
X130927559Y-46257077D01*
X130859918Y-46353678D01*
X130859909Y-46353693D01*
X130800953Y-46455808D01*
X130800941Y-46455832D01*
X130751117Y-46562680D01*
X130710774Y-46673520D01*
X130680258Y-46787412D01*
X130680255Y-46787425D01*
X130659778Y-46903553D01*
X130649500Y-47021032D01*
X130649500Y-47138967D01*
X130659778Y-47256446D01*
X130680255Y-47372574D01*
X130680258Y-47372587D01*
X130710774Y-47486479D01*
X130710777Y-47486489D01*
X130710778Y-47486490D01*
X130746338Y-47584191D01*
X130751117Y-47597319D01*
X130800941Y-47704167D01*
X130800950Y-47704186D01*
X130800953Y-47704191D01*
X130859909Y-47806306D01*
X130859918Y-47806321D01*
X130927559Y-47902922D01*
X131003344Y-47993238D01*
X131003350Y-47993245D01*
X131003358Y-47993254D01*
X131086746Y-48076642D01*
X131086755Y-48076650D01*
X131086761Y-48076655D01*
X131177077Y-48152440D01*
X131177083Y-48152444D01*
X131177084Y-48152445D01*
X131273685Y-48220086D01*
X131311143Y-48241712D01*
X131312703Y-48242613D01*
X131342853Y-48267028D01*
X131363983Y-48299565D01*
X131374024Y-48337039D01*
X131371993Y-48375782D01*
X131358090Y-48412000D01*
X131333675Y-48442150D01*
X131312703Y-48457387D01*
X131273693Y-48479909D01*
X131273678Y-48479918D01*
X131177077Y-48547559D01*
X131086761Y-48623344D01*
X131086737Y-48623366D01*
X131003366Y-48706737D01*
X131003344Y-48706761D01*
X130927559Y-48797077D01*
X130859918Y-48893678D01*
X130859909Y-48893693D01*
X130800953Y-48995808D01*
X130800941Y-48995832D01*
X130751117Y-49102680D01*
X130710774Y-49213520D01*
X130680258Y-49327412D01*
X130680255Y-49327425D01*
X130659778Y-49443553D01*
X130649500Y-49561032D01*
X130649500Y-49678967D01*
X130659778Y-49796446D01*
X130680255Y-49912574D01*
X130680258Y-49912587D01*
X130710774Y-50026479D01*
X130710777Y-50026489D01*
X130710778Y-50026490D01*
X130746254Y-50123960D01*
X130751117Y-50137319D01*
X130800941Y-50244167D01*
X130800950Y-50244186D01*
X130800953Y-50244191D01*
X130859909Y-50346306D01*
X130859918Y-50346321D01*
X130927559Y-50442922D01*
X131003344Y-50533238D01*
X131003350Y-50533245D01*
X131003358Y-50533254D01*
X131086746Y-50616642D01*
X131086755Y-50616650D01*
X131086761Y-50616655D01*
X131177077Y-50692440D01*
X131177083Y-50692444D01*
X131177084Y-50692445D01*
X131273685Y-50760086D01*
X131311143Y-50781712D01*
X131312703Y-50782613D01*
X131342853Y-50807028D01*
X131363983Y-50839565D01*
X131374024Y-50877039D01*
X131371993Y-50915782D01*
X131358090Y-50952000D01*
X131333675Y-50982150D01*
X131312703Y-50997387D01*
X131273693Y-51019909D01*
X131273678Y-51019918D01*
X131177077Y-51087559D01*
X131086761Y-51163344D01*
X131086737Y-51163366D01*
X131003366Y-51246737D01*
X131003344Y-51246761D01*
X130927559Y-51337077D01*
X130859918Y-51433678D01*
X130859909Y-51433693D01*
X130800953Y-51535808D01*
X130800941Y-51535832D01*
X130751117Y-51642680D01*
X130710774Y-51753520D01*
X130680258Y-51867412D01*
X130680255Y-51867425D01*
X130659778Y-51983553D01*
X130649500Y-52101032D01*
X130649500Y-52218967D01*
X130659778Y-52336446D01*
X130680255Y-52452574D01*
X130680258Y-52452587D01*
X130710774Y-52566479D01*
X130710777Y-52566489D01*
X130710778Y-52566490D01*
X130746338Y-52664191D01*
X130751117Y-52677319D01*
X130800941Y-52784167D01*
X130800950Y-52784186D01*
X130843309Y-52857555D01*
X130859909Y-52886306D01*
X130859918Y-52886321D01*
X130927559Y-52982922D01*
X131003344Y-53073238D01*
X131003350Y-53073245D01*
X131003358Y-53073254D01*
X131086746Y-53156642D01*
X131086755Y-53156650D01*
X131086761Y-53156655D01*
X131177077Y-53232440D01*
X131177083Y-53232444D01*
X131177084Y-53232445D01*
X131273685Y-53300086D01*
X131311143Y-53321712D01*
X131312703Y-53322613D01*
X131342853Y-53347028D01*
X131363983Y-53379565D01*
X131374024Y-53417039D01*
X131371993Y-53455782D01*
X131358090Y-53492000D01*
X131333675Y-53522150D01*
X131312703Y-53537387D01*
X131273693Y-53559909D01*
X131273678Y-53559918D01*
X131177077Y-53627559D01*
X131086761Y-53703344D01*
X131086737Y-53703366D01*
X131003366Y-53786737D01*
X131003344Y-53786761D01*
X130927559Y-53877077D01*
X130859918Y-53973678D01*
X130859909Y-53973693D01*
X130800953Y-54075808D01*
X130800941Y-54075832D01*
X130751117Y-54182680D01*
X130710774Y-54293520D01*
X130680258Y-54407412D01*
X130680255Y-54407425D01*
X130659778Y-54523553D01*
X130649500Y-54641032D01*
X130649500Y-54758967D01*
X130659778Y-54876446D01*
X130680255Y-54992574D01*
X130680258Y-54992587D01*
X130710774Y-55106479D01*
X130710777Y-55106489D01*
X130710778Y-55106490D01*
X130746254Y-55203960D01*
X130751117Y-55217319D01*
X130800941Y-55324167D01*
X130800950Y-55324186D01*
X130859913Y-55426314D01*
X130859918Y-55426321D01*
X130927559Y-55522922D01*
X131003344Y-55613238D01*
X131003350Y-55613245D01*
X131003358Y-55613254D01*
X131086746Y-55696642D01*
X131086755Y-55696650D01*
X131086761Y-55696655D01*
X131177077Y-55772440D01*
X131177083Y-55772444D01*
X131177084Y-55772445D01*
X131273685Y-55840086D01*
X131311143Y-55861712D01*
X131312703Y-55862613D01*
X131342853Y-55887028D01*
X131363983Y-55919565D01*
X131374024Y-55957039D01*
X131371993Y-55995782D01*
X131358090Y-56032000D01*
X131333675Y-56062150D01*
X131312703Y-56077387D01*
X131273693Y-56099909D01*
X131273678Y-56099918D01*
X131177077Y-56167559D01*
X131086761Y-56243344D01*
X131086737Y-56243366D01*
X131003366Y-56326737D01*
X131003344Y-56326761D01*
X130927559Y-56417077D01*
X130859918Y-56513678D01*
X130859909Y-56513693D01*
X130800953Y-56615808D01*
X130800941Y-56615832D01*
X130751117Y-56722680D01*
X130710774Y-56833520D01*
X130680258Y-56947412D01*
X130680255Y-56947425D01*
X130659778Y-57063553D01*
X130649500Y-57181032D01*
X130649500Y-57298967D01*
X130659778Y-57416446D01*
X130680255Y-57532574D01*
X130680258Y-57532587D01*
X130710774Y-57646479D01*
X130710777Y-57646489D01*
X130710778Y-57646490D01*
X130746338Y-57744191D01*
X130751117Y-57757319D01*
X130800941Y-57864167D01*
X130800950Y-57864186D01*
X130859913Y-57966314D01*
X130859918Y-57966321D01*
X130927559Y-58062922D01*
X131003344Y-58153238D01*
X131003350Y-58153245D01*
X131003358Y-58153254D01*
X131086746Y-58236642D01*
X131086755Y-58236650D01*
X131086761Y-58236655D01*
X131177077Y-58312440D01*
X131177083Y-58312444D01*
X131177084Y-58312445D01*
X131273685Y-58380086D01*
X131290857Y-58390000D01*
X131312703Y-58402613D01*
X131342853Y-58427028D01*
X131363983Y-58459565D01*
X131374024Y-58497039D01*
X131371993Y-58535782D01*
X131358090Y-58572000D01*
X131333675Y-58602150D01*
X131312703Y-58617387D01*
X131273693Y-58639909D01*
X131273678Y-58639918D01*
X131177077Y-58707559D01*
X131086761Y-58783344D01*
X131086737Y-58783366D01*
X131003366Y-58866737D01*
X131003344Y-58866761D01*
X130927559Y-58957077D01*
X130859918Y-59053678D01*
X130859909Y-59053693D01*
X130800953Y-59155808D01*
X130800941Y-59155832D01*
X130751117Y-59262680D01*
X130710774Y-59373520D01*
X130680258Y-59487412D01*
X130680255Y-59487425D01*
X130659778Y-59603553D01*
X130649500Y-59721032D01*
X130649500Y-59838967D01*
X130659778Y-59956446D01*
X130680255Y-60072574D01*
X130680258Y-60072587D01*
X130710774Y-60186479D01*
X130710777Y-60186489D01*
X130710778Y-60186490D01*
X130746338Y-60284191D01*
X130751117Y-60297319D01*
X130800941Y-60404167D01*
X130800950Y-60404186D01*
X130859913Y-60506314D01*
X130859918Y-60506321D01*
X130927559Y-60602922D01*
X131003344Y-60693238D01*
X131003350Y-60693245D01*
X131003358Y-60693254D01*
X131086746Y-60776642D01*
X131086755Y-60776650D01*
X131086761Y-60776655D01*
X131177077Y-60852440D01*
X131177083Y-60852444D01*
X131177084Y-60852445D01*
X131273685Y-60920086D01*
X131290857Y-60930000D01*
X131312703Y-60942613D01*
X131342853Y-60967028D01*
X131363983Y-60999565D01*
X131374024Y-61037039D01*
X131371993Y-61075782D01*
X131358090Y-61112000D01*
X131333675Y-61142150D01*
X131312703Y-61157387D01*
X131273693Y-61179909D01*
X131273678Y-61179918D01*
X131177077Y-61247559D01*
X131086761Y-61323344D01*
X131086737Y-61323366D01*
X131003366Y-61406737D01*
X131003344Y-61406761D01*
X130927559Y-61497077D01*
X130859918Y-61593678D01*
X130859909Y-61593693D01*
X130800953Y-61695808D01*
X130800941Y-61695832D01*
X130751117Y-61802680D01*
X130710774Y-61913520D01*
X130680258Y-62027412D01*
X130680255Y-62027425D01*
X130659778Y-62143553D01*
X130649500Y-62261032D01*
X130649500Y-62378967D01*
X130659778Y-62496446D01*
X130680255Y-62612574D01*
X130680258Y-62612587D01*
X130710774Y-62726479D01*
X130710777Y-62726489D01*
X130710778Y-62726490D01*
X130746338Y-62824191D01*
X130751117Y-62837319D01*
X130800941Y-62944167D01*
X130800950Y-62944186D01*
X130800953Y-62944191D01*
X130859909Y-63046306D01*
X130859918Y-63046321D01*
X130927559Y-63142922D01*
X131003344Y-63233238D01*
X131003350Y-63233245D01*
X131003358Y-63233254D01*
X131086746Y-63316642D01*
X131086755Y-63316650D01*
X131086761Y-63316655D01*
X131177077Y-63392440D01*
X131177083Y-63392444D01*
X131177084Y-63392445D01*
X131273685Y-63460086D01*
X131290857Y-63470000D01*
X131312703Y-63482613D01*
X131342853Y-63507028D01*
X131363983Y-63539565D01*
X131374024Y-63577039D01*
X131371993Y-63615782D01*
X131358090Y-63652000D01*
X131333675Y-63682150D01*
X131312703Y-63697387D01*
X131273693Y-63719909D01*
X131273678Y-63719918D01*
X131177077Y-63787559D01*
X131086761Y-63863344D01*
X131086737Y-63863366D01*
X131003366Y-63946737D01*
X131003344Y-63946761D01*
X130927559Y-64037077D01*
X130859918Y-64133678D01*
X130859909Y-64133693D01*
X130800953Y-64235808D01*
X130800941Y-64235832D01*
X130751117Y-64342680D01*
X130710774Y-64453520D01*
X130680258Y-64567412D01*
X130680255Y-64567425D01*
X130659778Y-64683553D01*
X130649500Y-64801032D01*
X130649500Y-64918967D01*
X130659778Y-65036446D01*
X130680255Y-65152574D01*
X130680258Y-65152587D01*
X130710774Y-65266479D01*
X130710777Y-65266489D01*
X130710778Y-65266490D01*
X130746338Y-65364191D01*
X130751117Y-65377319D01*
X130800941Y-65484167D01*
X130800950Y-65484186D01*
X130800953Y-65484191D01*
X130859909Y-65586306D01*
X130859918Y-65586321D01*
X130927559Y-65682922D01*
X131003344Y-65773238D01*
X131003350Y-65773245D01*
X131003358Y-65773254D01*
X131086746Y-65856642D01*
X131086755Y-65856650D01*
X131086761Y-65856655D01*
X131177077Y-65932440D01*
X131177083Y-65932444D01*
X131177084Y-65932445D01*
X131273685Y-66000086D01*
X131290857Y-66010000D01*
X131312703Y-66022613D01*
X131342853Y-66047028D01*
X131363983Y-66079565D01*
X131374024Y-66117039D01*
X131371993Y-66155782D01*
X131358090Y-66192000D01*
X131333675Y-66222150D01*
X131312703Y-66237387D01*
X131273693Y-66259909D01*
X131273678Y-66259918D01*
X131177077Y-66327559D01*
X131086761Y-66403344D01*
X131086737Y-66403366D01*
X131003366Y-66486737D01*
X131003344Y-66486761D01*
X130927559Y-66577077D01*
X130859918Y-66673678D01*
X130859909Y-66673693D01*
X130800953Y-66775808D01*
X130800941Y-66775832D01*
X130751117Y-66882680D01*
X130710774Y-66993520D01*
X130680258Y-67107412D01*
X130680255Y-67107425D01*
X130659778Y-67223553D01*
X130649500Y-67341032D01*
X130649500Y-67458967D01*
X130659778Y-67576446D01*
X130680255Y-67692574D01*
X130680258Y-67692587D01*
X130710774Y-67806479D01*
X130710777Y-67806489D01*
X130710778Y-67806490D01*
X130746338Y-67904191D01*
X130751117Y-67917319D01*
X130800941Y-68024167D01*
X130800950Y-68024186D01*
X130800953Y-68024191D01*
X130859909Y-68126306D01*
X130859918Y-68126321D01*
X130927559Y-68222922D01*
X131003344Y-68313238D01*
X131003350Y-68313245D01*
X131003358Y-68313254D01*
X131086746Y-68396642D01*
X131086755Y-68396650D01*
X131086761Y-68396655D01*
X131177077Y-68472440D01*
X131177083Y-68472444D01*
X131177084Y-68472445D01*
X131273685Y-68540086D01*
X131311143Y-68561712D01*
X131312703Y-68562613D01*
X131342853Y-68587028D01*
X131363983Y-68619565D01*
X131374024Y-68657039D01*
X131371993Y-68695782D01*
X131358090Y-68732000D01*
X131333675Y-68762150D01*
X131312703Y-68777387D01*
X131273693Y-68799909D01*
X131273678Y-68799918D01*
X131177077Y-68867559D01*
X131086761Y-68943344D01*
X131086737Y-68943366D01*
X131003366Y-69026737D01*
X131003344Y-69026761D01*
X130927559Y-69117077D01*
X130859918Y-69213678D01*
X130859909Y-69213693D01*
X130800953Y-69315808D01*
X130800941Y-69315832D01*
X130751117Y-69422680D01*
X130710774Y-69533520D01*
X130680258Y-69647412D01*
X130680255Y-69647425D01*
X130659778Y-69763553D01*
X130649500Y-69881032D01*
X130649500Y-69998967D01*
X130659778Y-70116446D01*
X130680255Y-70232574D01*
X130680258Y-70232587D01*
X130710774Y-70346479D01*
X130751117Y-70457319D01*
X130800941Y-70564167D01*
X130800950Y-70564186D01*
X130800953Y-70564191D01*
X130859909Y-70666306D01*
X130859918Y-70666321D01*
X130927559Y-70762922D01*
X131003344Y-70853238D01*
X131003350Y-70853245D01*
X131003358Y-70853254D01*
X131086746Y-70936642D01*
X131086755Y-70936650D01*
X131086761Y-70936655D01*
X131177077Y-71012440D01*
X131177083Y-71012444D01*
X131177084Y-71012445D01*
X131273685Y-71080086D01*
X131311143Y-71101712D01*
X131312703Y-71102613D01*
X131342853Y-71127028D01*
X131363983Y-71159565D01*
X131374024Y-71197039D01*
X131371993Y-71235782D01*
X131358090Y-71272000D01*
X131333675Y-71302150D01*
X131312703Y-71317387D01*
X131273693Y-71339909D01*
X131273678Y-71339918D01*
X131177077Y-71407559D01*
X131086761Y-71483344D01*
X131086737Y-71483366D01*
X131003366Y-71566737D01*
X131003344Y-71566761D01*
X130927559Y-71657077D01*
X130859918Y-71753678D01*
X130859909Y-71753693D01*
X130800953Y-71855808D01*
X130800941Y-71855832D01*
X130751117Y-71962680D01*
X130710774Y-72073520D01*
X130680258Y-72187412D01*
X130680255Y-72187425D01*
X130659778Y-72303553D01*
X130649500Y-72421032D01*
X130649500Y-72538967D01*
X130659778Y-72656446D01*
X130680255Y-72772574D01*
X130680258Y-72772587D01*
X130710774Y-72886479D01*
X130710777Y-72886489D01*
X130710778Y-72886490D01*
X130742394Y-72973355D01*
X130751117Y-72997319D01*
X130775391Y-73049374D01*
X130800950Y-73104186D01*
X130800953Y-73104191D01*
X130859909Y-73206306D01*
X130859918Y-73206321D01*
X130927559Y-73302922D01*
X131003344Y-73393238D01*
X131003350Y-73393245D01*
X131003358Y-73393254D01*
X131086746Y-73476642D01*
X131086755Y-73476650D01*
X131086761Y-73476655D01*
X131177077Y-73552440D01*
X131177083Y-73552444D01*
X131177084Y-73552445D01*
X131273685Y-73620086D01*
X131290855Y-73629999D01*
X131312703Y-73642613D01*
X131342853Y-73667028D01*
X131363983Y-73699565D01*
X131374024Y-73737039D01*
X131371993Y-73775782D01*
X131358090Y-73812000D01*
X131333675Y-73842150D01*
X131312703Y-73857387D01*
X131273693Y-73879909D01*
X131273678Y-73879918D01*
X131177077Y-73947559D01*
X131086761Y-74023344D01*
X131086737Y-74023366D01*
X131003366Y-74106737D01*
X131003344Y-74106761D01*
X130927559Y-74197077D01*
X130859918Y-74293678D01*
X130859909Y-74293693D01*
X130800953Y-74395808D01*
X130800941Y-74395832D01*
X130751117Y-74502680D01*
X130710774Y-74613520D01*
X130680258Y-74727412D01*
X130680255Y-74727425D01*
X130659778Y-74843552D01*
X130657624Y-74868176D01*
X130648238Y-74905819D01*
X130627679Y-74938719D01*
X130597959Y-74963657D01*
X130561988Y-74978189D01*
X130523287Y-74980895D01*
X130485644Y-74971509D01*
X130452744Y-74950950D01*
X130446415Y-74945048D01*
X129503612Y-74002245D01*
X129503599Y-74002231D01*
X129484922Y-73983554D01*
X129440881Y-73939513D01*
X129374977Y-73886957D01*
X129303603Y-73842109D01*
X129227657Y-73805535D01*
X129148093Y-73777695D01*
X129148087Y-73777693D01*
X129065907Y-73758936D01*
X128982152Y-73749499D01*
X128982148Y-73749499D01*
X128897852Y-73749499D01*
X128894439Y-73749499D01*
X128894403Y-73749500D01*
X114464783Y-73749500D01*
X114426465Y-73743431D01*
X114391898Y-73725818D01*
X114364465Y-73698385D01*
X114346852Y-73663818D01*
X114340783Y-73625500D01*
X114346852Y-73587182D01*
X114364465Y-73552615D01*
X114377102Y-73537819D01*
X119742215Y-68172706D01*
X119742216Y-68172705D01*
X119804579Y-68096716D01*
X119859193Y-68014980D01*
X119905532Y-67928285D01*
X119943151Y-67837465D01*
X119971687Y-67743395D01*
X119990865Y-67646981D01*
X120000500Y-67549151D01*
X120000500Y-42765782D01*
X120006569Y-42727464D01*
X120024182Y-42692897D01*
X120036819Y-42678101D01*
X125170753Y-37544167D01*
X130508479Y-32206440D01*
X130539862Y-32183639D01*
X130576759Y-32171651D01*
X130615555Y-32171651D01*
X130652452Y-32183639D01*
G37*
%TD.AperFunction*%
%TA.AperFunction,Conductor*%
G36*
X139502442Y-27700596D02*
G01*
X139513155Y-27701016D01*
X139636333Y-27705856D01*
X139646009Y-27706617D01*
X139776671Y-27722083D01*
X139786255Y-27723600D01*
X139915330Y-27749274D01*
X139924765Y-27751540D01*
X140051390Y-27787252D01*
X140060647Y-27790259D01*
X140184068Y-27835791D01*
X140193060Y-27839516D01*
X140312540Y-27894597D01*
X140321215Y-27899018D01*
X140435987Y-27963294D01*
X140444288Y-27968381D01*
X140553662Y-28041462D01*
X140561540Y-28047185D01*
X140664857Y-28128634D01*
X140672260Y-28134957D01*
X140699253Y-28159909D01*
X140768868Y-28224260D01*
X140775746Y-28231138D01*
X140865042Y-28327739D01*
X140871365Y-28335142D01*
X140952814Y-28438459D01*
X140958537Y-28446337D01*
X141031618Y-28555711D01*
X141036705Y-28564012D01*
X141100981Y-28678784D01*
X141105402Y-28687459D01*
X141160483Y-28806939D01*
X141164209Y-28815935D01*
X141209739Y-28939350D01*
X141212747Y-28948609D01*
X141248459Y-29075234D01*
X141250729Y-29084687D01*
X141261520Y-29138935D01*
X141276395Y-29213719D01*
X141277917Y-29223334D01*
X141293380Y-29353974D01*
X141294144Y-29363681D01*
X141299404Y-29497556D01*
X141299500Y-29502424D01*
X141299500Y-80497575D01*
X141299404Y-80502442D01*
X141299404Y-80502443D01*
X141294144Y-80636318D01*
X141293380Y-80646025D01*
X141277917Y-80776665D01*
X141276394Y-80786280D01*
X141255575Y-80890955D01*
X141250733Y-80915296D01*
X141248459Y-80924765D01*
X141212747Y-81051390D01*
X141209739Y-81060649D01*
X141164209Y-81184064D01*
X141160483Y-81193060D01*
X141105402Y-81312540D01*
X141100981Y-81321215D01*
X141036705Y-81435987D01*
X141031618Y-81444288D01*
X140958537Y-81553662D01*
X140952814Y-81561540D01*
X140871365Y-81664857D01*
X140865042Y-81672260D01*
X140775746Y-81768861D01*
X140768861Y-81775746D01*
X140672260Y-81865042D01*
X140664857Y-81871365D01*
X140561540Y-81952814D01*
X140553662Y-81958537D01*
X140444288Y-82031618D01*
X140435987Y-82036705D01*
X140321215Y-82100981D01*
X140312540Y-82105402D01*
X140193060Y-82160483D01*
X140184064Y-82164209D01*
X140060649Y-82209739D01*
X140051390Y-82212747D01*
X139924765Y-82248459D01*
X139915306Y-82250730D01*
X139789504Y-82275753D01*
X139786280Y-82276395D01*
X139776665Y-82277917D01*
X139646025Y-82293380D01*
X139636318Y-82294144D01*
X139502443Y-82299404D01*
X139497575Y-82299500D01*
X83002425Y-82299500D01*
X82997557Y-82299404D01*
X82863681Y-82294144D01*
X82853974Y-82293380D01*
X82723334Y-82277917D01*
X82713723Y-82276395D01*
X82584687Y-82250729D01*
X82575234Y-82248459D01*
X82448609Y-82212747D01*
X82439350Y-82209739D01*
X82315935Y-82164209D01*
X82306939Y-82160483D01*
X82187459Y-82105402D01*
X82178784Y-82100981D01*
X82064012Y-82036705D01*
X82055711Y-82031618D01*
X81946337Y-81958537D01*
X81938459Y-81952814D01*
X81835142Y-81871365D01*
X81827739Y-81865042D01*
X81731138Y-81775746D01*
X81724260Y-81768868D01*
X81679605Y-81720560D01*
X81634957Y-81672260D01*
X81628634Y-81664857D01*
X81547185Y-81561540D01*
X81541462Y-81553662D01*
X81468381Y-81444288D01*
X81463294Y-81435987D01*
X81399018Y-81321215D01*
X81394597Y-81312540D01*
X81339516Y-81193060D01*
X81335790Y-81184064D01*
X81290260Y-81060649D01*
X81287252Y-81051390D01*
X81251540Y-80924765D01*
X81249274Y-80915330D01*
X81223600Y-80786255D01*
X81222082Y-80776665D01*
X81206617Y-80646009D01*
X81205856Y-80636333D01*
X81200596Y-80502442D01*
X81200500Y-80497575D01*
X81200500Y-78943217D01*
X83199500Y-78943217D01*
X83199500Y-79056782D01*
X83209064Y-79166102D01*
X83209398Y-79169911D01*
X83227606Y-79273181D01*
X83229116Y-79281742D01*
X83229117Y-79281749D01*
X83232932Y-79295985D01*
X83258509Y-79391440D01*
X83258510Y-79391442D01*
X83258510Y-79391443D01*
X83297355Y-79498167D01*
X83345334Y-79601058D01*
X83345343Y-79601076D01*
X83402124Y-79699424D01*
X83467261Y-79792448D01*
X83467265Y-79792453D01*
X83540259Y-79879445D01*
X83620554Y-79959740D01*
X83620558Y-79959743D01*
X83707552Y-80032739D01*
X83800576Y-80097876D01*
X83898924Y-80154657D01*
X83898938Y-80154663D01*
X83898941Y-80154665D01*
X84001832Y-80202644D01*
X84001837Y-80202645D01*
X84001846Y-80202650D01*
X84108560Y-80241491D01*
X84218252Y-80270883D01*
X84330089Y-80290602D01*
X84443217Y-80300499D01*
X84443218Y-80300500D01*
X84443219Y-80300500D01*
X84556782Y-80300500D01*
X84556782Y-80300499D01*
X84669911Y-80290602D01*
X84781748Y-80270883D01*
X84891440Y-80241491D01*
X84998154Y-80202650D01*
X85101076Y-80154657D01*
X85199424Y-80097876D01*
X85292448Y-80032739D01*
X85379442Y-79959743D01*
X85459743Y-79879442D01*
X85532739Y-79792448D01*
X85597876Y-79699424D01*
X85654657Y-79601076D01*
X85702650Y-79498154D01*
X85741491Y-79391440D01*
X85770883Y-79281748D01*
X85790602Y-79169911D01*
X85800500Y-79056781D01*
X85800500Y-78943219D01*
X85790602Y-78830089D01*
X85770883Y-78718252D01*
X85741491Y-78608560D01*
X85702650Y-78501846D01*
X85702645Y-78501837D01*
X85702644Y-78501832D01*
X85654665Y-78398941D01*
X85654653Y-78398917D01*
X85645415Y-78382916D01*
X85597876Y-78300576D01*
X85532739Y-78207552D01*
X85459743Y-78120558D01*
X85459740Y-78120554D01*
X85379445Y-78040259D01*
X85292453Y-77967265D01*
X85292451Y-77967264D01*
X85292448Y-77967261D01*
X85199424Y-77902124D01*
X85160084Y-77879411D01*
X85101082Y-77845346D01*
X85101058Y-77845334D01*
X84998167Y-77797355D01*
X84998156Y-77797351D01*
X84998154Y-77797350D01*
X84891440Y-77758509D01*
X84809093Y-77736444D01*
X84781749Y-77729117D01*
X84781742Y-77729116D01*
X84669923Y-77709400D01*
X84669916Y-77709399D01*
X84669911Y-77709398D01*
X84669909Y-77709397D01*
X84669904Y-77709397D01*
X84556782Y-77699500D01*
X84556781Y-77699500D01*
X84443219Y-77699500D01*
X84443218Y-77699500D01*
X84330095Y-77709397D01*
X84330076Y-77709400D01*
X84218257Y-77729116D01*
X84218250Y-77729117D01*
X84159466Y-77744868D01*
X84108560Y-77758509D01*
X84108557Y-77758510D01*
X84108556Y-77758510D01*
X84001832Y-77797355D01*
X83898941Y-77845334D01*
X83898917Y-77845346D01*
X83800579Y-77902122D01*
X83707546Y-77967265D01*
X83620554Y-78040259D01*
X83540259Y-78120554D01*
X83467265Y-78207546D01*
X83402122Y-78300579D01*
X83345346Y-78398917D01*
X83345334Y-78398941D01*
X83297355Y-78501832D01*
X83277406Y-78556642D01*
X83258509Y-78608560D01*
X83252109Y-78632445D01*
X83229117Y-78718250D01*
X83229116Y-78718257D01*
X83209400Y-78830076D01*
X83209397Y-78830095D01*
X83199500Y-78943217D01*
X81200500Y-78943217D01*
X81200500Y-73049369D01*
X85584499Y-73049369D01*
X85584499Y-73049373D01*
X85584499Y-73049374D01*
X85584499Y-73133670D01*
X85584499Y-73133677D01*
X85584500Y-73137526D01*
X85584500Y-74122880D01*
X85584499Y-74122918D01*
X85584499Y-74210626D01*
X85586739Y-74230499D01*
X85586739Y-74230504D01*
X85593936Y-74294377D01*
X85593938Y-74294394D01*
X85612693Y-74376565D01*
X85612695Y-74376571D01*
X85640535Y-74456135D01*
X85677109Y-74532081D01*
X85721957Y-74603455D01*
X85774513Y-74669359D01*
X85807594Y-74702440D01*
X85837230Y-74732076D01*
X85837245Y-74732090D01*
X91666031Y-80560876D01*
X91666035Y-80560881D01*
X91725641Y-80620487D01*
X91769845Y-80655738D01*
X91791545Y-80673043D01*
X91862919Y-80717891D01*
X91938865Y-80754465D01*
X92018429Y-80782305D01*
X92100610Y-80801062D01*
X92100613Y-80801062D01*
X92100616Y-80801063D01*
X92100615Y-80801063D01*
X92142492Y-80805781D01*
X92184370Y-80810499D01*
X92184371Y-80810500D01*
X92184374Y-80810500D01*
X92184375Y-80810500D01*
X107894403Y-80810500D01*
X107894439Y-80810501D01*
X107897852Y-80810501D01*
X107982152Y-80810501D01*
X108065907Y-80801063D01*
X108065910Y-80801062D01*
X108065912Y-80801062D01*
X108148093Y-80782305D01*
X108227657Y-80754465D01*
X108303603Y-80717891D01*
X108374977Y-80673043D01*
X108396677Y-80655738D01*
X108440881Y-80620487D01*
X108500487Y-80560881D01*
X108500490Y-80560876D01*
X110118149Y-78943217D01*
X136699500Y-78943217D01*
X136699500Y-79056782D01*
X136709064Y-79166102D01*
X136709398Y-79169911D01*
X136727606Y-79273181D01*
X136729116Y-79281742D01*
X136729117Y-79281749D01*
X136732932Y-79295985D01*
X136758509Y-79391440D01*
X136758510Y-79391442D01*
X136758510Y-79391443D01*
X136797355Y-79498167D01*
X136845334Y-79601058D01*
X136845343Y-79601076D01*
X136902124Y-79699424D01*
X136967261Y-79792448D01*
X136967265Y-79792453D01*
X137040259Y-79879445D01*
X137120554Y-79959740D01*
X137120558Y-79959743D01*
X137207552Y-80032739D01*
X137300576Y-80097876D01*
X137398924Y-80154657D01*
X137398938Y-80154663D01*
X137398941Y-80154665D01*
X137501832Y-80202644D01*
X137501837Y-80202645D01*
X137501846Y-80202650D01*
X137608560Y-80241491D01*
X137718252Y-80270883D01*
X137830089Y-80290602D01*
X137943217Y-80300499D01*
X137943218Y-80300500D01*
X137943219Y-80300500D01*
X138056782Y-80300500D01*
X138056782Y-80300499D01*
X138169911Y-80290602D01*
X138281748Y-80270883D01*
X138391440Y-80241491D01*
X138498154Y-80202650D01*
X138601076Y-80154657D01*
X138699424Y-80097876D01*
X138792448Y-80032739D01*
X138879442Y-79959743D01*
X138959743Y-79879442D01*
X139032739Y-79792448D01*
X139097876Y-79699424D01*
X139154657Y-79601076D01*
X139202650Y-79498154D01*
X139241491Y-79391440D01*
X139270883Y-79281748D01*
X139290602Y-79169911D01*
X139300500Y-79056781D01*
X139300500Y-78943219D01*
X139290602Y-78830089D01*
X139270883Y-78718252D01*
X139241491Y-78608560D01*
X139202650Y-78501846D01*
X139202645Y-78501837D01*
X139202644Y-78501832D01*
X139154665Y-78398941D01*
X139154653Y-78398917D01*
X139145415Y-78382916D01*
X139097876Y-78300576D01*
X139032739Y-78207552D01*
X138959743Y-78120558D01*
X138959740Y-78120554D01*
X138879445Y-78040259D01*
X138792453Y-77967265D01*
X138792451Y-77967264D01*
X138792448Y-77967261D01*
X138699424Y-77902124D01*
X138660084Y-77879411D01*
X138601082Y-77845346D01*
X138601058Y-77845334D01*
X138498167Y-77797355D01*
X138498156Y-77797351D01*
X138498154Y-77797350D01*
X138391440Y-77758509D01*
X138309093Y-77736444D01*
X138281749Y-77729117D01*
X138281742Y-77729116D01*
X138169923Y-77709400D01*
X138169916Y-77709399D01*
X138169911Y-77709398D01*
X138169909Y-77709397D01*
X138169904Y-77709397D01*
X138056782Y-77699500D01*
X138056781Y-77699500D01*
X137943219Y-77699500D01*
X137943218Y-77699500D01*
X137830095Y-77709397D01*
X137830076Y-77709400D01*
X137718257Y-77729116D01*
X137718250Y-77729117D01*
X137659466Y-77744868D01*
X137608560Y-77758509D01*
X137608557Y-77758510D01*
X137608556Y-77758510D01*
X137501832Y-77797355D01*
X137398941Y-77845334D01*
X137398917Y-77845346D01*
X137300579Y-77902122D01*
X137207546Y-77967265D01*
X137120554Y-78040259D01*
X137040259Y-78120554D01*
X136967265Y-78207546D01*
X136902122Y-78300579D01*
X136845346Y-78398917D01*
X136845334Y-78398941D01*
X136797355Y-78501832D01*
X136777406Y-78556642D01*
X136758509Y-78608560D01*
X136752109Y-78632445D01*
X136729117Y-78718250D01*
X136729116Y-78718257D01*
X136709400Y-78830076D01*
X136709397Y-78830095D01*
X136699500Y-78943217D01*
X110118149Y-78943217D01*
X113774548Y-75286819D01*
X113805934Y-75264015D01*
X113842831Y-75252027D01*
X113862229Y-75250500D01*
X128577771Y-75250500D01*
X128616089Y-75256569D01*
X128650656Y-75274182D01*
X128665452Y-75286819D01*
X130629484Y-77250851D01*
X130652288Y-77282237D01*
X130664276Y-77319134D01*
X130664276Y-77357930D01*
X130663920Y-77360060D01*
X130659778Y-77383553D01*
X130649500Y-77501032D01*
X130649500Y-77618967D01*
X130659778Y-77736446D01*
X130680255Y-77852574D01*
X130680258Y-77852587D01*
X130710774Y-77966479D01*
X130710777Y-77966489D01*
X130710778Y-77966490D01*
X130741699Y-78051445D01*
X130751117Y-78077319D01*
X130771278Y-78120554D01*
X130800950Y-78184186D01*
X130800953Y-78184191D01*
X130859909Y-78286306D01*
X130859918Y-78286321D01*
X130927559Y-78382922D01*
X131003344Y-78473238D01*
X131003350Y-78473245D01*
X131003358Y-78473254D01*
X131086746Y-78556642D01*
X131086755Y-78556650D01*
X131086761Y-78556655D01*
X131177077Y-78632440D01*
X131177083Y-78632444D01*
X131177084Y-78632445D01*
X131273685Y-78700086D01*
X131375814Y-78759050D01*
X131421441Y-78780325D01*
X131482680Y-78808882D01*
X131482685Y-78808883D01*
X131482694Y-78808888D01*
X131593510Y-78849222D01*
X131593516Y-78849223D01*
X131593520Y-78849225D01*
X131624536Y-78857535D01*
X131707420Y-78879744D01*
X131823556Y-78900222D01*
X131941034Y-78910499D01*
X131941035Y-78910500D01*
X131941036Y-78910500D01*
X132058965Y-78910500D01*
X132058965Y-78910499D01*
X132176444Y-78900222D01*
X132292580Y-78879744D01*
X132406490Y-78849222D01*
X132517306Y-78808888D01*
X132624186Y-78759050D01*
X132726315Y-78700086D01*
X132822916Y-78632445D01*
X132913254Y-78556642D01*
X132996642Y-78473254D01*
X133072445Y-78382916D01*
X133140086Y-78286315D01*
X133199050Y-78184186D01*
X133248888Y-78077306D01*
X133289222Y-77966490D01*
X133319744Y-77852580D01*
X133340222Y-77736444D01*
X133350500Y-77618964D01*
X133350500Y-77501036D01*
X133340222Y-77383556D01*
X133319744Y-77267420D01*
X133289222Y-77153510D01*
X133248888Y-77042694D01*
X133248883Y-77042685D01*
X133248882Y-77042680D01*
X133199155Y-76936039D01*
X133199050Y-76935814D01*
X133140086Y-76833685D01*
X133072445Y-76737084D01*
X133072444Y-76737083D01*
X133072440Y-76737077D01*
X132996655Y-76646761D01*
X132996650Y-76646755D01*
X132996642Y-76646746D01*
X132913254Y-76563358D01*
X132913245Y-76563350D01*
X132913238Y-76563344D01*
X132822922Y-76487559D01*
X132726321Y-76419918D01*
X132726319Y-76419917D01*
X132726315Y-76419914D01*
X132687292Y-76397384D01*
X132657147Y-76372973D01*
X132636017Y-76340436D01*
X132625975Y-76302962D01*
X132628006Y-76264220D01*
X132641908Y-76228001D01*
X132666323Y-76197851D01*
X132687290Y-76182616D01*
X132726315Y-76160086D01*
X132822916Y-76092445D01*
X132913254Y-76016642D01*
X132996642Y-75933254D01*
X133072445Y-75842916D01*
X133140086Y-75746315D01*
X133199050Y-75644186D01*
X133248888Y-75537306D01*
X133289222Y-75426490D01*
X133319744Y-75312580D01*
X133340222Y-75196444D01*
X133350500Y-75078964D01*
X133350500Y-74961036D01*
X133340222Y-74843556D01*
X133319744Y-74727420D01*
X133289222Y-74613510D01*
X133248888Y-74502694D01*
X133248883Y-74502685D01*
X133248882Y-74502680D01*
X133199058Y-74395832D01*
X133199050Y-74395814D01*
X133140086Y-74293685D01*
X133072445Y-74197084D01*
X133072444Y-74197083D01*
X133072440Y-74197077D01*
X132996655Y-74106761D01*
X132996650Y-74106755D01*
X132996642Y-74106746D01*
X132913254Y-74023358D01*
X132913245Y-74023350D01*
X132913238Y-74023344D01*
X132822922Y-73947559D01*
X132726321Y-73879918D01*
X132726319Y-73879917D01*
X132726315Y-73879914D01*
X132687292Y-73857384D01*
X132657147Y-73832973D01*
X132636017Y-73800436D01*
X132625975Y-73762962D01*
X132628006Y-73724220D01*
X132641908Y-73688001D01*
X132666323Y-73657851D01*
X132687290Y-73642616D01*
X132726315Y-73620086D01*
X132822916Y-73552445D01*
X132913254Y-73476642D01*
X132996642Y-73393254D01*
X133072445Y-73302916D01*
X133140086Y-73206315D01*
X133199050Y-73104186D01*
X133248888Y-72997306D01*
X133289222Y-72886490D01*
X133319744Y-72772580D01*
X133340222Y-72656444D01*
X133350500Y-72538964D01*
X133350500Y-72421036D01*
X133340222Y-72303556D01*
X133319744Y-72187420D01*
X133289222Y-72073510D01*
X133248888Y-71962694D01*
X133248883Y-71962685D01*
X133248882Y-71962680D01*
X133199058Y-71855832D01*
X133199050Y-71855814D01*
X133140086Y-71753685D01*
X133072445Y-71657084D01*
X133072444Y-71657083D01*
X133072440Y-71657077D01*
X132996655Y-71566761D01*
X132996650Y-71566755D01*
X132996642Y-71566746D01*
X132913254Y-71483358D01*
X132913245Y-71483350D01*
X132913238Y-71483344D01*
X132822922Y-71407559D01*
X132726321Y-71339918D01*
X132726319Y-71339917D01*
X132726315Y-71339914D01*
X132687292Y-71317384D01*
X132657147Y-71292973D01*
X132636017Y-71260436D01*
X132625975Y-71222962D01*
X132628006Y-71184220D01*
X132641908Y-71148001D01*
X132666323Y-71117851D01*
X132687290Y-71102616D01*
X132726315Y-71080086D01*
X132822916Y-71012445D01*
X132913254Y-70936642D01*
X132996642Y-70853254D01*
X133072445Y-70762916D01*
X133140086Y-70666315D01*
X133199050Y-70564186D01*
X133248888Y-70457306D01*
X133289222Y-70346490D01*
X133319744Y-70232580D01*
X133340222Y-70116444D01*
X133350500Y-69998964D01*
X133350500Y-69881036D01*
X133340222Y-69763556D01*
X133319744Y-69647420D01*
X133289222Y-69533510D01*
X133248888Y-69422694D01*
X133248883Y-69422685D01*
X133248882Y-69422680D01*
X133199058Y-69315832D01*
X133199050Y-69315814D01*
X133140086Y-69213685D01*
X133072445Y-69117084D01*
X133072444Y-69117083D01*
X133072440Y-69117077D01*
X132996655Y-69026761D01*
X132996650Y-69026755D01*
X132996642Y-69026746D01*
X132913254Y-68943358D01*
X132913245Y-68943350D01*
X132913238Y-68943344D01*
X132822922Y-68867559D01*
X132726321Y-68799918D01*
X132726319Y-68799917D01*
X132726315Y-68799914D01*
X132687292Y-68777384D01*
X132657147Y-68752973D01*
X132636017Y-68720436D01*
X132625975Y-68682962D01*
X132628006Y-68644220D01*
X132641908Y-68608001D01*
X132666323Y-68577851D01*
X132687290Y-68562616D01*
X132726315Y-68540086D01*
X132822916Y-68472445D01*
X132913254Y-68396642D01*
X132996642Y-68313254D01*
X133072445Y-68222916D01*
X133140086Y-68126315D01*
X133199050Y-68024186D01*
X133248888Y-67917306D01*
X133289222Y-67806490D01*
X133319744Y-67692580D01*
X133340222Y-67576444D01*
X133350500Y-67458964D01*
X133350500Y-67341036D01*
X133340222Y-67223556D01*
X133319744Y-67107420D01*
X133289222Y-66993510D01*
X133248888Y-66882694D01*
X133248883Y-66882685D01*
X133248882Y-66882680D01*
X133199058Y-66775832D01*
X133199050Y-66775814D01*
X133140086Y-66673685D01*
X133072445Y-66577084D01*
X133072444Y-66577083D01*
X133072440Y-66577077D01*
X132996655Y-66486761D01*
X132996650Y-66486755D01*
X132996642Y-66486746D01*
X132913254Y-66403358D01*
X132913245Y-66403350D01*
X132913238Y-66403344D01*
X132822922Y-66327559D01*
X132726321Y-66259918D01*
X132726319Y-66259917D01*
X132726315Y-66259914D01*
X132687292Y-66237384D01*
X132657147Y-66212973D01*
X132636017Y-66180436D01*
X132625975Y-66142962D01*
X132628006Y-66104220D01*
X132641908Y-66068001D01*
X132666323Y-66037851D01*
X132687290Y-66022616D01*
X132726315Y-66000086D01*
X132822916Y-65932445D01*
X132913254Y-65856642D01*
X132996642Y-65773254D01*
X133072445Y-65682916D01*
X133140086Y-65586315D01*
X133199050Y-65484186D01*
X133248888Y-65377306D01*
X133289222Y-65266490D01*
X133319744Y-65152580D01*
X133340222Y-65036444D01*
X133350500Y-64918964D01*
X133350500Y-64801036D01*
X133340222Y-64683556D01*
X133319744Y-64567420D01*
X133289222Y-64453510D01*
X133248888Y-64342694D01*
X133248883Y-64342685D01*
X133248882Y-64342680D01*
X133199058Y-64235832D01*
X133199050Y-64235814D01*
X133140086Y-64133685D01*
X133072445Y-64037084D01*
X133072444Y-64037083D01*
X133072440Y-64037077D01*
X132996655Y-63946761D01*
X132996650Y-63946755D01*
X132996642Y-63946746D01*
X132913254Y-63863358D01*
X132913245Y-63863350D01*
X132913238Y-63863344D01*
X132822922Y-63787559D01*
X132726321Y-63719918D01*
X132726316Y-63719915D01*
X132726315Y-63719914D01*
X132687292Y-63697384D01*
X132657147Y-63672973D01*
X132636017Y-63640436D01*
X132625975Y-63602962D01*
X132628006Y-63564220D01*
X132641908Y-63528001D01*
X132666323Y-63497851D01*
X132687290Y-63482616D01*
X132726315Y-63460086D01*
X132822916Y-63392445D01*
X132913254Y-63316642D01*
X132996642Y-63233254D01*
X133072445Y-63142916D01*
X133140086Y-63046315D01*
X133199050Y-62944186D01*
X133248888Y-62837306D01*
X133289222Y-62726490D01*
X133319744Y-62612580D01*
X133340222Y-62496444D01*
X133350500Y-62378964D01*
X133350500Y-62261036D01*
X133340222Y-62143556D01*
X133319744Y-62027420D01*
X133289222Y-61913510D01*
X133248888Y-61802694D01*
X133248883Y-61802685D01*
X133248882Y-61802680D01*
X133199155Y-61696039D01*
X133199050Y-61695814D01*
X133140086Y-61593685D01*
X133072445Y-61497084D01*
X133072444Y-61497083D01*
X133072440Y-61497077D01*
X132996655Y-61406761D01*
X132996650Y-61406755D01*
X132996642Y-61406746D01*
X132913254Y-61323358D01*
X132913245Y-61323350D01*
X132913238Y-61323344D01*
X132822922Y-61247559D01*
X132726321Y-61179918D01*
X132726319Y-61179917D01*
X132726315Y-61179914D01*
X132687292Y-61157384D01*
X132657147Y-61132973D01*
X132636017Y-61100436D01*
X132625975Y-61062962D01*
X132628006Y-61024220D01*
X132641908Y-60988001D01*
X132666323Y-60957851D01*
X132687290Y-60942616D01*
X132726315Y-60920086D01*
X132822916Y-60852445D01*
X132913254Y-60776642D01*
X132996642Y-60693254D01*
X133072445Y-60602916D01*
X133140086Y-60506315D01*
X133199050Y-60404186D01*
X133248888Y-60297306D01*
X133289222Y-60186490D01*
X133319744Y-60072580D01*
X133340222Y-59956444D01*
X133350500Y-59838964D01*
X133350500Y-59721036D01*
X133340222Y-59603556D01*
X133319744Y-59487420D01*
X133289222Y-59373510D01*
X133248888Y-59262694D01*
X133248883Y-59262685D01*
X133248882Y-59262680D01*
X133199058Y-59155832D01*
X133199050Y-59155814D01*
X133140086Y-59053685D01*
X133072445Y-58957084D01*
X133072444Y-58957083D01*
X133072440Y-58957077D01*
X132996655Y-58866761D01*
X132996650Y-58866755D01*
X132996642Y-58866746D01*
X132913254Y-58783358D01*
X132913245Y-58783350D01*
X132913238Y-58783344D01*
X132822922Y-58707559D01*
X132726321Y-58639918D01*
X132726319Y-58639917D01*
X132726315Y-58639914D01*
X132687292Y-58617384D01*
X132657147Y-58592973D01*
X132636017Y-58560436D01*
X132625975Y-58522962D01*
X132628006Y-58484220D01*
X132641908Y-58448001D01*
X132666323Y-58417851D01*
X132687290Y-58402616D01*
X132726315Y-58380086D01*
X132822916Y-58312445D01*
X132913254Y-58236642D01*
X132996642Y-58153254D01*
X133072445Y-58062916D01*
X133140086Y-57966315D01*
X133199050Y-57864186D01*
X133248888Y-57757306D01*
X133289222Y-57646490D01*
X133319744Y-57532580D01*
X133340222Y-57416444D01*
X133350500Y-57298964D01*
X133350500Y-57181036D01*
X133340222Y-57063556D01*
X133319744Y-56947420D01*
X133289222Y-56833510D01*
X133248888Y-56722694D01*
X133248883Y-56722685D01*
X133248882Y-56722680D01*
X133220325Y-56661441D01*
X133199050Y-56615814D01*
X133140086Y-56513685D01*
X133072445Y-56417084D01*
X133072444Y-56417083D01*
X133072440Y-56417077D01*
X132996655Y-56326761D01*
X132996650Y-56326755D01*
X132996642Y-56326746D01*
X132913254Y-56243358D01*
X132913245Y-56243350D01*
X132913238Y-56243344D01*
X132822922Y-56167559D01*
X132726321Y-56099918D01*
X132726319Y-56099917D01*
X132726315Y-56099914D01*
X132687292Y-56077384D01*
X132657147Y-56052973D01*
X132636017Y-56020436D01*
X132625975Y-55982962D01*
X132628006Y-55944220D01*
X132641908Y-55908001D01*
X132666323Y-55877851D01*
X132687290Y-55862616D01*
X132726315Y-55840086D01*
X132822916Y-55772445D01*
X132913254Y-55696642D01*
X132996642Y-55613254D01*
X133072445Y-55522916D01*
X133140086Y-55426315D01*
X133199050Y-55324186D01*
X133248888Y-55217306D01*
X133289222Y-55106490D01*
X133319744Y-54992580D01*
X133340222Y-54876444D01*
X133350500Y-54758964D01*
X133350500Y-54641036D01*
X133340222Y-54523556D01*
X133319744Y-54407420D01*
X133289222Y-54293510D01*
X133248888Y-54182694D01*
X133248883Y-54182685D01*
X133248882Y-54182680D01*
X133220325Y-54121441D01*
X133199050Y-54075814D01*
X133140086Y-53973685D01*
X133072445Y-53877084D01*
X133072444Y-53877083D01*
X133072440Y-53877077D01*
X132996655Y-53786761D01*
X132996650Y-53786755D01*
X132996642Y-53786746D01*
X132913254Y-53703358D01*
X132913245Y-53703350D01*
X132913238Y-53703344D01*
X132822922Y-53627559D01*
X132726321Y-53559918D01*
X132726319Y-53559917D01*
X132726315Y-53559914D01*
X132687292Y-53537384D01*
X132657147Y-53512973D01*
X132636017Y-53480436D01*
X132625975Y-53442962D01*
X132628006Y-53404220D01*
X132641908Y-53368001D01*
X132666323Y-53337851D01*
X132687290Y-53322616D01*
X132726315Y-53300086D01*
X132822916Y-53232445D01*
X132913254Y-53156642D01*
X132996642Y-53073254D01*
X133072445Y-52982916D01*
X133140086Y-52886315D01*
X133199050Y-52784186D01*
X133248888Y-52677306D01*
X133289222Y-52566490D01*
X133319744Y-52452580D01*
X133340222Y-52336444D01*
X133350500Y-52218964D01*
X133350500Y-52101036D01*
X133340222Y-51983556D01*
X133319744Y-51867420D01*
X133289222Y-51753510D01*
X133248888Y-51642694D01*
X133248883Y-51642685D01*
X133248882Y-51642680D01*
X133199155Y-51536039D01*
X133199050Y-51535814D01*
X133140086Y-51433685D01*
X133072445Y-51337084D01*
X133072444Y-51337083D01*
X133072440Y-51337077D01*
X132996655Y-51246761D01*
X132996650Y-51246755D01*
X132996642Y-51246746D01*
X132913254Y-51163358D01*
X132913245Y-51163350D01*
X132913238Y-51163344D01*
X132822922Y-51087559D01*
X132726321Y-51019918D01*
X132726319Y-51019917D01*
X132726315Y-51019914D01*
X132687292Y-50997384D01*
X132657147Y-50972973D01*
X132636017Y-50940436D01*
X132625975Y-50902962D01*
X132628006Y-50864220D01*
X132641908Y-50828001D01*
X132666323Y-50797851D01*
X132687290Y-50782616D01*
X132726315Y-50760086D01*
X132822916Y-50692445D01*
X132913254Y-50616642D01*
X132996642Y-50533254D01*
X133072445Y-50442916D01*
X133140086Y-50346315D01*
X133199050Y-50244186D01*
X133248888Y-50137306D01*
X133289222Y-50026490D01*
X133319744Y-49912580D01*
X133340222Y-49796444D01*
X133350500Y-49678964D01*
X133350500Y-49561036D01*
X133340222Y-49443556D01*
X133319744Y-49327420D01*
X133291395Y-49221619D01*
X133289225Y-49213520D01*
X133289223Y-49213516D01*
X133289222Y-49213510D01*
X133248888Y-49102694D01*
X133248883Y-49102685D01*
X133248882Y-49102680D01*
X133199155Y-48996039D01*
X133199050Y-48995814D01*
X133140086Y-48893685D01*
X133072445Y-48797084D01*
X133072444Y-48797083D01*
X133072440Y-48797077D01*
X132996655Y-48706761D01*
X132996650Y-48706755D01*
X132996642Y-48706746D01*
X132913254Y-48623358D01*
X132913245Y-48623350D01*
X132913238Y-48623344D01*
X132822922Y-48547559D01*
X132726321Y-48479918D01*
X132726319Y-48479917D01*
X132726315Y-48479914D01*
X132687292Y-48457384D01*
X132657147Y-48432973D01*
X132636017Y-48400436D01*
X132625975Y-48362962D01*
X132628006Y-48324220D01*
X132641908Y-48288001D01*
X132666323Y-48257851D01*
X132687290Y-48242616D01*
X132726315Y-48220086D01*
X132822916Y-48152445D01*
X132913254Y-48076642D01*
X132996642Y-47993254D01*
X133072445Y-47902916D01*
X133140086Y-47806315D01*
X133199050Y-47704186D01*
X133248888Y-47597306D01*
X133289222Y-47486490D01*
X133319744Y-47372580D01*
X133340222Y-47256444D01*
X133350500Y-47138964D01*
X133350500Y-47021036D01*
X133340222Y-46903556D01*
X133319744Y-46787420D01*
X133289222Y-46673510D01*
X133248888Y-46562694D01*
X133248883Y-46562685D01*
X133248882Y-46562680D01*
X133199058Y-46455832D01*
X133199050Y-46455814D01*
X133140086Y-46353685D01*
X133072445Y-46257084D01*
X133072444Y-46257083D01*
X133072440Y-46257077D01*
X132996655Y-46166761D01*
X132996650Y-46166755D01*
X132996642Y-46166746D01*
X132913254Y-46083358D01*
X132913245Y-46083350D01*
X132913238Y-46083344D01*
X132822922Y-46007559D01*
X132726321Y-45939918D01*
X132726319Y-45939917D01*
X132726315Y-45939914D01*
X132686792Y-45917095D01*
X132656644Y-45892682D01*
X132635515Y-45860145D01*
X132625474Y-45822671D01*
X132627505Y-45783928D01*
X132641408Y-45747709D01*
X132665823Y-45717559D01*
X132686796Y-45702322D01*
X132726047Y-45679660D01*
X132761371Y-45654925D01*
X132129409Y-45022963D01*
X132161065Y-45014481D01*
X132221619Y-44989399D01*
X132278381Y-44956627D01*
X132330380Y-44916727D01*
X132376727Y-44870380D01*
X132416627Y-44818381D01*
X132449399Y-44761619D01*
X132474481Y-44701065D01*
X132482963Y-44669409D01*
X133114925Y-45301371D01*
X133139663Y-45266043D01*
X133198601Y-45163960D01*
X133198609Y-45163944D01*
X133248417Y-45057132D01*
X133248420Y-45057124D01*
X133288742Y-44946343D01*
X133288742Y-44946341D01*
X133319254Y-44832473D01*
X133319255Y-44832466D01*
X133339725Y-44716380D01*
X133349999Y-44598945D01*
X133350000Y-44598943D01*
X133350000Y-44481057D01*
X133349999Y-44481054D01*
X133339725Y-44363619D01*
X133319255Y-44247533D01*
X133319254Y-44247526D01*
X133288742Y-44133658D01*
X133288742Y-44133656D01*
X133248420Y-44022875D01*
X133248417Y-44022867D01*
X133198609Y-43916055D01*
X133198601Y-43916039D01*
X133139667Y-43813963D01*
X133139658Y-43813948D01*
X133114925Y-43778626D01*
X132482962Y-44410589D01*
X132474481Y-44378935D01*
X132449399Y-44318381D01*
X132416627Y-44261619D01*
X132376727Y-44209620D01*
X132330380Y-44163273D01*
X132278381Y-44123373D01*
X132221619Y-44090601D01*
X132161065Y-44065519D01*
X132129409Y-44057037D01*
X132761372Y-43425074D01*
X132761371Y-43425072D01*
X132726062Y-43400348D01*
X132726046Y-43400338D01*
X132686794Y-43377676D01*
X132656645Y-43353261D01*
X132635515Y-43320724D01*
X132625474Y-43283250D01*
X132627505Y-43244507D01*
X132641408Y-43208288D01*
X132665823Y-43178139D01*
X132686787Y-43162906D01*
X132726315Y-43140086D01*
X132822916Y-43072445D01*
X132913254Y-42996642D01*
X132996642Y-42913254D01*
X133072445Y-42822916D01*
X133140086Y-42726315D01*
X133199050Y-42624186D01*
X133248888Y-42517306D01*
X133289222Y-42406490D01*
X133319744Y-42292580D01*
X133340222Y-42176444D01*
X133350500Y-42058964D01*
X133350500Y-41941036D01*
X133340222Y-41823556D01*
X133319744Y-41707420D01*
X133297535Y-41624536D01*
X133289225Y-41593520D01*
X133289223Y-41593516D01*
X133289222Y-41593510D01*
X133248888Y-41482694D01*
X133248883Y-41482685D01*
X133248882Y-41482680D01*
X133199058Y-41375832D01*
X133199050Y-41375814D01*
X133140086Y-41273685D01*
X133072445Y-41177084D01*
X133072444Y-41177083D01*
X133072440Y-41177077D01*
X132996655Y-41086761D01*
X132996650Y-41086755D01*
X132996642Y-41086746D01*
X132913254Y-41003358D01*
X132913245Y-41003350D01*
X132913238Y-41003344D01*
X132822922Y-40927559D01*
X132726321Y-40859918D01*
X132726319Y-40859917D01*
X132726315Y-40859914D01*
X132687292Y-40837384D01*
X132657147Y-40812973D01*
X132636017Y-40780436D01*
X132625975Y-40742962D01*
X132628006Y-40704220D01*
X132641908Y-40668001D01*
X132666323Y-40637851D01*
X132687290Y-40622616D01*
X132726315Y-40600086D01*
X132822916Y-40532445D01*
X132913254Y-40456642D01*
X132996642Y-40373254D01*
X133072445Y-40282916D01*
X133140086Y-40186315D01*
X133199050Y-40084186D01*
X133248888Y-39977306D01*
X133289222Y-39866490D01*
X133319744Y-39752580D01*
X133340222Y-39636444D01*
X133350500Y-39518964D01*
X133350500Y-39401036D01*
X133340222Y-39283556D01*
X133319744Y-39167420D01*
X133289222Y-39053510D01*
X133248888Y-38942694D01*
X133248883Y-38942685D01*
X133248882Y-38942680D01*
X133199058Y-38835832D01*
X133199050Y-38835814D01*
X133140086Y-38733685D01*
X133072445Y-38637084D01*
X133072444Y-38637083D01*
X133072440Y-38637077D01*
X132996655Y-38546761D01*
X132996650Y-38546755D01*
X132996642Y-38546746D01*
X132913254Y-38463358D01*
X132913245Y-38463350D01*
X132913238Y-38463344D01*
X132822922Y-38387559D01*
X132726321Y-38319918D01*
X132726319Y-38319917D01*
X132726315Y-38319914D01*
X132687292Y-38297384D01*
X132657147Y-38272973D01*
X132636017Y-38240436D01*
X132625975Y-38202962D01*
X132628006Y-38164220D01*
X132641908Y-38128001D01*
X132666323Y-38097851D01*
X132687290Y-38082616D01*
X132726315Y-38060086D01*
X132822916Y-37992445D01*
X132913254Y-37916642D01*
X132996642Y-37833254D01*
X133072445Y-37742916D01*
X133140086Y-37646315D01*
X133199050Y-37544186D01*
X133248888Y-37437306D01*
X133289222Y-37326490D01*
X133319744Y-37212580D01*
X133340222Y-37096444D01*
X133350500Y-36978964D01*
X133350500Y-36861036D01*
X133340222Y-36743556D01*
X133319744Y-36627420D01*
X133289222Y-36513510D01*
X133248888Y-36402694D01*
X133248883Y-36402685D01*
X133248882Y-36402680D01*
X133220325Y-36341441D01*
X133199050Y-36295814D01*
X133140086Y-36193685D01*
X133072445Y-36097084D01*
X133072444Y-36097083D01*
X133072440Y-36097077D01*
X132996655Y-36006761D01*
X132996650Y-36006755D01*
X132996642Y-36006746D01*
X132913254Y-35923358D01*
X132913245Y-35923350D01*
X132913238Y-35923344D01*
X132822922Y-35847559D01*
X132726321Y-35779918D01*
X132726319Y-35779917D01*
X132726315Y-35779914D01*
X132687292Y-35757384D01*
X132657147Y-35732973D01*
X132636017Y-35700436D01*
X132625975Y-35662962D01*
X132628006Y-35624220D01*
X132641908Y-35588001D01*
X132666323Y-35557851D01*
X132687290Y-35542616D01*
X132726315Y-35520086D01*
X132822916Y-35452445D01*
X132913254Y-35376642D01*
X132996642Y-35293254D01*
X133072445Y-35202916D01*
X133140086Y-35106315D01*
X133199050Y-35004186D01*
X133248888Y-34897306D01*
X133289222Y-34786490D01*
X133319744Y-34672580D01*
X133340222Y-34556444D01*
X133350500Y-34438964D01*
X133350500Y-34321036D01*
X133340222Y-34203556D01*
X133319744Y-34087420D01*
X133289222Y-33973510D01*
X133248888Y-33862694D01*
X133248883Y-33862685D01*
X133248882Y-33862680D01*
X133199058Y-33755832D01*
X133199050Y-33755814D01*
X133140086Y-33653685D01*
X133072445Y-33557084D01*
X133072444Y-33557083D01*
X133072440Y-33557077D01*
X132996655Y-33466761D01*
X132996650Y-33466755D01*
X132996642Y-33466746D01*
X132913254Y-33383358D01*
X132913245Y-33383350D01*
X132913238Y-33383344D01*
X132822922Y-33307559D01*
X132726321Y-33239918D01*
X132726319Y-33239917D01*
X132726315Y-33239914D01*
X132687292Y-33217384D01*
X132657147Y-33192973D01*
X132636017Y-33160436D01*
X132625975Y-33122962D01*
X132628006Y-33084220D01*
X132641908Y-33048001D01*
X132666323Y-33017851D01*
X132687290Y-33002616D01*
X132726315Y-32980086D01*
X132822916Y-32912445D01*
X132913254Y-32836642D01*
X132996642Y-32753254D01*
X133072445Y-32662916D01*
X133140086Y-32566315D01*
X133199050Y-32464186D01*
X133248888Y-32357306D01*
X133289222Y-32246490D01*
X133319744Y-32132580D01*
X133340222Y-32016444D01*
X133350500Y-31898964D01*
X133350500Y-31781036D01*
X133340222Y-31663556D01*
X133319744Y-31547420D01*
X133291824Y-31443219D01*
X133291823Y-31443217D01*
X136199500Y-31443217D01*
X136199500Y-31556782D01*
X136208841Y-31663553D01*
X136209398Y-31669911D01*
X136229117Y-31781748D01*
X136258509Y-31891440D01*
X136258510Y-31891442D01*
X136258510Y-31891443D01*
X136297355Y-31998167D01*
X136345334Y-32101058D01*
X136345343Y-32101076D01*
X136402124Y-32199424D01*
X136467261Y-32292448D01*
X136467265Y-32292453D01*
X136540259Y-32379445D01*
X136620554Y-32459740D01*
X136620558Y-32459743D01*
X136707552Y-32532739D01*
X136800576Y-32597876D01*
X136898924Y-32654657D01*
X136898938Y-32654663D01*
X136898941Y-32654665D01*
X137001832Y-32702644D01*
X137001837Y-32702645D01*
X137001846Y-32702650D01*
X137108560Y-32741491D01*
X137218252Y-32770883D01*
X137330089Y-32790602D01*
X137443217Y-32800499D01*
X137443218Y-32800500D01*
X137443219Y-32800500D01*
X137556782Y-32800500D01*
X137556782Y-32800499D01*
X137669911Y-32790602D01*
X137781748Y-32770883D01*
X137891440Y-32741491D01*
X137998154Y-32702650D01*
X138101076Y-32654657D01*
X138199424Y-32597876D01*
X138292448Y-32532739D01*
X138379442Y-32459743D01*
X138459743Y-32379442D01*
X138532739Y-32292448D01*
X138597876Y-32199424D01*
X138654657Y-32101076D01*
X138702650Y-31998154D01*
X138741491Y-31891440D01*
X138770883Y-31781748D01*
X138790602Y-31669911D01*
X138800500Y-31556781D01*
X138800500Y-31443219D01*
X138790602Y-31330089D01*
X138770883Y-31218252D01*
X138741491Y-31108560D01*
X138702650Y-31001846D01*
X138702645Y-31001837D01*
X138702644Y-31001832D01*
X138654665Y-30898941D01*
X138654653Y-30898917D01*
X138632799Y-30861065D01*
X138597876Y-30800576D01*
X138532739Y-30707552D01*
X138507429Y-30677388D01*
X138459740Y-30620554D01*
X138379445Y-30540259D01*
X138292453Y-30467265D01*
X138292451Y-30467264D01*
X138292448Y-30467261D01*
X138199424Y-30402124D01*
X138148010Y-30372440D01*
X138101082Y-30345346D01*
X138101058Y-30345334D01*
X137998167Y-30297355D01*
X137998156Y-30297351D01*
X137998154Y-30297350D01*
X137891440Y-30258509D01*
X137821899Y-30239875D01*
X137781749Y-30229117D01*
X137781742Y-30229116D01*
X137669923Y-30209400D01*
X137669916Y-30209399D01*
X137669911Y-30209398D01*
X137669909Y-30209397D01*
X137669904Y-30209397D01*
X137556782Y-30199500D01*
X137556781Y-30199500D01*
X137443219Y-30199500D01*
X137443218Y-30199500D01*
X137330095Y-30209397D01*
X137330076Y-30209400D01*
X137218257Y-30229116D01*
X137218250Y-30229117D01*
X137159466Y-30244868D01*
X137108560Y-30258509D01*
X137108557Y-30258510D01*
X137108556Y-30258510D01*
X137001832Y-30297355D01*
X136898941Y-30345334D01*
X136898917Y-30345346D01*
X136800579Y-30402122D01*
X136707546Y-30467265D01*
X136620554Y-30540259D01*
X136540259Y-30620554D01*
X136467265Y-30707546D01*
X136402122Y-30800579D01*
X136345346Y-30898917D01*
X136345334Y-30898941D01*
X136297355Y-31001832D01*
X136259320Y-31106332D01*
X136258509Y-31108560D01*
X136251790Y-31133635D01*
X136229117Y-31218250D01*
X136229116Y-31218257D01*
X136209400Y-31330076D01*
X136209397Y-31330095D01*
X136199500Y-31443217D01*
X133291823Y-31443217D01*
X133289225Y-31433520D01*
X133289223Y-31433516D01*
X133289222Y-31433510D01*
X133248888Y-31322694D01*
X133248883Y-31322685D01*
X133248882Y-31322680D01*
X133200189Y-31218257D01*
X133199050Y-31215814D01*
X133140086Y-31113685D01*
X133072445Y-31017084D01*
X133072444Y-31017083D01*
X133072440Y-31017077D01*
X132996655Y-30926761D01*
X132996650Y-30926755D01*
X132996642Y-30926746D01*
X132913254Y-30843358D01*
X132913245Y-30843350D01*
X132913238Y-30843344D01*
X132822922Y-30767559D01*
X132726321Y-30699918D01*
X132726316Y-30699915D01*
X132726315Y-30699914D01*
X132687292Y-30677384D01*
X132657147Y-30652973D01*
X132636017Y-30620436D01*
X132625975Y-30582962D01*
X132628006Y-30544220D01*
X132641908Y-30508001D01*
X132666323Y-30477851D01*
X132687290Y-30462616D01*
X132726315Y-30440086D01*
X132822916Y-30372445D01*
X132913254Y-30296642D01*
X132996642Y-30213254D01*
X133072445Y-30122916D01*
X133140086Y-30026315D01*
X133199050Y-29924186D01*
X133248888Y-29817306D01*
X133289222Y-29706490D01*
X133319744Y-29592580D01*
X133340222Y-29476444D01*
X133350500Y-29358964D01*
X133350500Y-29241036D01*
X133340222Y-29123556D01*
X133319744Y-29007420D01*
X133289222Y-28893510D01*
X133248888Y-28782694D01*
X133248883Y-28782685D01*
X133248882Y-28782680D01*
X133199155Y-28676039D01*
X133199050Y-28675814D01*
X133140086Y-28573685D01*
X133072445Y-28477084D01*
X133072444Y-28477083D01*
X133072440Y-28477077D01*
X132996655Y-28386761D01*
X132996650Y-28386755D01*
X132996642Y-28386746D01*
X132913254Y-28303358D01*
X132913245Y-28303350D01*
X132913238Y-28303344D01*
X132822922Y-28227559D01*
X132726321Y-28159918D01*
X132726318Y-28159916D01*
X132726315Y-28159914D01*
X132624186Y-28100950D01*
X132624167Y-28100941D01*
X132517319Y-28051117D01*
X132517308Y-28051113D01*
X132517306Y-28051112D01*
X132406490Y-28010778D01*
X132406489Y-28010777D01*
X132406479Y-28010774D01*
X132292587Y-27980258D01*
X132292590Y-27980258D01*
X132292580Y-27980256D01*
X132276180Y-27977364D01*
X132176446Y-27959778D01*
X132058967Y-27949500D01*
X132058964Y-27949500D01*
X131941036Y-27949500D01*
X131941032Y-27949500D01*
X131823553Y-27959778D01*
X131707425Y-27980255D01*
X131707422Y-27980255D01*
X131707420Y-27980256D01*
X131707415Y-27980257D01*
X131707412Y-27980258D01*
X131593520Y-28010774D01*
X131482680Y-28051117D01*
X131375832Y-28100941D01*
X131375808Y-28100953D01*
X131273693Y-28159909D01*
X131273678Y-28159918D01*
X131177077Y-28227559D01*
X131086761Y-28303344D01*
X131086737Y-28303366D01*
X131003366Y-28386737D01*
X131003344Y-28386761D01*
X130927559Y-28477077D01*
X130859918Y-28573678D01*
X130859909Y-28573693D01*
X130800953Y-28675808D01*
X130800941Y-28675832D01*
X130751117Y-28782680D01*
X130710774Y-28893520D01*
X130680258Y-29007412D01*
X130680255Y-29007425D01*
X130659778Y-29123552D01*
X130653956Y-29190096D01*
X130644570Y-29227739D01*
X130624011Y-29260639D01*
X130618109Y-29266968D01*
X121389259Y-38495820D01*
X118327300Y-41557779D01*
X118327295Y-41557784D01*
X118303181Y-41581898D01*
X118257783Y-41627295D01*
X118195425Y-41703278D01*
X118195415Y-41703292D01*
X118140810Y-41785014D01*
X118140804Y-41785025D01*
X118094468Y-41871714D01*
X118094465Y-41871722D01*
X118056850Y-41962529D01*
X118028314Y-42056602D01*
X118028312Y-42056610D01*
X118009134Y-42153022D01*
X117999500Y-42250852D01*
X117999500Y-67034217D01*
X117993431Y-67072535D01*
X117975818Y-67107102D01*
X117963181Y-67121898D01*
X107964447Y-77120631D01*
X107933061Y-77143435D01*
X107896164Y-77155423D01*
X107857368Y-77155423D01*
X107820471Y-77143435D01*
X107789085Y-77120631D01*
X107766281Y-77089245D01*
X107760244Y-77075359D01*
X107748426Y-77042889D01*
X107748417Y-77042867D01*
X107698609Y-76936055D01*
X107698601Y-76936039D01*
X107639667Y-76833963D01*
X107639658Y-76833948D01*
X107614925Y-76798626D01*
X106982962Y-77430589D01*
X106974481Y-77398935D01*
X106949399Y-77338381D01*
X106916627Y-77281619D01*
X106876727Y-77229620D01*
X106830380Y-77183273D01*
X106778381Y-77143373D01*
X106721619Y-77110601D01*
X106661065Y-77085519D01*
X106629409Y-77077037D01*
X107261372Y-76445074D01*
X107261371Y-76445072D01*
X107226062Y-76420348D01*
X107226046Y-76420338D01*
X107186794Y-76397676D01*
X107156645Y-76373261D01*
X107135515Y-76340724D01*
X107125474Y-76303250D01*
X107127505Y-76264507D01*
X107141408Y-76228288D01*
X107165823Y-76198139D01*
X107186787Y-76182906D01*
X107226315Y-76160086D01*
X107322916Y-76092445D01*
X107413254Y-76016642D01*
X107496642Y-75933254D01*
X107572445Y-75842916D01*
X107640086Y-75746315D01*
X107699050Y-75644186D01*
X107748888Y-75537306D01*
X107789222Y-75426490D01*
X107819744Y-75312580D01*
X107840222Y-75196444D01*
X107850500Y-75078964D01*
X107850500Y-74961036D01*
X107840222Y-74843556D01*
X107819744Y-74727420D01*
X107789222Y-74613510D01*
X107748888Y-74502694D01*
X107748883Y-74502685D01*
X107748882Y-74502680D01*
X107699058Y-74395832D01*
X107699050Y-74395814D01*
X107640086Y-74293685D01*
X107572445Y-74197084D01*
X107572444Y-74197083D01*
X107572440Y-74197077D01*
X107496655Y-74106761D01*
X107496650Y-74106755D01*
X107496642Y-74106746D01*
X107413254Y-74023358D01*
X107413245Y-74023350D01*
X107413238Y-74023344D01*
X107322922Y-73947559D01*
X107226321Y-73879918D01*
X107226319Y-73879917D01*
X107226315Y-73879914D01*
X107187292Y-73857384D01*
X107157147Y-73832973D01*
X107136017Y-73800436D01*
X107125975Y-73762962D01*
X107128006Y-73724220D01*
X107141908Y-73688001D01*
X107166323Y-73657851D01*
X107187290Y-73642616D01*
X107226315Y-73620086D01*
X107322916Y-73552445D01*
X107413254Y-73476642D01*
X107496642Y-73393254D01*
X107572445Y-73302916D01*
X107640086Y-73206315D01*
X107699050Y-73104186D01*
X107748888Y-72997306D01*
X107789222Y-72886490D01*
X107819744Y-72772580D01*
X107840222Y-72656444D01*
X107850500Y-72538964D01*
X107850500Y-72421036D01*
X107840222Y-72303556D01*
X107819744Y-72187420D01*
X107789222Y-72073510D01*
X107748888Y-71962694D01*
X107748883Y-71962685D01*
X107748882Y-71962680D01*
X107699058Y-71855832D01*
X107699050Y-71855814D01*
X107640086Y-71753685D01*
X107572445Y-71657084D01*
X107572444Y-71657083D01*
X107572440Y-71657077D01*
X107496655Y-71566761D01*
X107496650Y-71566755D01*
X107496642Y-71566746D01*
X107413254Y-71483358D01*
X107413245Y-71483350D01*
X107413238Y-71483344D01*
X107322922Y-71407559D01*
X107226321Y-71339918D01*
X107226319Y-71339917D01*
X107226315Y-71339914D01*
X107187292Y-71317384D01*
X107157147Y-71292973D01*
X107136017Y-71260436D01*
X107125975Y-71222962D01*
X107128006Y-71184220D01*
X107141908Y-71148001D01*
X107166323Y-71117851D01*
X107187290Y-71102616D01*
X107226315Y-71080086D01*
X107322916Y-71012445D01*
X107413254Y-70936642D01*
X107496642Y-70853254D01*
X107572445Y-70762916D01*
X107640086Y-70666315D01*
X107699050Y-70564186D01*
X107748888Y-70457306D01*
X107789222Y-70346490D01*
X107819744Y-70232580D01*
X107840222Y-70116444D01*
X107850500Y-69998964D01*
X107850500Y-69881036D01*
X107840222Y-69763556D01*
X107819744Y-69647420D01*
X107789222Y-69533510D01*
X107748888Y-69422694D01*
X107748883Y-69422685D01*
X107748882Y-69422680D01*
X107699058Y-69315832D01*
X107699050Y-69315814D01*
X107640086Y-69213685D01*
X107572445Y-69117084D01*
X107572444Y-69117083D01*
X107572440Y-69117077D01*
X107496655Y-69026761D01*
X107496650Y-69026755D01*
X107496642Y-69026746D01*
X107413254Y-68943358D01*
X107413245Y-68943350D01*
X107413238Y-68943344D01*
X107322922Y-68867559D01*
X107226321Y-68799918D01*
X107226319Y-68799917D01*
X107226315Y-68799914D01*
X107187292Y-68777384D01*
X107157147Y-68752973D01*
X107136017Y-68720436D01*
X107125975Y-68682962D01*
X107128006Y-68644220D01*
X107141908Y-68608001D01*
X107166323Y-68577851D01*
X107187290Y-68562616D01*
X107226315Y-68540086D01*
X107322916Y-68472445D01*
X107413254Y-68396642D01*
X107496642Y-68313254D01*
X107572445Y-68222916D01*
X107640086Y-68126315D01*
X107699050Y-68024186D01*
X107748888Y-67917306D01*
X107789222Y-67806490D01*
X107819744Y-67692580D01*
X107840222Y-67576444D01*
X107850500Y-67458964D01*
X107850500Y-67341036D01*
X107840222Y-67223556D01*
X107819744Y-67107420D01*
X107789222Y-66993510D01*
X107748888Y-66882694D01*
X107748883Y-66882685D01*
X107748882Y-66882680D01*
X107699058Y-66775832D01*
X107699050Y-66775814D01*
X107640086Y-66673685D01*
X107572445Y-66577084D01*
X107572444Y-66577083D01*
X107572440Y-66577077D01*
X107496655Y-66486761D01*
X107496650Y-66486755D01*
X107496642Y-66486746D01*
X107413254Y-66403358D01*
X107413245Y-66403350D01*
X107413238Y-66403344D01*
X107322922Y-66327559D01*
X107226321Y-66259918D01*
X107226319Y-66259917D01*
X107226315Y-66259914D01*
X107187292Y-66237384D01*
X107157147Y-66212973D01*
X107136017Y-66180436D01*
X107125975Y-66142962D01*
X107128006Y-66104220D01*
X107141908Y-66068001D01*
X107166323Y-66037851D01*
X107187290Y-66022616D01*
X107226315Y-66000086D01*
X107322916Y-65932445D01*
X107413254Y-65856642D01*
X107496642Y-65773254D01*
X107572445Y-65682916D01*
X107640086Y-65586315D01*
X107699050Y-65484186D01*
X107748888Y-65377306D01*
X107789222Y-65266490D01*
X107819744Y-65152580D01*
X107840222Y-65036444D01*
X107850500Y-64918964D01*
X107850500Y-64801036D01*
X107840222Y-64683556D01*
X107819744Y-64567420D01*
X107789222Y-64453510D01*
X107748888Y-64342694D01*
X107748883Y-64342685D01*
X107748882Y-64342680D01*
X107699058Y-64235832D01*
X107699050Y-64235814D01*
X107640086Y-64133685D01*
X107572445Y-64037084D01*
X107572444Y-64037083D01*
X107572440Y-64037077D01*
X107496655Y-63946761D01*
X107496650Y-63946755D01*
X107496642Y-63946746D01*
X107413254Y-63863358D01*
X107413245Y-63863350D01*
X107413238Y-63863344D01*
X107322922Y-63787559D01*
X107226321Y-63719918D01*
X107226319Y-63719917D01*
X107226315Y-63719914D01*
X107186792Y-63697095D01*
X107156644Y-63672682D01*
X107135515Y-63640145D01*
X107125474Y-63602671D01*
X107127505Y-63563928D01*
X107141408Y-63527709D01*
X107165823Y-63497559D01*
X107186796Y-63482322D01*
X107226047Y-63459660D01*
X107261371Y-63434925D01*
X106629409Y-62802963D01*
X106661065Y-62794481D01*
X106721619Y-62769399D01*
X106778381Y-62736627D01*
X106830380Y-62696727D01*
X106876727Y-62650380D01*
X106916627Y-62598381D01*
X106949399Y-62541619D01*
X106974481Y-62481065D01*
X106982963Y-62449409D01*
X107614925Y-63081371D01*
X107639663Y-63046043D01*
X107698601Y-62943960D01*
X107698609Y-62943944D01*
X107748417Y-62837132D01*
X107748420Y-62837124D01*
X107788742Y-62726343D01*
X107788742Y-62726341D01*
X107819254Y-62612473D01*
X107819255Y-62612466D01*
X107839725Y-62496380D01*
X107849999Y-62378945D01*
X107850000Y-62378943D01*
X107850000Y-62261057D01*
X107849999Y-62261054D01*
X107839725Y-62143619D01*
X107819255Y-62027533D01*
X107819254Y-62027526D01*
X107788742Y-61913658D01*
X107788742Y-61913656D01*
X107748420Y-61802875D01*
X107748417Y-61802867D01*
X107698609Y-61696055D01*
X107698601Y-61696039D01*
X107639667Y-61593963D01*
X107639658Y-61593948D01*
X107614925Y-61558626D01*
X106982962Y-62190589D01*
X106974481Y-62158935D01*
X106949399Y-62098381D01*
X106916627Y-62041619D01*
X106876727Y-61989620D01*
X106830380Y-61943273D01*
X106778381Y-61903373D01*
X106721619Y-61870601D01*
X106661065Y-61845519D01*
X106629409Y-61837037D01*
X107261372Y-61205074D01*
X107261371Y-61205072D01*
X107226062Y-61180348D01*
X107226046Y-61180338D01*
X107186794Y-61157676D01*
X107156645Y-61133261D01*
X107135515Y-61100724D01*
X107125474Y-61063250D01*
X107127505Y-61024507D01*
X107141408Y-60988288D01*
X107165823Y-60958139D01*
X107186787Y-60942906D01*
X107226315Y-60920086D01*
X107322916Y-60852445D01*
X107413254Y-60776642D01*
X107496642Y-60693254D01*
X107572445Y-60602916D01*
X107640086Y-60506315D01*
X107699050Y-60404186D01*
X107748888Y-60297306D01*
X107789222Y-60186490D01*
X107819744Y-60072580D01*
X107840222Y-59956444D01*
X107850500Y-59838964D01*
X107850500Y-59721036D01*
X107840222Y-59603556D01*
X107819744Y-59487420D01*
X107789222Y-59373510D01*
X107748888Y-59262694D01*
X107704220Y-59166902D01*
X107693528Y-59129611D01*
X107694882Y-59090839D01*
X107708152Y-59054383D01*
X107732037Y-59023811D01*
X107764200Y-59002117D01*
X107801493Y-58991424D01*
X107816604Y-58990500D01*
X108149352Y-58990500D01*
X108149359Y-58990500D01*
X108227403Y-58980225D01*
X108303438Y-58959851D01*
X108376164Y-58929727D01*
X108396850Y-58917784D01*
X108444336Y-58890369D01*
X108506787Y-58842449D01*
X116018537Y-51330697D01*
X116049920Y-51307896D01*
X116086817Y-51295908D01*
X116092291Y-51295165D01*
X116134300Y-51290433D01*
X116221956Y-51270426D01*
X116306821Y-51240731D01*
X116387827Y-51201720D01*
X116463956Y-51153885D01*
X116534251Y-51097827D01*
X116597827Y-51034251D01*
X116653885Y-50963956D01*
X116701720Y-50887827D01*
X116740731Y-50806821D01*
X116770426Y-50721956D01*
X116790433Y-50634300D01*
X116800500Y-50544955D01*
X116800500Y-50455045D01*
X116790433Y-50365700D01*
X116770426Y-50278044D01*
X116740731Y-50193179D01*
X116701720Y-50112173D01*
X116701263Y-50111445D01*
X116653889Y-50036050D01*
X116653887Y-50036048D01*
X116653885Y-50036044D01*
X116597827Y-49965749D01*
X116534251Y-49902173D01*
X116463956Y-49846115D01*
X116463952Y-49846112D01*
X116463949Y-49846110D01*
X116387831Y-49798282D01*
X116384014Y-49796444D01*
X116375754Y-49792466D01*
X116306818Y-49759267D01*
X116221956Y-49729574D01*
X116221950Y-49729572D01*
X116134303Y-49709567D01*
X116134287Y-49709565D01*
X116044959Y-49699500D01*
X116044955Y-49699500D01*
X115955045Y-49699500D01*
X115955041Y-49699500D01*
X115865712Y-49709565D01*
X115865703Y-49709566D01*
X115856617Y-49711640D01*
X115817909Y-49714247D01*
X115780289Y-49704766D01*
X115747441Y-49684123D01*
X115722580Y-49654341D01*
X115717311Y-49644548D01*
X115705489Y-49620000D01*
X115701720Y-49612173D01*
X115653885Y-49536044D01*
X115597827Y-49465749D01*
X115534251Y-49402173D01*
X115463956Y-49346115D01*
X115463952Y-49346112D01*
X115463949Y-49346110D01*
X115387831Y-49298282D01*
X115306818Y-49259267D01*
X115221956Y-49229574D01*
X115221950Y-49229572D01*
X115134303Y-49209567D01*
X115134287Y-49209565D01*
X115044959Y-49199500D01*
X115044955Y-49199500D01*
X114955045Y-49199500D01*
X114955041Y-49199500D01*
X114865712Y-49209565D01*
X114865703Y-49209566D01*
X114856617Y-49211640D01*
X114817909Y-49214247D01*
X114780289Y-49204766D01*
X114747441Y-49184123D01*
X114722580Y-49154341D01*
X114717311Y-49144548D01*
X114709609Y-49128555D01*
X114701720Y-49112173D01*
X114653885Y-49036044D01*
X114597827Y-48965749D01*
X114534251Y-48902173D01*
X114463956Y-48846115D01*
X114463952Y-48846112D01*
X114463949Y-48846110D01*
X114387831Y-48798282D01*
X114385343Y-48797084D01*
X114378341Y-48793711D01*
X114306818Y-48759267D01*
X114221956Y-48729574D01*
X114221950Y-48729572D01*
X114134303Y-48709567D01*
X114134287Y-48709565D01*
X114044959Y-48699500D01*
X114044955Y-48699500D01*
X113955045Y-48699500D01*
X113955041Y-48699500D01*
X113865712Y-48709565D01*
X113865696Y-48709567D01*
X113778049Y-48729572D01*
X113778043Y-48729574D01*
X113693181Y-48759267D01*
X113612168Y-48798282D01*
X113536050Y-48846110D01*
X113465748Y-48902173D01*
X113402173Y-48965748D01*
X113346110Y-49036050D01*
X113298282Y-49112168D01*
X113259267Y-49193181D01*
X113229574Y-49278043D01*
X113229572Y-49278049D01*
X113209567Y-49365696D01*
X113209565Y-49365709D01*
X113204837Y-49407670D01*
X113194515Y-49445067D01*
X113173142Y-49477445D01*
X113169298Y-49481465D01*
X109977583Y-52673181D01*
X109946197Y-52695985D01*
X109909300Y-52707973D01*
X109889902Y-52709500D01*
X107911984Y-52709500D01*
X107873666Y-52703431D01*
X107839099Y-52685818D01*
X107811666Y-52658385D01*
X107794053Y-52623818D01*
X107787984Y-52585500D01*
X107792209Y-52553406D01*
X107819254Y-52452473D01*
X107819255Y-52452466D01*
X107839725Y-52336380D01*
X107849999Y-52218945D01*
X107850000Y-52218943D01*
X107850000Y-52101057D01*
X107849999Y-52101054D01*
X107839725Y-51983619D01*
X107819255Y-51867533D01*
X107819254Y-51867526D01*
X107788742Y-51753658D01*
X107788742Y-51753656D01*
X107748420Y-51642875D01*
X107748417Y-51642867D01*
X107698609Y-51536055D01*
X107698601Y-51536039D01*
X107639667Y-51433963D01*
X107639658Y-51433948D01*
X107614925Y-51398626D01*
X106982962Y-52030590D01*
X106974481Y-51998935D01*
X106949399Y-51938381D01*
X106916627Y-51881619D01*
X106876727Y-51829620D01*
X106830380Y-51783273D01*
X106778381Y-51743373D01*
X106721619Y-51710601D01*
X106661065Y-51685519D01*
X106629409Y-51677037D01*
X107261372Y-51045074D01*
X107261371Y-51045072D01*
X107226062Y-51020348D01*
X107226036Y-51020332D01*
X107186294Y-50997387D01*
X107156144Y-50972972D01*
X107135014Y-50940435D01*
X107124973Y-50902961D01*
X107127004Y-50864219D01*
X107140907Y-50828000D01*
X107165322Y-50797850D01*
X107186294Y-50782613D01*
X107226043Y-50759663D01*
X107261371Y-50734925D01*
X106629409Y-50102963D01*
X106661065Y-50094481D01*
X106721619Y-50069399D01*
X106778381Y-50036627D01*
X106830380Y-49996727D01*
X106876727Y-49950380D01*
X106916627Y-49898381D01*
X106949399Y-49841619D01*
X106974481Y-49781065D01*
X106982963Y-49749409D01*
X107614925Y-50381371D01*
X107639663Y-50346043D01*
X107698601Y-50243960D01*
X107698609Y-50243944D01*
X107748417Y-50137132D01*
X107748420Y-50137124D01*
X107788742Y-50026343D01*
X107788742Y-50026341D01*
X107819254Y-49912473D01*
X107819255Y-49912466D01*
X107839725Y-49796380D01*
X107849999Y-49678945D01*
X107850000Y-49678943D01*
X107850000Y-49561057D01*
X107849999Y-49561054D01*
X107839725Y-49443619D01*
X107819255Y-49327533D01*
X107819254Y-49327526D01*
X107788742Y-49213658D01*
X107788742Y-49213656D01*
X107748420Y-49102875D01*
X107748417Y-49102867D01*
X107698609Y-48996055D01*
X107698601Y-48996039D01*
X107639667Y-48893963D01*
X107639658Y-48893948D01*
X107614925Y-48858626D01*
X106982962Y-49490589D01*
X106974481Y-49458935D01*
X106949399Y-49398381D01*
X106916627Y-49341619D01*
X106876727Y-49289620D01*
X106830380Y-49243273D01*
X106778381Y-49203373D01*
X106721619Y-49170601D01*
X106661065Y-49145519D01*
X106629409Y-49137037D01*
X107261372Y-48505074D01*
X107261371Y-48505072D01*
X107226062Y-48480348D01*
X107226046Y-48480338D01*
X107186794Y-48457676D01*
X107156645Y-48433261D01*
X107135515Y-48400724D01*
X107125474Y-48363250D01*
X107127505Y-48324507D01*
X107141408Y-48288288D01*
X107165823Y-48258139D01*
X107186787Y-48242906D01*
X107226315Y-48220086D01*
X107322916Y-48152445D01*
X107413254Y-48076642D01*
X107496642Y-47993254D01*
X107572445Y-47902916D01*
X107640086Y-47806315D01*
X107699050Y-47704186D01*
X107748888Y-47597306D01*
X107789222Y-47486490D01*
X107819744Y-47372580D01*
X107840222Y-47256444D01*
X107850500Y-47138964D01*
X107850500Y-47021036D01*
X107840222Y-46903556D01*
X107819744Y-46787420D01*
X107789222Y-46673510D01*
X107748888Y-46562694D01*
X107748883Y-46562685D01*
X107748882Y-46562680D01*
X107699058Y-46455832D01*
X107699050Y-46455814D01*
X107640086Y-46353685D01*
X107572445Y-46257084D01*
X107572444Y-46257083D01*
X107572440Y-46257077D01*
X107496655Y-46166761D01*
X107496650Y-46166755D01*
X107496642Y-46166746D01*
X107413254Y-46083358D01*
X107413245Y-46083350D01*
X107413238Y-46083344D01*
X107322922Y-46007559D01*
X107226321Y-45939918D01*
X107226316Y-45939915D01*
X107226315Y-45939914D01*
X107187292Y-45917384D01*
X107157147Y-45892973D01*
X107136017Y-45860436D01*
X107125975Y-45822962D01*
X107128006Y-45784220D01*
X107141908Y-45748001D01*
X107166323Y-45717851D01*
X107187290Y-45702616D01*
X107226315Y-45680086D01*
X107322916Y-45612445D01*
X107413254Y-45536642D01*
X107496642Y-45453254D01*
X107572445Y-45362916D01*
X107640086Y-45266315D01*
X107699050Y-45164186D01*
X107748888Y-45057306D01*
X107789222Y-44946490D01*
X107819744Y-44832580D01*
X107840222Y-44716444D01*
X107850500Y-44598964D01*
X107850500Y-44481036D01*
X107840222Y-44363556D01*
X107819744Y-44247420D01*
X107789222Y-44133510D01*
X107748888Y-44022694D01*
X107748883Y-44022685D01*
X107748882Y-44022680D01*
X107699155Y-43916039D01*
X107699050Y-43915814D01*
X107640086Y-43813685D01*
X107572445Y-43717084D01*
X107572444Y-43717083D01*
X107572440Y-43717077D01*
X107496655Y-43626761D01*
X107496650Y-43626755D01*
X107496642Y-43626746D01*
X107413254Y-43543358D01*
X107413245Y-43543350D01*
X107413238Y-43543344D01*
X107322922Y-43467559D01*
X107226321Y-43399918D01*
X107226319Y-43399917D01*
X107226315Y-43399914D01*
X107187292Y-43377384D01*
X107157147Y-43352973D01*
X107136017Y-43320436D01*
X107125975Y-43282962D01*
X107128006Y-43244220D01*
X107141908Y-43208001D01*
X107166323Y-43177851D01*
X107187290Y-43162616D01*
X107226315Y-43140086D01*
X107322916Y-43072445D01*
X107413254Y-42996642D01*
X107496642Y-42913254D01*
X107572445Y-42822916D01*
X107640086Y-42726315D01*
X107699050Y-42624186D01*
X107748888Y-42517306D01*
X107789222Y-42406490D01*
X107819744Y-42292580D01*
X107840222Y-42176444D01*
X107850500Y-42058964D01*
X107850500Y-41941036D01*
X107840222Y-41823556D01*
X107819744Y-41707420D01*
X107797535Y-41624536D01*
X107789225Y-41593520D01*
X107789223Y-41593516D01*
X107789222Y-41593510D01*
X107748888Y-41482694D01*
X107748883Y-41482685D01*
X107748882Y-41482680D01*
X107699058Y-41375832D01*
X107699050Y-41375814D01*
X107640086Y-41273685D01*
X107572445Y-41177084D01*
X107572444Y-41177083D01*
X107572440Y-41177077D01*
X107496655Y-41086761D01*
X107496650Y-41086755D01*
X107496642Y-41086746D01*
X107413254Y-41003358D01*
X107413245Y-41003350D01*
X107413238Y-41003344D01*
X107322922Y-40927559D01*
X107226321Y-40859918D01*
X107226319Y-40859917D01*
X107226315Y-40859914D01*
X107187292Y-40837384D01*
X107157147Y-40812973D01*
X107136017Y-40780436D01*
X107125975Y-40742962D01*
X107128006Y-40704220D01*
X107141908Y-40668001D01*
X107166323Y-40637851D01*
X107187290Y-40622616D01*
X107226315Y-40600086D01*
X107322916Y-40532445D01*
X107413254Y-40456642D01*
X107496642Y-40373254D01*
X107572445Y-40282916D01*
X107640086Y-40186315D01*
X107699050Y-40084186D01*
X107748888Y-39977306D01*
X107789222Y-39866490D01*
X107819744Y-39752580D01*
X107840222Y-39636444D01*
X107850500Y-39518964D01*
X107850500Y-39401036D01*
X107840222Y-39283556D01*
X107819744Y-39167420D01*
X107789222Y-39053510D01*
X107748888Y-38942694D01*
X107748883Y-38942685D01*
X107748882Y-38942680D01*
X107699058Y-38835832D01*
X107699050Y-38835814D01*
X107640086Y-38733685D01*
X107572445Y-38637084D01*
X107572444Y-38637083D01*
X107572440Y-38637077D01*
X107496655Y-38546761D01*
X107496650Y-38546755D01*
X107496642Y-38546746D01*
X107413254Y-38463358D01*
X107413245Y-38463350D01*
X107413238Y-38463344D01*
X107322922Y-38387559D01*
X107226321Y-38319918D01*
X107226319Y-38319917D01*
X107226315Y-38319914D01*
X107187292Y-38297384D01*
X107157147Y-38272973D01*
X107136017Y-38240436D01*
X107125975Y-38202962D01*
X107128006Y-38164220D01*
X107141908Y-38128001D01*
X107166323Y-38097851D01*
X107187290Y-38082616D01*
X107226315Y-38060086D01*
X107322916Y-37992445D01*
X107413254Y-37916642D01*
X107496642Y-37833254D01*
X107572445Y-37742916D01*
X107640086Y-37646315D01*
X107699050Y-37544186D01*
X107748888Y-37437306D01*
X107789222Y-37326490D01*
X107819744Y-37212580D01*
X107840222Y-37096444D01*
X107850500Y-36978964D01*
X107850500Y-36861036D01*
X107840222Y-36743556D01*
X107819744Y-36627420D01*
X107789222Y-36513510D01*
X107748888Y-36402694D01*
X107748883Y-36402685D01*
X107748882Y-36402680D01*
X107720325Y-36341441D01*
X107699050Y-36295814D01*
X107640086Y-36193685D01*
X107572445Y-36097084D01*
X107572444Y-36097083D01*
X107572440Y-36097077D01*
X107496655Y-36006761D01*
X107496650Y-36006755D01*
X107496642Y-36006746D01*
X107413254Y-35923358D01*
X107413245Y-35923350D01*
X107413238Y-35923344D01*
X107322922Y-35847559D01*
X107226321Y-35779918D01*
X107226319Y-35779917D01*
X107226315Y-35779914D01*
X107187292Y-35757384D01*
X107157147Y-35732973D01*
X107136017Y-35700436D01*
X107125975Y-35662962D01*
X107128006Y-35624220D01*
X107141908Y-35588001D01*
X107166323Y-35557851D01*
X107187290Y-35542616D01*
X107226315Y-35520086D01*
X107322916Y-35452445D01*
X107413254Y-35376642D01*
X107496642Y-35293254D01*
X107572445Y-35202916D01*
X107640086Y-35106315D01*
X107699050Y-35004186D01*
X107748888Y-34897306D01*
X107789222Y-34786490D01*
X107819744Y-34672580D01*
X107840222Y-34556444D01*
X107850500Y-34438964D01*
X107850500Y-34321036D01*
X107840222Y-34203556D01*
X107819744Y-34087420D01*
X107789222Y-33973510D01*
X107748888Y-33862694D01*
X107748883Y-33862685D01*
X107748882Y-33862680D01*
X107699058Y-33755832D01*
X107699050Y-33755814D01*
X107640086Y-33653685D01*
X107572445Y-33557084D01*
X107572444Y-33557083D01*
X107572440Y-33557077D01*
X107496655Y-33466761D01*
X107496650Y-33466755D01*
X107496642Y-33466746D01*
X107413254Y-33383358D01*
X107413245Y-33383350D01*
X107413238Y-33383344D01*
X107322922Y-33307559D01*
X107226321Y-33239918D01*
X107226319Y-33239917D01*
X107226315Y-33239914D01*
X107187292Y-33217384D01*
X107157147Y-33192973D01*
X107136017Y-33160436D01*
X107125975Y-33122962D01*
X107128006Y-33084220D01*
X107141908Y-33048001D01*
X107166323Y-33017851D01*
X107187290Y-33002616D01*
X107226315Y-32980086D01*
X107322916Y-32912445D01*
X107413254Y-32836642D01*
X107496642Y-32753254D01*
X107572445Y-32662916D01*
X107640086Y-32566315D01*
X107699050Y-32464186D01*
X107748888Y-32357306D01*
X107789222Y-32246490D01*
X107819744Y-32132580D01*
X107840222Y-32016444D01*
X107850500Y-31898964D01*
X107850500Y-31781036D01*
X107840222Y-31663556D01*
X107819744Y-31547420D01*
X107789222Y-31433510D01*
X107748888Y-31322694D01*
X107748883Y-31322685D01*
X107748882Y-31322680D01*
X107700189Y-31218257D01*
X107699050Y-31215814D01*
X107640086Y-31113685D01*
X107572445Y-31017084D01*
X107572444Y-31017083D01*
X107572440Y-31017077D01*
X107496655Y-30926761D01*
X107496650Y-30926755D01*
X107496642Y-30926746D01*
X107413254Y-30843358D01*
X107413245Y-30843350D01*
X107413238Y-30843344D01*
X107322922Y-30767559D01*
X107226321Y-30699918D01*
X107226319Y-30699917D01*
X107226315Y-30699914D01*
X107186792Y-30677095D01*
X107156644Y-30652682D01*
X107135515Y-30620145D01*
X107125474Y-30582671D01*
X107127505Y-30543928D01*
X107141408Y-30507709D01*
X107165823Y-30477559D01*
X107186796Y-30462322D01*
X107226047Y-30439660D01*
X107261371Y-30414925D01*
X106629409Y-29782963D01*
X106661065Y-29774481D01*
X106721619Y-29749399D01*
X106778381Y-29716627D01*
X106830380Y-29676727D01*
X106876727Y-29630380D01*
X106916627Y-29578381D01*
X106949399Y-29521619D01*
X106974481Y-29461065D01*
X106982963Y-29429409D01*
X107614925Y-30061371D01*
X107639663Y-30026043D01*
X107698601Y-29923960D01*
X107698609Y-29923944D01*
X107748417Y-29817132D01*
X107748420Y-29817124D01*
X107788742Y-29706343D01*
X107788742Y-29706341D01*
X107819254Y-29592473D01*
X107819255Y-29592466D01*
X107839725Y-29476380D01*
X107849999Y-29358945D01*
X107850000Y-29358943D01*
X107850000Y-29241057D01*
X107849999Y-29241054D01*
X107839725Y-29123619D01*
X107819255Y-29007533D01*
X107819254Y-29007526D01*
X107788742Y-28893658D01*
X107788742Y-28893656D01*
X107748420Y-28782875D01*
X107748417Y-28782867D01*
X107698609Y-28676055D01*
X107698601Y-28676039D01*
X107639667Y-28573963D01*
X107639658Y-28573948D01*
X107614925Y-28538626D01*
X106982962Y-29170589D01*
X106974481Y-29138935D01*
X106949399Y-29078381D01*
X106916627Y-29021619D01*
X106876727Y-28969620D01*
X106830380Y-28923273D01*
X106778381Y-28883373D01*
X106721619Y-28850601D01*
X106661065Y-28825519D01*
X106629409Y-28817037D01*
X107261372Y-28185074D01*
X107261371Y-28185072D01*
X107226062Y-28160348D01*
X107226036Y-28160332D01*
X107123960Y-28101398D01*
X107123944Y-28101390D01*
X107017132Y-28051582D01*
X107017124Y-28051579D01*
X106906342Y-28011257D01*
X106792473Y-27980745D01*
X106792466Y-27980744D01*
X106676379Y-27960274D01*
X106676380Y-27960274D01*
X106558945Y-27950000D01*
X106441054Y-27950000D01*
X106323619Y-27960274D01*
X106207533Y-27980744D01*
X106207526Y-27980745D01*
X106093658Y-28011257D01*
X106093656Y-28011257D01*
X105982875Y-28051579D01*
X105982867Y-28051582D01*
X105876055Y-28101390D01*
X105876028Y-28101403D01*
X105773967Y-28160328D01*
X105773957Y-28160334D01*
X105738626Y-28185072D01*
X106370590Y-28817036D01*
X106338935Y-28825519D01*
X106278381Y-28850601D01*
X106221619Y-28883373D01*
X106169620Y-28923273D01*
X106123273Y-28969620D01*
X106083373Y-29021619D01*
X106050601Y-29078381D01*
X106025519Y-29138935D01*
X106017036Y-29170590D01*
X105385072Y-28538626D01*
X105360334Y-28573957D01*
X105360328Y-28573967D01*
X105301403Y-28676028D01*
X105301390Y-28676055D01*
X105251582Y-28782867D01*
X105251579Y-28782875D01*
X105211257Y-28893656D01*
X105211257Y-28893658D01*
X105180745Y-29007526D01*
X105180744Y-29007533D01*
X105160274Y-29123619D01*
X105150000Y-29241054D01*
X105150000Y-29358945D01*
X105160274Y-29476380D01*
X105180744Y-29592466D01*
X105180745Y-29592473D01*
X105211257Y-29706341D01*
X105211257Y-29706343D01*
X105251579Y-29817124D01*
X105251582Y-29817132D01*
X105301390Y-29923944D01*
X105301398Y-29923960D01*
X105360332Y-30026036D01*
X105360348Y-30026062D01*
X105385072Y-30061371D01*
X105385074Y-30061372D01*
X106017036Y-29429409D01*
X106025519Y-29461065D01*
X106050601Y-29521619D01*
X106083373Y-29578381D01*
X106123273Y-29630380D01*
X106169620Y-29676727D01*
X106221619Y-29716627D01*
X106278381Y-29749399D01*
X106338935Y-29774481D01*
X106370590Y-29782962D01*
X105738626Y-30414925D01*
X105773948Y-30439658D01*
X105773963Y-30439667D01*
X105813204Y-30462323D01*
X105843354Y-30486738D01*
X105864483Y-30519274D01*
X105874525Y-30556748D01*
X105872494Y-30595491D01*
X105858591Y-30631710D01*
X105834176Y-30661860D01*
X105813206Y-30677096D01*
X105773691Y-30699910D01*
X105773678Y-30699918D01*
X105677077Y-30767559D01*
X105586761Y-30843344D01*
X105586737Y-30843366D01*
X105503366Y-30926737D01*
X105503344Y-30926761D01*
X105427559Y-31017077D01*
X105359918Y-31113678D01*
X105359909Y-31113693D01*
X105300953Y-31215808D01*
X105300941Y-31215832D01*
X105251117Y-31322680D01*
X105210774Y-31433520D01*
X105180258Y-31547412D01*
X105180255Y-31547425D01*
X105159778Y-31663553D01*
X105149500Y-31781032D01*
X105149500Y-31898967D01*
X105159778Y-32016446D01*
X105180255Y-32132574D01*
X105180258Y-32132587D01*
X105210774Y-32246479D01*
X105210777Y-32246489D01*
X105210778Y-32246490D01*
X105227505Y-32292448D01*
X105251117Y-32357319D01*
X105261435Y-32379445D01*
X105300950Y-32464186D01*
X105300953Y-32464191D01*
X105359909Y-32566306D01*
X105359918Y-32566321D01*
X105427559Y-32662922D01*
X105503344Y-32753238D01*
X105503350Y-32753245D01*
X105503358Y-32753254D01*
X105586746Y-32836642D01*
X105586755Y-32836650D01*
X105586761Y-32836655D01*
X105677077Y-32912440D01*
X105677083Y-32912444D01*
X105677084Y-32912445D01*
X105773685Y-32980086D01*
X105811143Y-33001712D01*
X105812703Y-33002613D01*
X105842853Y-33027028D01*
X105863983Y-33059565D01*
X105874024Y-33097039D01*
X105871993Y-33135782D01*
X105858090Y-33172000D01*
X105833675Y-33202150D01*
X105812703Y-33217387D01*
X105773693Y-33239909D01*
X105773678Y-33239918D01*
X105677077Y-33307559D01*
X105586761Y-33383344D01*
X105586737Y-33383366D01*
X105503366Y-33466737D01*
X105503344Y-33466761D01*
X105427559Y-33557077D01*
X105359918Y-33653678D01*
X105359909Y-33653693D01*
X105300953Y-33755808D01*
X105300941Y-33755832D01*
X105251117Y-33862680D01*
X105210774Y-33973520D01*
X105180258Y-34087412D01*
X105180255Y-34087425D01*
X105159778Y-34203553D01*
X105149500Y-34321032D01*
X105149500Y-34438967D01*
X105159778Y-34556446D01*
X105180255Y-34672574D01*
X105180258Y-34672587D01*
X105210774Y-34786479D01*
X105251117Y-34897319D01*
X105298765Y-34999500D01*
X105300950Y-35004186D01*
X105300953Y-35004191D01*
X105359909Y-35106306D01*
X105359918Y-35106321D01*
X105427559Y-35202922D01*
X105503344Y-35293238D01*
X105503350Y-35293245D01*
X105503358Y-35293254D01*
X105586746Y-35376642D01*
X105586755Y-35376650D01*
X105586761Y-35376655D01*
X105677077Y-35452440D01*
X105677083Y-35452444D01*
X105677084Y-35452445D01*
X105773685Y-35520086D01*
X105801325Y-35536044D01*
X105812703Y-35542613D01*
X105842853Y-35567028D01*
X105863983Y-35599565D01*
X105874024Y-35637039D01*
X105871993Y-35675782D01*
X105858090Y-35712000D01*
X105833675Y-35742150D01*
X105812703Y-35757387D01*
X105773693Y-35779909D01*
X105773678Y-35779918D01*
X105677077Y-35847559D01*
X105586761Y-35923344D01*
X105586737Y-35923366D01*
X105503366Y-36006737D01*
X105503344Y-36006761D01*
X105427559Y-36097077D01*
X105359918Y-36193678D01*
X105359909Y-36193693D01*
X105300953Y-36295808D01*
X105300941Y-36295832D01*
X105251117Y-36402680D01*
X105210774Y-36513520D01*
X105180258Y-36627412D01*
X105180255Y-36627425D01*
X105159778Y-36743553D01*
X105149500Y-36861032D01*
X105149500Y-36978967D01*
X105159778Y-37096446D01*
X105180255Y-37212574D01*
X105180258Y-37212587D01*
X105210774Y-37326479D01*
X105251117Y-37437319D01*
X105300941Y-37544167D01*
X105300950Y-37544186D01*
X105300953Y-37544191D01*
X105359909Y-37646306D01*
X105359918Y-37646321D01*
X105427559Y-37742922D01*
X105503344Y-37833238D01*
X105503350Y-37833245D01*
X105503358Y-37833254D01*
X105586746Y-37916642D01*
X105586755Y-37916650D01*
X105586761Y-37916655D01*
X105677077Y-37992440D01*
X105677083Y-37992444D01*
X105677084Y-37992445D01*
X105773685Y-38060086D01*
X105811143Y-38081712D01*
X105812703Y-38082613D01*
X105842853Y-38107028D01*
X105863983Y-38139565D01*
X105874024Y-38177039D01*
X105871993Y-38215782D01*
X105858090Y-38252000D01*
X105833675Y-38282150D01*
X105812703Y-38297387D01*
X105773693Y-38319909D01*
X105773678Y-38319918D01*
X105677077Y-38387559D01*
X105586761Y-38463344D01*
X105586737Y-38463366D01*
X105503366Y-38546737D01*
X105503344Y-38546761D01*
X105427559Y-38637077D01*
X105359918Y-38733678D01*
X105359909Y-38733693D01*
X105300953Y-38835808D01*
X105300941Y-38835832D01*
X105251117Y-38942680D01*
X105210774Y-39053520D01*
X105180258Y-39167412D01*
X105180255Y-39167425D01*
X105159778Y-39283553D01*
X105149500Y-39401032D01*
X105149500Y-39518967D01*
X105159778Y-39636446D01*
X105180255Y-39752574D01*
X105180258Y-39752587D01*
X105210774Y-39866479D01*
X105251117Y-39977319D01*
X105300941Y-40084167D01*
X105300950Y-40084186D01*
X105300953Y-40084191D01*
X105359909Y-40186306D01*
X105359918Y-40186321D01*
X105427559Y-40282922D01*
X105503344Y-40373238D01*
X105503350Y-40373245D01*
X105503358Y-40373254D01*
X105586746Y-40456642D01*
X105586755Y-40456650D01*
X105586761Y-40456655D01*
X105677077Y-40532440D01*
X105677083Y-40532444D01*
X105677084Y-40532445D01*
X105773685Y-40600086D01*
X105811143Y-40621712D01*
X105812703Y-40622613D01*
X105842853Y-40647028D01*
X105863983Y-40679565D01*
X105874024Y-40717039D01*
X105871993Y-40755782D01*
X105858090Y-40792000D01*
X105833675Y-40822150D01*
X105812703Y-40837387D01*
X105773693Y-40859909D01*
X105773678Y-40859918D01*
X105677077Y-40927559D01*
X105586761Y-41003344D01*
X105586737Y-41003366D01*
X105503366Y-41086737D01*
X105503344Y-41086761D01*
X105427559Y-41177077D01*
X105359918Y-41273678D01*
X105359909Y-41273693D01*
X105300953Y-41375808D01*
X105300941Y-41375832D01*
X105251117Y-41482680D01*
X105210774Y-41593520D01*
X105180258Y-41707412D01*
X105180255Y-41707425D01*
X105159778Y-41823553D01*
X105149500Y-41941032D01*
X105149500Y-42058967D01*
X105159778Y-42176446D01*
X105180255Y-42292574D01*
X105180258Y-42292587D01*
X105210774Y-42406479D01*
X105210777Y-42406489D01*
X105210778Y-42406490D01*
X105235706Y-42474980D01*
X105251117Y-42517319D01*
X105300941Y-42624167D01*
X105300950Y-42624186D01*
X105353046Y-42714420D01*
X105359909Y-42726306D01*
X105359918Y-42726321D01*
X105427559Y-42822922D01*
X105503344Y-42913238D01*
X105503350Y-42913245D01*
X105503358Y-42913254D01*
X105586746Y-42996642D01*
X105586755Y-42996650D01*
X105586761Y-42996655D01*
X105677077Y-43072440D01*
X105677083Y-43072444D01*
X105677084Y-43072445D01*
X105773685Y-43140086D01*
X105811143Y-43161712D01*
X105812703Y-43162613D01*
X105842853Y-43187028D01*
X105863983Y-43219565D01*
X105874024Y-43257039D01*
X105871993Y-43295782D01*
X105858090Y-43332000D01*
X105833675Y-43362150D01*
X105812703Y-43377387D01*
X105773693Y-43399909D01*
X105773678Y-43399918D01*
X105677077Y-43467559D01*
X105586761Y-43543344D01*
X105586737Y-43543366D01*
X105503366Y-43626737D01*
X105503344Y-43626761D01*
X105427559Y-43717077D01*
X105359918Y-43813678D01*
X105359909Y-43813693D01*
X105300953Y-43915808D01*
X105300941Y-43915832D01*
X105251117Y-44022680D01*
X105210774Y-44133520D01*
X105180258Y-44247412D01*
X105180255Y-44247425D01*
X105159778Y-44363553D01*
X105149500Y-44481032D01*
X105149500Y-44598967D01*
X105159778Y-44716446D01*
X105180255Y-44832574D01*
X105180258Y-44832587D01*
X105210774Y-44946479D01*
X105210777Y-44946489D01*
X105210778Y-44946490D01*
X105241699Y-45031445D01*
X105251117Y-45057319D01*
X105300941Y-45164167D01*
X105300950Y-45164186D01*
X105300953Y-45164191D01*
X105359909Y-45266306D01*
X105359918Y-45266321D01*
X105427559Y-45362922D01*
X105503344Y-45453238D01*
X105503350Y-45453245D01*
X105503358Y-45453254D01*
X105586746Y-45536642D01*
X105586755Y-45536650D01*
X105586761Y-45536655D01*
X105677077Y-45612440D01*
X105677083Y-45612444D01*
X105677084Y-45612445D01*
X105773685Y-45680086D01*
X105811143Y-45701712D01*
X105812703Y-45702613D01*
X105842853Y-45727028D01*
X105863983Y-45759565D01*
X105874024Y-45797039D01*
X105871993Y-45835782D01*
X105858090Y-45872000D01*
X105833675Y-45902150D01*
X105812703Y-45917387D01*
X105773693Y-45939909D01*
X105773678Y-45939918D01*
X105677077Y-46007559D01*
X105586761Y-46083344D01*
X105586737Y-46083366D01*
X105503366Y-46166737D01*
X105503344Y-46166761D01*
X105427559Y-46257077D01*
X105359918Y-46353678D01*
X105359909Y-46353693D01*
X105300953Y-46455808D01*
X105300941Y-46455832D01*
X105251117Y-46562680D01*
X105210774Y-46673520D01*
X105180258Y-46787412D01*
X105180255Y-46787425D01*
X105159778Y-46903553D01*
X105149500Y-47021032D01*
X105149500Y-47138967D01*
X105159778Y-47256446D01*
X105180255Y-47372574D01*
X105180258Y-47372587D01*
X105210774Y-47486479D01*
X105210777Y-47486489D01*
X105210778Y-47486490D01*
X105246338Y-47584191D01*
X105251117Y-47597319D01*
X105300941Y-47704167D01*
X105300950Y-47704186D01*
X105300953Y-47704191D01*
X105359909Y-47806306D01*
X105359918Y-47806321D01*
X105427559Y-47902922D01*
X105503344Y-47993238D01*
X105503350Y-47993245D01*
X105503358Y-47993254D01*
X105586746Y-48076642D01*
X105586755Y-48076650D01*
X105586761Y-48076655D01*
X105677077Y-48152440D01*
X105677083Y-48152444D01*
X105677084Y-48152445D01*
X105773685Y-48220086D01*
X105812703Y-48242613D01*
X105813204Y-48242902D01*
X105843354Y-48267317D01*
X105864484Y-48299854D01*
X105874525Y-48337327D01*
X105872494Y-48376070D01*
X105858591Y-48412289D01*
X105834176Y-48442439D01*
X105813204Y-48457676D01*
X105773957Y-48480334D01*
X105738626Y-48505072D01*
X106370590Y-49137036D01*
X106338935Y-49145519D01*
X106278381Y-49170601D01*
X106221619Y-49203373D01*
X106169620Y-49243273D01*
X106123273Y-49289620D01*
X106083373Y-49341619D01*
X106050601Y-49398381D01*
X106025519Y-49458935D01*
X106017036Y-49490590D01*
X105385072Y-48858626D01*
X105360334Y-48893957D01*
X105360328Y-48893967D01*
X105301403Y-48996028D01*
X105301390Y-48996055D01*
X105251582Y-49102867D01*
X105251579Y-49102875D01*
X105211257Y-49213656D01*
X105211257Y-49213658D01*
X105180745Y-49327526D01*
X105180744Y-49327533D01*
X105160274Y-49443619D01*
X105150000Y-49561054D01*
X105150000Y-49678945D01*
X105160274Y-49796380D01*
X105180744Y-49912466D01*
X105180745Y-49912473D01*
X105211257Y-50026341D01*
X105211257Y-50026343D01*
X105251579Y-50137124D01*
X105251582Y-50137132D01*
X105301390Y-50243944D01*
X105301398Y-50243960D01*
X105360332Y-50346036D01*
X105360348Y-50346062D01*
X105385072Y-50381371D01*
X105385074Y-50381372D01*
X106017036Y-49749409D01*
X106025519Y-49781065D01*
X106050601Y-49841619D01*
X106083373Y-49898381D01*
X106123273Y-49950380D01*
X106169620Y-49996727D01*
X106221619Y-50036627D01*
X106278381Y-50069399D01*
X106338935Y-50094481D01*
X106370590Y-50102962D01*
X105738626Y-50734925D01*
X105773948Y-50759658D01*
X105773955Y-50759662D01*
X105813704Y-50782611D01*
X105843854Y-50807026D01*
X105864984Y-50839563D01*
X105875026Y-50877037D01*
X105872995Y-50915779D01*
X105859093Y-50951998D01*
X105834678Y-50982148D01*
X105813706Y-50997385D01*
X105773965Y-51020329D01*
X105773957Y-51020334D01*
X105738626Y-51045072D01*
X106370590Y-51677036D01*
X106338935Y-51685519D01*
X106278381Y-51710601D01*
X106221619Y-51743373D01*
X106169620Y-51783273D01*
X106123273Y-51829620D01*
X106083373Y-51881619D01*
X106050601Y-51938381D01*
X106025519Y-51998935D01*
X106017036Y-52030590D01*
X105385072Y-51398626D01*
X105360334Y-51433957D01*
X105360328Y-51433967D01*
X105301403Y-51536028D01*
X105301390Y-51536055D01*
X105251582Y-51642867D01*
X105251579Y-51642875D01*
X105211257Y-51753656D01*
X105211257Y-51753658D01*
X105180745Y-51867526D01*
X105180744Y-51867533D01*
X105160274Y-51983619D01*
X105150000Y-52101054D01*
X105150000Y-52218945D01*
X105160274Y-52336380D01*
X105180744Y-52452466D01*
X105180745Y-52452473D01*
X105211257Y-52566341D01*
X105211257Y-52566343D01*
X105251579Y-52677124D01*
X105251582Y-52677132D01*
X105301390Y-52783944D01*
X105301398Y-52783960D01*
X105360332Y-52886036D01*
X105360348Y-52886062D01*
X105385072Y-52921371D01*
X105385074Y-52921372D01*
X106017036Y-52289409D01*
X106025519Y-52321065D01*
X106050601Y-52381619D01*
X106083373Y-52438381D01*
X106123273Y-52490380D01*
X106169620Y-52536727D01*
X106221619Y-52576627D01*
X106278381Y-52609399D01*
X106338935Y-52634481D01*
X106370590Y-52642963D01*
X106340373Y-52673181D01*
X106308987Y-52695985D01*
X106272090Y-52707973D01*
X106252692Y-52709500D01*
X106224287Y-52709500D01*
X106146254Y-52719774D01*
X106070219Y-52740148D01*
X106070217Y-52740148D01*
X106070216Y-52740149D01*
X106052573Y-52747456D01*
X105997493Y-52770271D01*
X105997491Y-52770272D01*
X105929317Y-52809632D01*
X105866869Y-52857549D01*
X105866862Y-52857555D01*
X89722555Y-69001861D01*
X89722551Y-69001865D01*
X89674629Y-69064321D01*
X89635274Y-69132488D01*
X89635270Y-69132496D01*
X89605148Y-69205219D01*
X89584774Y-69281254D01*
X89574500Y-69359287D01*
X89574500Y-72345683D01*
X89568431Y-72384001D01*
X89550818Y-72418568D01*
X89523385Y-72446001D01*
X89512501Y-72453069D01*
X89448685Y-72489914D01*
X89448684Y-72489915D01*
X89448678Y-72489918D01*
X89352077Y-72557559D01*
X89261761Y-72633344D01*
X89261737Y-72633366D01*
X89178366Y-72716737D01*
X89178344Y-72716761D01*
X89102559Y-72807077D01*
X89034918Y-72903678D01*
X89034910Y-72903691D01*
X89012096Y-72943206D01*
X88987681Y-72973355D01*
X88955143Y-72994485D01*
X88917669Y-73004525D01*
X88878927Y-73002494D01*
X88842708Y-72988590D01*
X88812559Y-72964175D01*
X88797323Y-72943204D01*
X88774667Y-72903963D01*
X88774658Y-72903948D01*
X88749925Y-72868626D01*
X88117962Y-73500589D01*
X88109481Y-73468935D01*
X88084399Y-73408381D01*
X88051627Y-73351619D01*
X88011727Y-73299620D01*
X87965380Y-73253273D01*
X87913381Y-73213373D01*
X87856619Y-73180601D01*
X87796065Y-73155519D01*
X87764408Y-73147036D01*
X88396372Y-72515073D01*
X88396371Y-72515072D01*
X88361062Y-72490348D01*
X88361036Y-72490332D01*
X88270547Y-72438088D01*
X88240397Y-72413673D01*
X88219267Y-72381136D01*
X88209226Y-72343662D01*
X88211257Y-72304920D01*
X88225160Y-72268701D01*
X88244858Y-72243030D01*
X88995500Y-71492387D01*
X88995510Y-71492379D01*
X89000878Y-71487010D01*
X89000881Y-71487009D01*
X89060487Y-71427403D01*
X89113043Y-71361499D01*
X89157891Y-71290125D01*
X89194465Y-71214179D01*
X89222305Y-71134615D01*
X89241062Y-71052434D01*
X89250500Y-70968669D01*
X89250500Y-63657853D01*
X89241434Y-63577387D01*
X89241063Y-63574094D01*
X89240306Y-63570778D01*
X89222305Y-63491907D01*
X89194465Y-63412343D01*
X89157891Y-63336397D01*
X89113043Y-63265023D01*
X89060487Y-63199119D01*
X89000881Y-63139513D01*
X89000880Y-63139512D01*
X88998454Y-63137086D01*
X88998435Y-63137068D01*
X88370514Y-62509147D01*
X88347710Y-62477761D01*
X88335722Y-62440864D01*
X88335722Y-62402068D01*
X88336061Y-62400036D01*
X88340222Y-62376444D01*
X88350500Y-62258964D01*
X88350500Y-62141036D01*
X88340222Y-62023556D01*
X88319744Y-61907420D01*
X88296320Y-61820000D01*
X88289225Y-61793520D01*
X88289223Y-61793516D01*
X88289222Y-61793510D01*
X88248888Y-61682694D01*
X88248883Y-61682685D01*
X88248882Y-61682680D01*
X88220325Y-61621441D01*
X88199050Y-61575814D01*
X88140086Y-61473685D01*
X88072445Y-61377084D01*
X88072444Y-61377083D01*
X88072440Y-61377077D01*
X87996655Y-61286761D01*
X87996650Y-61286755D01*
X87996642Y-61286746D01*
X87913254Y-61203358D01*
X87913245Y-61203350D01*
X87913238Y-61203344D01*
X87822922Y-61127559D01*
X87726321Y-61059918D01*
X87726319Y-61059917D01*
X87726315Y-61059914D01*
X87687292Y-61037384D01*
X87657147Y-61012973D01*
X87636017Y-60980436D01*
X87625975Y-60942962D01*
X87628006Y-60904220D01*
X87641908Y-60868001D01*
X87666323Y-60837851D01*
X87687290Y-60822616D01*
X87726315Y-60800086D01*
X87822916Y-60732445D01*
X87913254Y-60656642D01*
X87996642Y-60573254D01*
X88072445Y-60482916D01*
X88140086Y-60386315D01*
X88199050Y-60284186D01*
X88248888Y-60177306D01*
X88289222Y-60066490D01*
X88319744Y-59952580D01*
X88340222Y-59836444D01*
X88350500Y-59718964D01*
X88350500Y-59601036D01*
X88340222Y-59483556D01*
X88319744Y-59367420D01*
X88291683Y-59262694D01*
X88289225Y-59253520D01*
X88289223Y-59253516D01*
X88289222Y-59253510D01*
X88248888Y-59142694D01*
X88248883Y-59142685D01*
X88248882Y-59142680D01*
X88220325Y-59081441D01*
X88199050Y-59035814D01*
X88140086Y-58933685D01*
X88072445Y-58837084D01*
X88072444Y-58837083D01*
X88072440Y-58837077D01*
X87996655Y-58746761D01*
X87996650Y-58746755D01*
X87996642Y-58746746D01*
X87913254Y-58663358D01*
X87913245Y-58663350D01*
X87913238Y-58663344D01*
X87822922Y-58587559D01*
X87726321Y-58519918D01*
X87726319Y-58519917D01*
X87726315Y-58519914D01*
X87687292Y-58497384D01*
X87657147Y-58472973D01*
X87636017Y-58440436D01*
X87625975Y-58402962D01*
X87628006Y-58364220D01*
X87641908Y-58328001D01*
X87666323Y-58297851D01*
X87687290Y-58282616D01*
X87726315Y-58260086D01*
X87822916Y-58192445D01*
X87913254Y-58116642D01*
X87996642Y-58033254D01*
X88072445Y-57942916D01*
X88140086Y-57846315D01*
X88199050Y-57744186D01*
X88248888Y-57637306D01*
X88289222Y-57526490D01*
X88319744Y-57412580D01*
X88340222Y-57296444D01*
X88350500Y-57178964D01*
X88350500Y-57061036D01*
X88340222Y-56943556D01*
X88319744Y-56827420D01*
X88291683Y-56722694D01*
X88289225Y-56713520D01*
X88289223Y-56713516D01*
X88289222Y-56713510D01*
X88248888Y-56602694D01*
X88248883Y-56602685D01*
X88248882Y-56602680D01*
X88220325Y-56541441D01*
X88199050Y-56495814D01*
X88140086Y-56393685D01*
X88072445Y-56297084D01*
X88072444Y-56297083D01*
X88072440Y-56297077D01*
X87996655Y-56206761D01*
X87996650Y-56206755D01*
X87996642Y-56206746D01*
X87913254Y-56123358D01*
X87913245Y-56123350D01*
X87913238Y-56123344D01*
X87822922Y-56047559D01*
X87726321Y-55979918D01*
X87726319Y-55979917D01*
X87726315Y-55979914D01*
X87686792Y-55957095D01*
X87656644Y-55932682D01*
X87635515Y-55900145D01*
X87625474Y-55862671D01*
X87627505Y-55823928D01*
X87641408Y-55787709D01*
X87665823Y-55757559D01*
X87686796Y-55742322D01*
X87726047Y-55719660D01*
X87761371Y-55694925D01*
X87129409Y-55062963D01*
X87161065Y-55054481D01*
X87221619Y-55029399D01*
X87278381Y-54996627D01*
X87330380Y-54956727D01*
X87376727Y-54910380D01*
X87416627Y-54858381D01*
X87449399Y-54801619D01*
X87474481Y-54741065D01*
X87482963Y-54709409D01*
X88114925Y-55341371D01*
X88139663Y-55306043D01*
X88198601Y-55203960D01*
X88198609Y-55203944D01*
X88248417Y-55097132D01*
X88248420Y-55097124D01*
X88288742Y-54986343D01*
X88288742Y-54986341D01*
X88319254Y-54872473D01*
X88319255Y-54872466D01*
X88339725Y-54756380D01*
X88349999Y-54638945D01*
X88350000Y-54638943D01*
X88350000Y-54521057D01*
X88349999Y-54521054D01*
X88339725Y-54403619D01*
X88319255Y-54287533D01*
X88319254Y-54287526D01*
X88288742Y-54173658D01*
X88288742Y-54173656D01*
X88248420Y-54062875D01*
X88248417Y-54062867D01*
X88198609Y-53956055D01*
X88198601Y-53956039D01*
X88139667Y-53853963D01*
X88139658Y-53853948D01*
X88114925Y-53818626D01*
X87482962Y-54450589D01*
X87474481Y-54418935D01*
X87449399Y-54358381D01*
X87416627Y-54301619D01*
X87376727Y-54249620D01*
X87330380Y-54203273D01*
X87278381Y-54163373D01*
X87221619Y-54130601D01*
X87161065Y-54105519D01*
X87129409Y-54097037D01*
X87761372Y-53465074D01*
X87761371Y-53465072D01*
X87726062Y-53440348D01*
X87726046Y-53440338D01*
X87686794Y-53417676D01*
X87656645Y-53393261D01*
X87635515Y-53360724D01*
X87625474Y-53323250D01*
X87627505Y-53284507D01*
X87641408Y-53248288D01*
X87665823Y-53218139D01*
X87686787Y-53202906D01*
X87726315Y-53180086D01*
X87822916Y-53112445D01*
X87913254Y-53036642D01*
X87996642Y-52953254D01*
X88072445Y-52862916D01*
X88140086Y-52766315D01*
X88199050Y-52664186D01*
X88248888Y-52557306D01*
X88289222Y-52446490D01*
X88319744Y-52332580D01*
X88340222Y-52216444D01*
X88346043Y-52149900D01*
X88347097Y-52145672D01*
X88347097Y-52141312D01*
X88351768Y-52126934D01*
X88355426Y-52112262D01*
X88357737Y-52108563D01*
X88359085Y-52104415D01*
X88367971Y-52092184D01*
X88375984Y-52079361D01*
X88381875Y-52073043D01*
X97742216Y-42712705D01*
X97804579Y-42636716D01*
X97859193Y-42554980D01*
X97905533Y-42468284D01*
X97943151Y-42377464D01*
X97951740Y-42349152D01*
X97971687Y-42283395D01*
X97990865Y-42186981D01*
X97994210Y-42153019D01*
X98000501Y-42089151D01*
X98000501Y-41990848D01*
X98000500Y-41990837D01*
X98000500Y-34041100D01*
X98006569Y-34002782D01*
X98021398Y-33972209D01*
X98073883Y-33893661D01*
X98131802Y-33785302D01*
X98178821Y-33671789D01*
X98214487Y-33554213D01*
X98214489Y-33554203D01*
X98214492Y-33554192D01*
X98238457Y-33433707D01*
X98238457Y-33433705D01*
X98250500Y-33311430D01*
X98250500Y-31688569D01*
X98248663Y-31669911D01*
X98238457Y-31566292D01*
X98234702Y-31547412D01*
X98214492Y-31445807D01*
X98214489Y-31445796D01*
X98214488Y-31445793D01*
X98214487Y-31445787D01*
X98178821Y-31328211D01*
X98131802Y-31214698D01*
X98088472Y-31133634D01*
X98073889Y-31106350D01*
X98073888Y-31106348D01*
X98073883Y-31106339D01*
X98005622Y-31004180D01*
X98005618Y-31004174D01*
X97927672Y-30909197D01*
X97840802Y-30822327D01*
X97745825Y-30744381D01*
X97643667Y-30676121D01*
X97643666Y-30676120D01*
X97643661Y-30676117D01*
X97643656Y-30676114D01*
X97643649Y-30676110D01*
X97535309Y-30618201D01*
X97535304Y-30618199D01*
X97421794Y-30571180D01*
X97304203Y-30535510D01*
X97304192Y-30535507D01*
X97183706Y-30511542D01*
X97085517Y-30501872D01*
X97061433Y-30499500D01*
X96938567Y-30499500D01*
X96914483Y-30501872D01*
X96816294Y-30511542D01*
X96816292Y-30511542D01*
X96695807Y-30535507D01*
X96695796Y-30535510D01*
X96578205Y-30571180D01*
X96464695Y-30618199D01*
X96464690Y-30618201D01*
X96356350Y-30676110D01*
X96356332Y-30676121D01*
X96254174Y-30744381D01*
X96159197Y-30822327D01*
X96072327Y-30909197D01*
X95994381Y-31004174D01*
X95926121Y-31106332D01*
X95926110Y-31106350D01*
X95868201Y-31214690D01*
X95868199Y-31214695D01*
X95821180Y-31328205D01*
X95785510Y-31445796D01*
X95785507Y-31445807D01*
X95761542Y-31566292D01*
X95761542Y-31566294D01*
X95749500Y-31688569D01*
X95749500Y-33311430D01*
X95761542Y-33433705D01*
X95761542Y-33433707D01*
X95785507Y-33554192D01*
X95785510Y-33554203D01*
X95821180Y-33671794D01*
X95868199Y-33785304D01*
X95868201Y-33785309D01*
X95926110Y-33893649D01*
X95926121Y-33893667D01*
X95978602Y-33972209D01*
X95994844Y-34007441D01*
X95999500Y-34041100D01*
X95999500Y-41574216D01*
X95993431Y-41612534D01*
X95975818Y-41647101D01*
X95963181Y-41661897D01*
X88491132Y-49133945D01*
X88459746Y-49156749D01*
X88422849Y-49168737D01*
X88384053Y-49168737D01*
X88347156Y-49156749D01*
X88315770Y-49133945D01*
X88292966Y-49102559D01*
X88286929Y-49088675D01*
X88248420Y-48982875D01*
X88248417Y-48982867D01*
X88198609Y-48876055D01*
X88198601Y-48876039D01*
X88139667Y-48773963D01*
X88139658Y-48773948D01*
X88114925Y-48738626D01*
X87482962Y-49370590D01*
X87474481Y-49338935D01*
X87449399Y-49278381D01*
X87416627Y-49221619D01*
X87376727Y-49169620D01*
X87330380Y-49123273D01*
X87278381Y-49083373D01*
X87221619Y-49050601D01*
X87161065Y-49025519D01*
X87129409Y-49017037D01*
X87761372Y-48385074D01*
X87761371Y-48385072D01*
X87726062Y-48360348D01*
X87726046Y-48360338D01*
X87686794Y-48337676D01*
X87656645Y-48313261D01*
X87635515Y-48280724D01*
X87625474Y-48243250D01*
X87627505Y-48204507D01*
X87641408Y-48168288D01*
X87665823Y-48138139D01*
X87686787Y-48122906D01*
X87726315Y-48100086D01*
X87822916Y-48032445D01*
X87913254Y-47956642D01*
X87996642Y-47873254D01*
X88072445Y-47782916D01*
X88140086Y-47686315D01*
X88199050Y-47584186D01*
X88248888Y-47477306D01*
X88289222Y-47366490D01*
X88319744Y-47252580D01*
X88340222Y-47136444D01*
X88346043Y-47069900D01*
X88355426Y-47032262D01*
X88375984Y-46999361D01*
X88381875Y-46993043D01*
X92668368Y-42706550D01*
X92668390Y-42706531D01*
X92742211Y-42632710D01*
X92742216Y-42632705D01*
X92804579Y-42556716D01*
X92859193Y-42474980D01*
X92905532Y-42388285D01*
X92943151Y-42297465D01*
X92971687Y-42203395D01*
X92990865Y-42106981D01*
X93000500Y-42009151D01*
X93000500Y-38541100D01*
X93006569Y-38502782D01*
X93021398Y-38472209D01*
X93027307Y-38463366D01*
X93073883Y-38393661D01*
X93131802Y-38285302D01*
X93178821Y-38171789D01*
X93214487Y-38054213D01*
X93214489Y-38054203D01*
X93214492Y-38054192D01*
X93238457Y-37933707D01*
X93238457Y-37933705D01*
X93240137Y-37916655D01*
X93250500Y-37811433D01*
X93250500Y-36188567D01*
X93238457Y-36066292D01*
X93216328Y-35955040D01*
X93699500Y-35955040D01*
X93699500Y-36044959D01*
X93709565Y-36134287D01*
X93709567Y-36134303D01*
X93729572Y-36221950D01*
X93729574Y-36221956D01*
X93759267Y-36306818D01*
X93798282Y-36387831D01*
X93846110Y-36463949D01*
X93846112Y-36463952D01*
X93846115Y-36463956D01*
X93902173Y-36534251D01*
X93965749Y-36597827D01*
X94036044Y-36653885D01*
X94112173Y-36701720D01*
X94188436Y-36738446D01*
X94193181Y-36740732D01*
X94219988Y-36750111D01*
X94278044Y-36770426D01*
X94365700Y-36790433D01*
X94455040Y-36800499D01*
X94455041Y-36800500D01*
X94455045Y-36800500D01*
X94544959Y-36800500D01*
X94544959Y-36800499D01*
X94634300Y-36790433D01*
X94721956Y-36770426D01*
X94806821Y-36740731D01*
X94887827Y-36701720D01*
X94963956Y-36653885D01*
X95034251Y-36597827D01*
X95097827Y-36534251D01*
X95153885Y-36463956D01*
X95201720Y-36387827D01*
X95240731Y-36306821D01*
X95270426Y-36221956D01*
X95290433Y-36134300D01*
X95300500Y-36044955D01*
X95300500Y-35955045D01*
X95290433Y-35865700D01*
X95270426Y-35778044D01*
X95247317Y-35712000D01*
X95240732Y-35693181D01*
X95226179Y-35662962D01*
X95201720Y-35612173D01*
X95186532Y-35588001D01*
X95153889Y-35536050D01*
X95153887Y-35536048D01*
X95153885Y-35536044D01*
X95097827Y-35465749D01*
X95034251Y-35402173D01*
X94963956Y-35346115D01*
X94963952Y-35346112D01*
X94963949Y-35346110D01*
X94887831Y-35298282D01*
X94806818Y-35259267D01*
X94721956Y-35229574D01*
X94721950Y-35229572D01*
X94634303Y-35209567D01*
X94634287Y-35209565D01*
X94544959Y-35199500D01*
X94544955Y-35199500D01*
X94455045Y-35199500D01*
X94455041Y-35199500D01*
X94365712Y-35209565D01*
X94365696Y-35209567D01*
X94278049Y-35229572D01*
X94278043Y-35229574D01*
X94193181Y-35259267D01*
X94112168Y-35298282D01*
X94036050Y-35346110D01*
X93965748Y-35402173D01*
X93902173Y-35465748D01*
X93846110Y-35536050D01*
X93798282Y-35612168D01*
X93759267Y-35693181D01*
X93729574Y-35778043D01*
X93729572Y-35778049D01*
X93709567Y-35865696D01*
X93709565Y-35865712D01*
X93699500Y-35955040D01*
X93216328Y-35955040D01*
X93214487Y-35945787D01*
X93178821Y-35828211D01*
X93131802Y-35714698D01*
X93090292Y-35637039D01*
X93073889Y-35606350D01*
X93073888Y-35606348D01*
X93073883Y-35606339D01*
X93005622Y-35504180D01*
X93005618Y-35504174D01*
X92927672Y-35409197D01*
X92840802Y-35322327D01*
X92745825Y-35244381D01*
X92643667Y-35176121D01*
X92643666Y-35176120D01*
X92643661Y-35176117D01*
X92643656Y-35176114D01*
X92643649Y-35176110D01*
X92535309Y-35118201D01*
X92535304Y-35118199D01*
X92421794Y-35071180D01*
X92304203Y-35035510D01*
X92304192Y-35035507D01*
X92183706Y-35011542D01*
X92085517Y-35001872D01*
X92061433Y-34999500D01*
X91938567Y-34999500D01*
X91914483Y-35001872D01*
X91816294Y-35011542D01*
X91816292Y-35011542D01*
X91695807Y-35035507D01*
X91695796Y-35035510D01*
X91578205Y-35071180D01*
X91464695Y-35118199D01*
X91464690Y-35118201D01*
X91356350Y-35176110D01*
X91356332Y-35176121D01*
X91254174Y-35244381D01*
X91159197Y-35322327D01*
X91072327Y-35409197D01*
X90994381Y-35504174D01*
X90926121Y-35606332D01*
X90926110Y-35606350D01*
X90868201Y-35714690D01*
X90868199Y-35714695D01*
X90821180Y-35828205D01*
X90785510Y-35945796D01*
X90785507Y-35945807D01*
X90761542Y-36066292D01*
X90761542Y-36066294D01*
X90749500Y-36188569D01*
X90749500Y-37811430D01*
X90761542Y-37933705D01*
X90761542Y-37933707D01*
X90785507Y-38054192D01*
X90785510Y-38054203D01*
X90821180Y-38171794D01*
X90854404Y-38252000D01*
X90866892Y-38282150D01*
X90868199Y-38285304D01*
X90868201Y-38285309D01*
X90926110Y-38393649D01*
X90926114Y-38393656D01*
X90926117Y-38393661D01*
X90972687Y-38463358D01*
X90978602Y-38472209D01*
X90994844Y-38507441D01*
X90999500Y-38541100D01*
X90999500Y-41494217D01*
X90993431Y-41532535D01*
X90975818Y-41567102D01*
X90963181Y-41581898D01*
X86966969Y-45578109D01*
X86935583Y-45600913D01*
X86898686Y-45612901D01*
X86890097Y-45613956D01*
X86823551Y-45619778D01*
X86707425Y-45640255D01*
X86707422Y-45640255D01*
X86707420Y-45640256D01*
X86707415Y-45640257D01*
X86707412Y-45640258D01*
X86593520Y-45670774D01*
X86482680Y-45711117D01*
X86375832Y-45760941D01*
X86375808Y-45760953D01*
X86273693Y-45819909D01*
X86273678Y-45819918D01*
X86177077Y-45887559D01*
X86086761Y-45963344D01*
X86086737Y-45963366D01*
X86003366Y-46046737D01*
X86003344Y-46046761D01*
X85927559Y-46137077D01*
X85859918Y-46233678D01*
X85859909Y-46233693D01*
X85800953Y-46335808D01*
X85800941Y-46335832D01*
X85751117Y-46442680D01*
X85710774Y-46553520D01*
X85680258Y-46667412D01*
X85680255Y-46667425D01*
X85659778Y-46783553D01*
X85649500Y-46901032D01*
X85649500Y-47018967D01*
X85659778Y-47136446D01*
X85680255Y-47252574D01*
X85680258Y-47252587D01*
X85710774Y-47366479D01*
X85751117Y-47477319D01*
X85755394Y-47486490D01*
X85800950Y-47584186D01*
X85800953Y-47584191D01*
X85859909Y-47686306D01*
X85859918Y-47686321D01*
X85927559Y-47782922D01*
X86003344Y-47873238D01*
X86003350Y-47873245D01*
X86003358Y-47873254D01*
X86086746Y-47956642D01*
X86086755Y-47956650D01*
X86086761Y-47956655D01*
X86177077Y-48032440D01*
X86177083Y-48032444D01*
X86177084Y-48032445D01*
X86273685Y-48100086D01*
X86313202Y-48122901D01*
X86313204Y-48122902D01*
X86343354Y-48147317D01*
X86364484Y-48179854D01*
X86374525Y-48217327D01*
X86372494Y-48256070D01*
X86358591Y-48292289D01*
X86334176Y-48322439D01*
X86313204Y-48337676D01*
X86273957Y-48360334D01*
X86238626Y-48385072D01*
X86870590Y-49017036D01*
X86838935Y-49025519D01*
X86778381Y-49050601D01*
X86721619Y-49083373D01*
X86669620Y-49123273D01*
X86623273Y-49169620D01*
X86583373Y-49221619D01*
X86550601Y-49278381D01*
X86525519Y-49338935D01*
X86517036Y-49370590D01*
X85885072Y-48738626D01*
X85860334Y-48773957D01*
X85860328Y-48773967D01*
X85801403Y-48876028D01*
X85801390Y-48876055D01*
X85751582Y-48982867D01*
X85751579Y-48982875D01*
X85711257Y-49093656D01*
X85711257Y-49093658D01*
X85680745Y-49207526D01*
X85680744Y-49207533D01*
X85660274Y-49323619D01*
X85650000Y-49441054D01*
X85650000Y-49558945D01*
X85660274Y-49676380D01*
X85680744Y-49792466D01*
X85680745Y-49792473D01*
X85711257Y-49906341D01*
X85711257Y-49906343D01*
X85751579Y-50017124D01*
X85751582Y-50017132D01*
X85801390Y-50123944D01*
X85801398Y-50123960D01*
X85860332Y-50226036D01*
X85860348Y-50226062D01*
X85885072Y-50261371D01*
X85885074Y-50261372D01*
X86517036Y-49629409D01*
X86525519Y-49661065D01*
X86550601Y-49721619D01*
X86583373Y-49778381D01*
X86623273Y-49830380D01*
X86669620Y-49876727D01*
X86721619Y-49916627D01*
X86778381Y-49949399D01*
X86838935Y-49974481D01*
X86870590Y-49982962D01*
X86238626Y-50614925D01*
X86273948Y-50639658D01*
X86273963Y-50639667D01*
X86313204Y-50662323D01*
X86343354Y-50686738D01*
X86364483Y-50719274D01*
X86374525Y-50756748D01*
X86372494Y-50795491D01*
X86358591Y-50831710D01*
X86334176Y-50861860D01*
X86313206Y-50877096D01*
X86273691Y-50899910D01*
X86273678Y-50899918D01*
X86177077Y-50967559D01*
X86086761Y-51043344D01*
X86086737Y-51043366D01*
X86003366Y-51126737D01*
X86003344Y-51126761D01*
X85927559Y-51217077D01*
X85859918Y-51313678D01*
X85859909Y-51313693D01*
X85800953Y-51415808D01*
X85800941Y-51415832D01*
X85751117Y-51522680D01*
X85710774Y-51633520D01*
X85680258Y-51747412D01*
X85680255Y-51747425D01*
X85659778Y-51863553D01*
X85649500Y-51981032D01*
X85649500Y-52098967D01*
X85659778Y-52216446D01*
X85680255Y-52332574D01*
X85680258Y-52332587D01*
X85710774Y-52446479D01*
X85751117Y-52557319D01*
X85795009Y-52651445D01*
X85800950Y-52664186D01*
X85800953Y-52664191D01*
X85859909Y-52766306D01*
X85859918Y-52766321D01*
X85927559Y-52862922D01*
X86003344Y-52953238D01*
X86003350Y-52953245D01*
X86003358Y-52953254D01*
X86086746Y-53036642D01*
X86086755Y-53036650D01*
X86086761Y-53036655D01*
X86177077Y-53112440D01*
X86177083Y-53112444D01*
X86177084Y-53112445D01*
X86273685Y-53180086D01*
X86313202Y-53202901D01*
X86313204Y-53202902D01*
X86343354Y-53227317D01*
X86364484Y-53259854D01*
X86374525Y-53297327D01*
X86372494Y-53336070D01*
X86358591Y-53372289D01*
X86334176Y-53402439D01*
X86313204Y-53417676D01*
X86273957Y-53440334D01*
X86238626Y-53465072D01*
X86870590Y-54097036D01*
X86838935Y-54105519D01*
X86778381Y-54130601D01*
X86721619Y-54163373D01*
X86669620Y-54203273D01*
X86623273Y-54249620D01*
X86583373Y-54301619D01*
X86550601Y-54358381D01*
X86525519Y-54418935D01*
X86517036Y-54450590D01*
X85885072Y-53818626D01*
X85860334Y-53853957D01*
X85860328Y-53853967D01*
X85801403Y-53956028D01*
X85801390Y-53956055D01*
X85751582Y-54062867D01*
X85751579Y-54062875D01*
X85711257Y-54173656D01*
X85711257Y-54173658D01*
X85680745Y-54287526D01*
X85680744Y-54287533D01*
X85660274Y-54403619D01*
X85650000Y-54521054D01*
X85650000Y-54638945D01*
X85660274Y-54756380D01*
X85680744Y-54872466D01*
X85680745Y-54872473D01*
X85711257Y-54986341D01*
X85711257Y-54986343D01*
X85751579Y-55097124D01*
X85751582Y-55097132D01*
X85801390Y-55203944D01*
X85801398Y-55203960D01*
X85860332Y-55306036D01*
X85860348Y-55306062D01*
X85885072Y-55341371D01*
X85885074Y-55341372D01*
X86517036Y-54709409D01*
X86525519Y-54741065D01*
X86550601Y-54801619D01*
X86583373Y-54858381D01*
X86623273Y-54910380D01*
X86669620Y-54956727D01*
X86721619Y-54996627D01*
X86778381Y-55029399D01*
X86838935Y-55054481D01*
X86870590Y-55062962D01*
X86238626Y-55694925D01*
X86273948Y-55719658D01*
X86273963Y-55719667D01*
X86313204Y-55742323D01*
X86343354Y-55766738D01*
X86364483Y-55799274D01*
X86374525Y-55836748D01*
X86372494Y-55875491D01*
X86358591Y-55911710D01*
X86334176Y-55941860D01*
X86313206Y-55957096D01*
X86273691Y-55979910D01*
X86273678Y-55979918D01*
X86177077Y-56047559D01*
X86086761Y-56123344D01*
X86086737Y-56123366D01*
X86003366Y-56206737D01*
X86003344Y-56206761D01*
X85927559Y-56297077D01*
X85859918Y-56393678D01*
X85859909Y-56393693D01*
X85800953Y-56495808D01*
X85800941Y-56495832D01*
X85751117Y-56602680D01*
X85710774Y-56713520D01*
X85680258Y-56827412D01*
X85680255Y-56827425D01*
X85659778Y-56943553D01*
X85649500Y-57061032D01*
X85649500Y-57178967D01*
X85659778Y-57296446D01*
X85680255Y-57412574D01*
X85680258Y-57412587D01*
X85710774Y-57526479D01*
X85710777Y-57526489D01*
X85710778Y-57526490D01*
X85743655Y-57616819D01*
X85751117Y-57637319D01*
X85800941Y-57744167D01*
X85800950Y-57744186D01*
X85800953Y-57744191D01*
X85859909Y-57846306D01*
X85859918Y-57846321D01*
X85927559Y-57942922D01*
X86003344Y-58033238D01*
X86003350Y-58033245D01*
X86003358Y-58033254D01*
X86086746Y-58116642D01*
X86086755Y-58116650D01*
X86086761Y-58116655D01*
X86177077Y-58192440D01*
X86177083Y-58192444D01*
X86177084Y-58192445D01*
X86273685Y-58260086D01*
X86311143Y-58281712D01*
X86312703Y-58282613D01*
X86342853Y-58307028D01*
X86363983Y-58339565D01*
X86374024Y-58377039D01*
X86371993Y-58415782D01*
X86358090Y-58452000D01*
X86333675Y-58482150D01*
X86312703Y-58497387D01*
X86273693Y-58519909D01*
X86273678Y-58519918D01*
X86177077Y-58587559D01*
X86086761Y-58663344D01*
X86086737Y-58663366D01*
X86003366Y-58746737D01*
X86003344Y-58746761D01*
X85927559Y-58837077D01*
X85859918Y-58933678D01*
X85859909Y-58933693D01*
X85800953Y-59035808D01*
X85800941Y-59035832D01*
X85751117Y-59142680D01*
X85710774Y-59253520D01*
X85680258Y-59367412D01*
X85680255Y-59367425D01*
X85659778Y-59483553D01*
X85649500Y-59601032D01*
X85649500Y-59718967D01*
X85659778Y-59836446D01*
X85680255Y-59952574D01*
X85680258Y-59952587D01*
X85710774Y-60066479D01*
X85751117Y-60177319D01*
X85800941Y-60284167D01*
X85800950Y-60284186D01*
X85800953Y-60284191D01*
X85859909Y-60386306D01*
X85859918Y-60386321D01*
X85927559Y-60482922D01*
X86003344Y-60573238D01*
X86003350Y-60573245D01*
X86003358Y-60573254D01*
X86086746Y-60656642D01*
X86086755Y-60656650D01*
X86086761Y-60656655D01*
X86177077Y-60732440D01*
X86177083Y-60732444D01*
X86177084Y-60732445D01*
X86273685Y-60800086D01*
X86311143Y-60821712D01*
X86312703Y-60822613D01*
X86342853Y-60847028D01*
X86363983Y-60879565D01*
X86374024Y-60917039D01*
X86371993Y-60955782D01*
X86358090Y-60992000D01*
X86333675Y-61022150D01*
X86312703Y-61037387D01*
X86273693Y-61059909D01*
X86273678Y-61059918D01*
X86177077Y-61127559D01*
X86086761Y-61203344D01*
X86086737Y-61203366D01*
X86003366Y-61286737D01*
X86003344Y-61286761D01*
X85927559Y-61377077D01*
X85859918Y-61473678D01*
X85859909Y-61473693D01*
X85800953Y-61575808D01*
X85800941Y-61575832D01*
X85751117Y-61682680D01*
X85710774Y-61793520D01*
X85680258Y-61907412D01*
X85680255Y-61907425D01*
X85659778Y-62023553D01*
X85649500Y-62141032D01*
X85649500Y-62258967D01*
X85659778Y-62376446D01*
X85680255Y-62492574D01*
X85680258Y-62492587D01*
X85710774Y-62606479D01*
X85710777Y-62606489D01*
X85710778Y-62606490D01*
X85735187Y-62673554D01*
X85751117Y-62717319D01*
X85795009Y-62811445D01*
X85800950Y-62824186D01*
X85800953Y-62824191D01*
X85859909Y-62926306D01*
X85859918Y-62926321D01*
X85927559Y-63022922D01*
X86003344Y-63113238D01*
X86003350Y-63113245D01*
X86003358Y-63113254D01*
X86086746Y-63196642D01*
X86086755Y-63196650D01*
X86086761Y-63196655D01*
X86177077Y-63272440D01*
X86177083Y-63272444D01*
X86177084Y-63272445D01*
X86273685Y-63340086D01*
X86311143Y-63361712D01*
X86312703Y-63362613D01*
X86342853Y-63387028D01*
X86363983Y-63419565D01*
X86374024Y-63457039D01*
X86371993Y-63495782D01*
X86358090Y-63532000D01*
X86333675Y-63562150D01*
X86312703Y-63577387D01*
X86273693Y-63599909D01*
X86273678Y-63599918D01*
X86177077Y-63667559D01*
X86086761Y-63743344D01*
X86086737Y-63743366D01*
X86003366Y-63826737D01*
X86003344Y-63826761D01*
X85927559Y-63917077D01*
X85859918Y-64013678D01*
X85859909Y-64013693D01*
X85800953Y-64115808D01*
X85800941Y-64115832D01*
X85751117Y-64222680D01*
X85710774Y-64333520D01*
X85680258Y-64447412D01*
X85680255Y-64447425D01*
X85659778Y-64563553D01*
X85649500Y-64681032D01*
X85649500Y-64798967D01*
X85659778Y-64916446D01*
X85680255Y-65032574D01*
X85680258Y-65032587D01*
X85710774Y-65146479D01*
X85751117Y-65257319D01*
X85755394Y-65266490D01*
X85800950Y-65364186D01*
X85800953Y-65364191D01*
X85859909Y-65466306D01*
X85859918Y-65466321D01*
X85927559Y-65562922D01*
X86003344Y-65653238D01*
X86003350Y-65653245D01*
X86003358Y-65653254D01*
X86086746Y-65736642D01*
X86086755Y-65736650D01*
X86086761Y-65736655D01*
X86177077Y-65812440D01*
X86177083Y-65812444D01*
X86177084Y-65812445D01*
X86273685Y-65880086D01*
X86311143Y-65901712D01*
X86312703Y-65902613D01*
X86342853Y-65927028D01*
X86363983Y-65959565D01*
X86374024Y-65997039D01*
X86371993Y-66035782D01*
X86358090Y-66072000D01*
X86333675Y-66102150D01*
X86312703Y-66117387D01*
X86273693Y-66139909D01*
X86273678Y-66139918D01*
X86177077Y-66207559D01*
X86086761Y-66283344D01*
X86086737Y-66283366D01*
X86003366Y-66366737D01*
X86003344Y-66366761D01*
X85927559Y-66457077D01*
X85859918Y-66553678D01*
X85859909Y-66553693D01*
X85800953Y-66655808D01*
X85800941Y-66655832D01*
X85751117Y-66762680D01*
X85710774Y-66873520D01*
X85680258Y-66987412D01*
X85680255Y-66987425D01*
X85659778Y-67103553D01*
X85649500Y-67221032D01*
X85649500Y-67338967D01*
X85659778Y-67456446D01*
X85680255Y-67572574D01*
X85680258Y-67572587D01*
X85710774Y-67686479D01*
X85751117Y-67797319D01*
X85769840Y-67837470D01*
X85800950Y-67904186D01*
X85800953Y-67904191D01*
X85859909Y-68006306D01*
X85859918Y-68006321D01*
X85927559Y-68102922D01*
X86003344Y-68193238D01*
X86003350Y-68193245D01*
X86003358Y-68193254D01*
X86086746Y-68276642D01*
X86086755Y-68276650D01*
X86086761Y-68276655D01*
X86177077Y-68352440D01*
X86177083Y-68352444D01*
X86177084Y-68352445D01*
X86273685Y-68420086D01*
X86375814Y-68479050D01*
X86421441Y-68500325D01*
X86482680Y-68528882D01*
X86482685Y-68528883D01*
X86482694Y-68528888D01*
X86593510Y-68569222D01*
X86593516Y-68569223D01*
X86593520Y-68569225D01*
X86624536Y-68577535D01*
X86707420Y-68599744D01*
X86823556Y-68620222D01*
X86941034Y-68630499D01*
X86941035Y-68630500D01*
X86941036Y-68630500D01*
X87058965Y-68630500D01*
X87058965Y-68630499D01*
X87176444Y-68620222D01*
X87292580Y-68599744D01*
X87406490Y-68569222D01*
X87517306Y-68528888D01*
X87573098Y-68502871D01*
X87610388Y-68492179D01*
X87649160Y-68493533D01*
X87685616Y-68506802D01*
X87716187Y-68530687D01*
X87737882Y-68562850D01*
X87748576Y-68600143D01*
X87749500Y-68615255D01*
X87749500Y-70564292D01*
X87743431Y-70602610D01*
X87725818Y-70637177D01*
X87713181Y-70651973D01*
X85836102Y-72529051D01*
X85836091Y-72529062D01*
X85834123Y-72531031D01*
X85834119Y-72531035D01*
X85774513Y-72590641D01*
X85740448Y-72633358D01*
X85737865Y-72636596D01*
X85737854Y-72636609D01*
X85721968Y-72656529D01*
X85721956Y-72656547D01*
X85677111Y-72727915D01*
X85640534Y-72803867D01*
X85612695Y-72883428D01*
X85612693Y-72883434D01*
X85593936Y-72965614D01*
X85584499Y-73049369D01*
X81200500Y-73049369D01*
X81200500Y-31443217D01*
X83199500Y-31443217D01*
X83199500Y-31556782D01*
X83208841Y-31663553D01*
X83209398Y-31669911D01*
X83229117Y-31781748D01*
X83258509Y-31891440D01*
X83258510Y-31891442D01*
X83258510Y-31891443D01*
X83297355Y-31998167D01*
X83345334Y-32101058D01*
X83345343Y-32101076D01*
X83402124Y-32199424D01*
X83467261Y-32292448D01*
X83467265Y-32292453D01*
X83540259Y-32379445D01*
X83620554Y-32459740D01*
X83620558Y-32459743D01*
X83707552Y-32532739D01*
X83800576Y-32597876D01*
X83898924Y-32654657D01*
X83898938Y-32654663D01*
X83898941Y-32654665D01*
X84001832Y-32702644D01*
X84001837Y-32702645D01*
X84001846Y-32702650D01*
X84108560Y-32741491D01*
X84218252Y-32770883D01*
X84330089Y-32790602D01*
X84443217Y-32800499D01*
X84443218Y-32800500D01*
X84443219Y-32800500D01*
X84556782Y-32800500D01*
X84556782Y-32800499D01*
X84669911Y-32790602D01*
X84781748Y-32770883D01*
X84891440Y-32741491D01*
X84998154Y-32702650D01*
X85101076Y-32654657D01*
X85199424Y-32597876D01*
X85292448Y-32532739D01*
X85379442Y-32459743D01*
X85459743Y-32379442D01*
X85532739Y-32292448D01*
X85597876Y-32199424D01*
X85654657Y-32101076D01*
X85702650Y-31998154D01*
X85741491Y-31891440D01*
X85770883Y-31781748D01*
X85790602Y-31669911D01*
X85800500Y-31556781D01*
X85800500Y-31443219D01*
X85790602Y-31330089D01*
X85770883Y-31218252D01*
X85741491Y-31108560D01*
X85702650Y-31001846D01*
X85702645Y-31001837D01*
X85702644Y-31001832D01*
X85654665Y-30898941D01*
X85654653Y-30898917D01*
X85632799Y-30861065D01*
X85597876Y-30800576D01*
X85532739Y-30707552D01*
X85507429Y-30677388D01*
X85459740Y-30620554D01*
X85379445Y-30540259D01*
X85323872Y-30493628D01*
X85292453Y-30467265D01*
X85292451Y-30467264D01*
X85292448Y-30467261D01*
X85199424Y-30402124D01*
X85148010Y-30372440D01*
X85101082Y-30345346D01*
X85101058Y-30345334D01*
X84998167Y-30297355D01*
X84998156Y-30297351D01*
X84998154Y-30297350D01*
X84891440Y-30258509D01*
X84821899Y-30239875D01*
X84781749Y-30229117D01*
X84781742Y-30229116D01*
X84669923Y-30209400D01*
X84669916Y-30209399D01*
X84669911Y-30209398D01*
X84669909Y-30209397D01*
X84669904Y-30209397D01*
X84556782Y-30199500D01*
X84556781Y-30199500D01*
X84443219Y-30199500D01*
X84443218Y-30199500D01*
X84330095Y-30209397D01*
X84330076Y-30209400D01*
X84218257Y-30229116D01*
X84218250Y-30229117D01*
X84159466Y-30244868D01*
X84108560Y-30258509D01*
X84108557Y-30258510D01*
X84108556Y-30258510D01*
X84001832Y-30297355D01*
X83898941Y-30345334D01*
X83898917Y-30345346D01*
X83800579Y-30402122D01*
X83707546Y-30467265D01*
X83620554Y-30540259D01*
X83540259Y-30620554D01*
X83467265Y-30707546D01*
X83402122Y-30800579D01*
X83345346Y-30898917D01*
X83345334Y-30898941D01*
X83297355Y-31001832D01*
X83259320Y-31106332D01*
X83258509Y-31108560D01*
X83251790Y-31133635D01*
X83229117Y-31218250D01*
X83229116Y-31218257D01*
X83209400Y-31330076D01*
X83209397Y-31330095D01*
X83199500Y-31443217D01*
X81200500Y-31443217D01*
X81200500Y-29502424D01*
X81200596Y-29497557D01*
X81201428Y-29476380D01*
X81204876Y-29388595D01*
X90750000Y-29388595D01*
X90750000Y-29950000D01*
X91500000Y-29950000D01*
X91500000Y-30450000D01*
X90750000Y-30450000D01*
X90750000Y-31011404D01*
X90762039Y-31133634D01*
X90762039Y-31133635D01*
X90785997Y-31254085D01*
X90821651Y-31371621D01*
X90868651Y-31485088D01*
X90926549Y-31593406D01*
X90994783Y-31695526D01*
X91072698Y-31790466D01*
X91159533Y-31877301D01*
X91254473Y-31955216D01*
X91356593Y-32023450D01*
X91464911Y-32081348D01*
X91578378Y-32128348D01*
X91695914Y-32164002D01*
X91750000Y-32174759D01*
X91750000Y-31133013D01*
X91778381Y-31149399D01*
X91838935Y-31174481D01*
X91902246Y-31191445D01*
X91967228Y-31200000D01*
X92032772Y-31200000D01*
X92097754Y-31191445D01*
X92161065Y-31174481D01*
X92221619Y-31149399D01*
X92250000Y-31133013D01*
X92250000Y-32174759D01*
X92304085Y-32164002D01*
X92421621Y-32128348D01*
X92535088Y-32081348D01*
X92643406Y-32023450D01*
X92745526Y-31955216D01*
X92840466Y-31877301D01*
X92927301Y-31790466D01*
X93005216Y-31695526D01*
X93073450Y-31593406D01*
X93131348Y-31485088D01*
X93178348Y-31371621D01*
X93214002Y-31254085D01*
X93237960Y-31133635D01*
X93237960Y-31133634D01*
X93250000Y-31011404D01*
X93250000Y-30450000D01*
X92500000Y-30450000D01*
X92500000Y-29955040D01*
X93699500Y-29955040D01*
X93699500Y-30044959D01*
X93709565Y-30134287D01*
X93709567Y-30134303D01*
X93729572Y-30221950D01*
X93729574Y-30221956D01*
X93759267Y-30306818D01*
X93798282Y-30387831D01*
X93846110Y-30463949D01*
X93846112Y-30463952D01*
X93846115Y-30463956D01*
X93902173Y-30534251D01*
X93965749Y-30597827D01*
X94036044Y-30653885D01*
X94036048Y-30653887D01*
X94036050Y-30653889D01*
X94073449Y-30677388D01*
X94112173Y-30701720D01*
X94176652Y-30732772D01*
X94193181Y-30740732D01*
X94203610Y-30744381D01*
X94278044Y-30770426D01*
X94365700Y-30790433D01*
X94455040Y-30800499D01*
X94455041Y-30800500D01*
X94455045Y-30800500D01*
X94544959Y-30800500D01*
X94544959Y-30800499D01*
X94634300Y-30790433D01*
X94721956Y-30770426D01*
X94806821Y-30740731D01*
X94887827Y-30701720D01*
X94963956Y-30653885D01*
X95034251Y-30597827D01*
X95097827Y-30534251D01*
X95153885Y-30463956D01*
X95201720Y-30387827D01*
X95240731Y-30306821D01*
X95270426Y-30221956D01*
X95290433Y-30134300D01*
X95300500Y-30044955D01*
X95300500Y-29955045D01*
X95290433Y-29865700D01*
X95270426Y-29778044D01*
X95245337Y-29706343D01*
X95240732Y-29693181D01*
X95210488Y-29630380D01*
X95201720Y-29612173D01*
X95201717Y-29612168D01*
X95153889Y-29536050D01*
X95153887Y-29536048D01*
X95153885Y-29536044D01*
X95097827Y-29465749D01*
X95034251Y-29402173D01*
X94963956Y-29346115D01*
X94963953Y-29346113D01*
X94963948Y-29346109D01*
X94959551Y-29343347D01*
X94959550Y-29343346D01*
X94959549Y-29343346D01*
X94887831Y-29298282D01*
X94806818Y-29259267D01*
X94721956Y-29229574D01*
X94721950Y-29229572D01*
X94634303Y-29209567D01*
X94634287Y-29209565D01*
X94544959Y-29199500D01*
X94544955Y-29199500D01*
X94455045Y-29199500D01*
X94455041Y-29199500D01*
X94365712Y-29209565D01*
X94365696Y-29209567D01*
X94278049Y-29229572D01*
X94278043Y-29229574D01*
X94193181Y-29259267D01*
X94112168Y-29298282D01*
X94036050Y-29346110D01*
X93965748Y-29402173D01*
X93902173Y-29465748D01*
X93846110Y-29536050D01*
X93798282Y-29612168D01*
X93759267Y-29693181D01*
X93729574Y-29778043D01*
X93729572Y-29778049D01*
X93709567Y-29865696D01*
X93709565Y-29865712D01*
X93699500Y-29955040D01*
X92500000Y-29955040D01*
X92500000Y-29950000D01*
X93250000Y-29950000D01*
X93250000Y-29388595D01*
X93237960Y-29266365D01*
X93237960Y-29266364D01*
X93214002Y-29145914D01*
X93178348Y-29028378D01*
X93131348Y-28914911D01*
X93073450Y-28806593D01*
X93005216Y-28704473D01*
X92927301Y-28609533D01*
X92840466Y-28522698D01*
X92745526Y-28444783D01*
X92643406Y-28376549D01*
X92577320Y-28341225D01*
X92535088Y-28318651D01*
X92421621Y-28271651D01*
X92304087Y-28235998D01*
X92250000Y-28225239D01*
X92250000Y-29266987D01*
X92221619Y-29250601D01*
X92161065Y-29225519D01*
X92097754Y-29208555D01*
X92032772Y-29200000D01*
X91967228Y-29200000D01*
X91902246Y-29208555D01*
X91838935Y-29225519D01*
X91778381Y-29250601D01*
X91750000Y-29266987D01*
X91750000Y-28225239D01*
X91749999Y-28225239D01*
X91695912Y-28235998D01*
X91578378Y-28271651D01*
X91464911Y-28318651D01*
X91356593Y-28376549D01*
X91254473Y-28444783D01*
X91159533Y-28522698D01*
X91072698Y-28609533D01*
X90994783Y-28704473D01*
X90926549Y-28806593D01*
X90868651Y-28914911D01*
X90821651Y-29028378D01*
X90785997Y-29145914D01*
X90762039Y-29266364D01*
X90762039Y-29266365D01*
X90750000Y-29388595D01*
X81204876Y-29388595D01*
X81205856Y-29363660D01*
X81206617Y-29353992D01*
X81222083Y-29223324D01*
X81223599Y-29213748D01*
X81249275Y-29084663D01*
X81251540Y-29075234D01*
X81287252Y-28948609D01*
X81290260Y-28939350D01*
X81335795Y-28815922D01*
X81339510Y-28806951D01*
X81394603Y-28687445D01*
X81399010Y-28678798D01*
X81463299Y-28564003D01*
X81468381Y-28555711D01*
X81490440Y-28522698D01*
X81541464Y-28446333D01*
X81547185Y-28438459D01*
X81587941Y-28386761D01*
X81628638Y-28335136D01*
X81634957Y-28327739D01*
X81643358Y-28318651D01*
X81724272Y-28231118D01*
X81731118Y-28224272D01*
X81827744Y-28134952D01*
X81835142Y-28128634D01*
X81869685Y-28101403D01*
X81938463Y-28047182D01*
X81946337Y-28041462D01*
X82055718Y-27968376D01*
X82064003Y-27963299D01*
X82178798Y-27899010D01*
X82187445Y-27894603D01*
X82306951Y-27839510D01*
X82315922Y-27835795D01*
X82439359Y-27790256D01*
X82448609Y-27787252D01*
X82529720Y-27764376D01*
X82575237Y-27751539D01*
X82584663Y-27749275D01*
X82713748Y-27723599D01*
X82723324Y-27722083D01*
X82853992Y-27706617D01*
X82863664Y-27705856D01*
X82987396Y-27700995D01*
X82997558Y-27700596D01*
X83002425Y-27700500D01*
X83022591Y-27700500D01*
X139477409Y-27700500D01*
X139497575Y-27700500D01*
X139502442Y-27700596D01*
G37*
%TD.AperFunction*%
%TD*%
M02*
