M48
; DRILL file KiCad 10.0.4 date 2026-07-10T16:40:35
; FORMAT={-:-/ absolute / metric / decimal}
; #@! TF.CreationDate,2026-07-10T16:40:35+03:00
; #@! TF.GenerationSoftware,Kicad,Pcbnew,10.0.4
; #@! TF.FileFunction,Plated,1,2,PTH
FMAT,2
METRIC
; #@! TA.AperFunction,Plated,PTH,ViaDrill
T1C0.300
; #@! TA.AperFunction,Plated,PTH,ComponentDrill
T2C1.000
%
G90
G05
T1
X114.0Y-49.5
X115.0Y-50.0
X116.0Y-50.5
T2
X87.0Y-46.96
X87.0Y-49.5
X87.0Y-52.04
X87.0Y-54.58
X87.0Y-57.12
X87.0Y-59.66
X87.0Y-62.2
X87.0Y-64.74
X87.0Y-67.28
X87.635Y-73.63
X90.175Y-73.63
X92.715Y-73.63
X95.255Y-73.63
X97.795Y-73.63
X100.335Y-73.63
X106.5Y-29.3
X106.5Y-31.84
X106.5Y-34.38
X106.5Y-36.92
X106.5Y-39.46
X106.5Y-42.0
X106.5Y-44.54
X106.5Y-47.08
X106.5Y-49.62
X106.5Y-52.16
X106.5Y-54.7
X106.5Y-57.24
X106.5Y-59.78
X106.5Y-62.32
X106.5Y-64.86
X106.5Y-67.4
X106.5Y-69.94
X106.5Y-72.48
X106.5Y-75.02
X106.5Y-77.56
X132.0Y-29.3
X132.0Y-31.84
X132.0Y-34.38
X132.0Y-36.92
X132.0Y-39.46
X132.0Y-42.0
X132.0Y-44.54
X132.0Y-47.08
X132.0Y-49.62
X132.0Y-52.16
X132.0Y-54.7
X132.0Y-57.24
X132.0Y-59.78
X132.0Y-62.32
X132.0Y-64.86
X132.0Y-67.4
X132.0Y-69.94
X132.0Y-72.48
X132.0Y-75.02
X132.0Y-77.56
T2
X92.0Y-29.7G85X92.0Y-30.7
G05
X92.0Y-36.5G85X92.0Y-37.5
G05
X97.0Y-32.0G85X97.0Y-33.0
G05
M30
