%TF.GenerationSoftware,KiCad,Pcbnew,10.0.4*%
%TF.CreationDate,2026-07-10T16:38:57+03:00*%
%TF.ProjectId,AuxPlay,41757850-6c61-4792-9e6b-696361645f70,rev?*%
%TF.SameCoordinates,Original*%
%TF.FileFunction,Legend,Top*%
%TF.FilePolarity,Positive*%
%FSLAX46Y46*%
G04 Gerber Fmt 4.6, Leading zero omitted, Abs format (unit mm)*
G04 Created by KiCad (PCBNEW 10.0.4) date 2026-07-10 16:38:57*
%MOMM*%
%LPD*%
G01*
G04 APERTURE LIST*
%ADD10C,0.150000*%
%ADD11C,0.100000*%
%ADD12C,0.120000*%
%ADD13C,0.127000*%
%ADD14C,0.200000*%
%ADD15C,1.700000*%
%ADD16C,2.200000*%
%ADD17C,1.200000*%
%ADD18O,1.500000X3.000000*%
G04 APERTURE END LIST*
D10*
X91154104Y-68039285D02*
X91154104Y-67563095D01*
X91439819Y-68134523D02*
X90439819Y-67801190D01*
X90439819Y-67801190D02*
X91439819Y-67467857D01*
X91439819Y-66610714D02*
X91439819Y-67182142D01*
X91439819Y-66896428D02*
X90439819Y-66896428D01*
X90439819Y-66896428D02*
X90582676Y-66991666D01*
X90582676Y-66991666D02*
X90677914Y-67086904D01*
X90677914Y-67086904D02*
X90725533Y-67182142D01*
X83166666Y-76304819D02*
X82833333Y-75828628D01*
X82595238Y-76304819D02*
X82595238Y-75304819D01*
X82595238Y-75304819D02*
X82976190Y-75304819D01*
X82976190Y-75304819D02*
X83071428Y-75352438D01*
X83071428Y-75352438D02*
X83119047Y-75400057D01*
X83119047Y-75400057D02*
X83166666Y-75495295D01*
X83166666Y-75495295D02*
X83166666Y-75638152D01*
X83166666Y-75638152D02*
X83119047Y-75733390D01*
X83119047Y-75733390D02*
X83071428Y-75781009D01*
X83071428Y-75781009D02*
X82976190Y-75828628D01*
X82976190Y-75828628D02*
X82595238Y-75828628D01*
X83595238Y-75781009D02*
X83928571Y-75781009D01*
X84071428Y-76304819D02*
X83595238Y-76304819D01*
X83595238Y-76304819D02*
X83595238Y-75304819D01*
X83595238Y-75304819D02*
X84071428Y-75304819D01*
X84833333Y-75781009D02*
X84500000Y-75781009D01*
X84500000Y-76304819D02*
X84500000Y-75304819D01*
X84500000Y-75304819D02*
X84976190Y-75304819D01*
X85500000Y-75304819D02*
X85500000Y-75542914D01*
X85261905Y-75447676D02*
X85500000Y-75542914D01*
X85500000Y-75542914D02*
X85738095Y-75447676D01*
X85357143Y-75733390D02*
X85500000Y-75542914D01*
X85500000Y-75542914D02*
X85642857Y-75733390D01*
X86261905Y-75304819D02*
X86261905Y-75542914D01*
X86023810Y-75447676D02*
X86261905Y-75542914D01*
X86261905Y-75542914D02*
X86500000Y-75447676D01*
X86119048Y-75733390D02*
X86261905Y-75542914D01*
X86261905Y-75542914D02*
X86404762Y-75733390D01*
X83166666Y-28804819D02*
X82833333Y-28328628D01*
X82595238Y-28804819D02*
X82595238Y-27804819D01*
X82595238Y-27804819D02*
X82976190Y-27804819D01*
X82976190Y-27804819D02*
X83071428Y-27852438D01*
X83071428Y-27852438D02*
X83119047Y-27900057D01*
X83119047Y-27900057D02*
X83166666Y-27995295D01*
X83166666Y-27995295D02*
X83166666Y-28138152D01*
X83166666Y-28138152D02*
X83119047Y-28233390D01*
X83119047Y-28233390D02*
X83071428Y-28281009D01*
X83071428Y-28281009D02*
X82976190Y-28328628D01*
X82976190Y-28328628D02*
X82595238Y-28328628D01*
X83595238Y-28281009D02*
X83928571Y-28281009D01*
X84071428Y-28804819D02*
X83595238Y-28804819D01*
X83595238Y-28804819D02*
X83595238Y-27804819D01*
X83595238Y-27804819D02*
X84071428Y-27804819D01*
X84833333Y-28281009D02*
X84500000Y-28281009D01*
X84500000Y-28804819D02*
X84500000Y-27804819D01*
X84500000Y-27804819D02*
X84976190Y-27804819D01*
X85500000Y-27804819D02*
X85500000Y-28042914D01*
X85261905Y-27947676D02*
X85500000Y-28042914D01*
X85500000Y-28042914D02*
X85738095Y-27947676D01*
X85357143Y-28233390D02*
X85500000Y-28042914D01*
X85500000Y-28042914D02*
X85642857Y-28233390D01*
X86261905Y-27804819D02*
X86261905Y-28042914D01*
X86023810Y-27947676D02*
X86261905Y-28042914D01*
X86261905Y-28042914D02*
X86500000Y-27947676D01*
X86119048Y-28233390D02*
X86261905Y-28042914D01*
X86261905Y-28042914D02*
X86404762Y-28233390D01*
X136666666Y-76304819D02*
X136333333Y-75828628D01*
X136095238Y-76304819D02*
X136095238Y-75304819D01*
X136095238Y-75304819D02*
X136476190Y-75304819D01*
X136476190Y-75304819D02*
X136571428Y-75352438D01*
X136571428Y-75352438D02*
X136619047Y-75400057D01*
X136619047Y-75400057D02*
X136666666Y-75495295D01*
X136666666Y-75495295D02*
X136666666Y-75638152D01*
X136666666Y-75638152D02*
X136619047Y-75733390D01*
X136619047Y-75733390D02*
X136571428Y-75781009D01*
X136571428Y-75781009D02*
X136476190Y-75828628D01*
X136476190Y-75828628D02*
X136095238Y-75828628D01*
X137095238Y-75781009D02*
X137428571Y-75781009D01*
X137571428Y-76304819D02*
X137095238Y-76304819D01*
X137095238Y-76304819D02*
X137095238Y-75304819D01*
X137095238Y-75304819D02*
X137571428Y-75304819D01*
X138333333Y-75781009D02*
X138000000Y-75781009D01*
X138000000Y-76304819D02*
X138000000Y-75304819D01*
X138000000Y-75304819D02*
X138476190Y-75304819D01*
X139000000Y-75304819D02*
X139000000Y-75542914D01*
X138761905Y-75447676D02*
X139000000Y-75542914D01*
X139000000Y-75542914D02*
X139238095Y-75447676D01*
X138857143Y-75733390D02*
X139000000Y-75542914D01*
X139000000Y-75542914D02*
X139142857Y-75733390D01*
X139761905Y-75304819D02*
X139761905Y-75542914D01*
X139523810Y-75447676D02*
X139761905Y-75542914D01*
X139761905Y-75542914D02*
X140000000Y-75447676D01*
X139619048Y-75733390D02*
X139761905Y-75542914D01*
X139761905Y-75542914D02*
X139904762Y-75733390D01*
X98666666Y-28454819D02*
X98666666Y-29169104D01*
X98666666Y-29169104D02*
X98619047Y-29311961D01*
X98619047Y-29311961D02*
X98523809Y-29407200D01*
X98523809Y-29407200D02*
X98380952Y-29454819D01*
X98380952Y-29454819D02*
X98285714Y-29454819D01*
X99095238Y-28550057D02*
X99142857Y-28502438D01*
X99142857Y-28502438D02*
X99238095Y-28454819D01*
X99238095Y-28454819D02*
X99476190Y-28454819D01*
X99476190Y-28454819D02*
X99571428Y-28502438D01*
X99571428Y-28502438D02*
X99619047Y-28550057D01*
X99619047Y-28550057D02*
X99666666Y-28645295D01*
X99666666Y-28645295D02*
X99666666Y-28740533D01*
X99666666Y-28740533D02*
X99619047Y-28883390D01*
X99619047Y-28883390D02*
X99047619Y-29454819D01*
X99047619Y-29454819D02*
X99666666Y-29454819D01*
X136166666Y-28804819D02*
X135833333Y-28328628D01*
X135595238Y-28804819D02*
X135595238Y-27804819D01*
X135595238Y-27804819D02*
X135976190Y-27804819D01*
X135976190Y-27804819D02*
X136071428Y-27852438D01*
X136071428Y-27852438D02*
X136119047Y-27900057D01*
X136119047Y-27900057D02*
X136166666Y-27995295D01*
X136166666Y-27995295D02*
X136166666Y-28138152D01*
X136166666Y-28138152D02*
X136119047Y-28233390D01*
X136119047Y-28233390D02*
X136071428Y-28281009D01*
X136071428Y-28281009D02*
X135976190Y-28328628D01*
X135976190Y-28328628D02*
X135595238Y-28328628D01*
X136595238Y-28281009D02*
X136928571Y-28281009D01*
X137071428Y-28804819D02*
X136595238Y-28804819D01*
X136595238Y-28804819D02*
X136595238Y-27804819D01*
X136595238Y-27804819D02*
X137071428Y-27804819D01*
X137833333Y-28281009D02*
X137500000Y-28281009D01*
X137500000Y-28804819D02*
X137500000Y-27804819D01*
X137500000Y-27804819D02*
X137976190Y-27804819D01*
X138500000Y-27804819D02*
X138500000Y-28042914D01*
X138261905Y-27947676D02*
X138500000Y-28042914D01*
X138500000Y-28042914D02*
X138738095Y-27947676D01*
X138357143Y-28233390D02*
X138500000Y-28042914D01*
X138500000Y-28042914D02*
X138642857Y-28233390D01*
X139261905Y-27804819D02*
X139261905Y-28042914D01*
X139023810Y-27947676D02*
X139261905Y-28042914D01*
X139261905Y-28042914D02*
X139500000Y-27947676D01*
X139119048Y-28233390D02*
X139261905Y-28042914D01*
X139261905Y-28042914D02*
X139404762Y-28233390D01*
X118754819Y-80243333D02*
X119469104Y-80243333D01*
X119469104Y-80243333D02*
X119611961Y-80290952D01*
X119611961Y-80290952D02*
X119707200Y-80386190D01*
X119707200Y-80386190D02*
X119754819Y-80529047D01*
X119754819Y-80529047D02*
X119754819Y-80624285D01*
X119754819Y-79243333D02*
X119754819Y-79814761D01*
X119754819Y-79529047D02*
X118754819Y-79529047D01*
X118754819Y-79529047D02*
X118897676Y-79624285D01*
X118897676Y-79624285D02*
X118992914Y-79719523D01*
X118992914Y-79719523D02*
X119040533Y-79814761D01*
D11*
X120496115Y-31057580D02*
X120496115Y-30248057D01*
X120496115Y-30248057D02*
X120448496Y-30152819D01*
X120448496Y-30152819D02*
X120400877Y-30105200D01*
X120400877Y-30105200D02*
X120305639Y-30057580D01*
X120305639Y-30057580D02*
X120115163Y-30057580D01*
X120115163Y-30057580D02*
X120019925Y-30105200D01*
X120019925Y-30105200D02*
X119972306Y-30152819D01*
X119972306Y-30152819D02*
X119924687Y-30248057D01*
X119924687Y-30248057D02*
X119924687Y-31057580D01*
X119496115Y-30105200D02*
X119353258Y-30057580D01*
X119353258Y-30057580D02*
X119115163Y-30057580D01*
X119115163Y-30057580D02*
X119019925Y-30105200D01*
X119019925Y-30105200D02*
X118972306Y-30152819D01*
X118972306Y-30152819D02*
X118924687Y-30248057D01*
X118924687Y-30248057D02*
X118924687Y-30343295D01*
X118924687Y-30343295D02*
X118972306Y-30438533D01*
X118972306Y-30438533D02*
X119019925Y-30486152D01*
X119019925Y-30486152D02*
X119115163Y-30533771D01*
X119115163Y-30533771D02*
X119305639Y-30581390D01*
X119305639Y-30581390D02*
X119400877Y-30629009D01*
X119400877Y-30629009D02*
X119448496Y-30676628D01*
X119448496Y-30676628D02*
X119496115Y-30771866D01*
X119496115Y-30771866D02*
X119496115Y-30867104D01*
X119496115Y-30867104D02*
X119448496Y-30962342D01*
X119448496Y-30962342D02*
X119400877Y-31009961D01*
X119400877Y-31009961D02*
X119305639Y-31057580D01*
X119305639Y-31057580D02*
X119067544Y-31057580D01*
X119067544Y-31057580D02*
X118924687Y-31009961D01*
X118162782Y-30581390D02*
X118019925Y-30533771D01*
X118019925Y-30533771D02*
X117972306Y-30486152D01*
X117972306Y-30486152D02*
X117924687Y-30390914D01*
X117924687Y-30390914D02*
X117924687Y-30248057D01*
X117924687Y-30248057D02*
X117972306Y-30152819D01*
X117972306Y-30152819D02*
X118019925Y-30105200D01*
X118019925Y-30105200D02*
X118115163Y-30057580D01*
X118115163Y-30057580D02*
X118496115Y-30057580D01*
X118496115Y-30057580D02*
X118496115Y-31057580D01*
X118496115Y-31057580D02*
X118162782Y-31057580D01*
X118162782Y-31057580D02*
X118067544Y-31009961D01*
X118067544Y-31009961D02*
X118019925Y-30962342D01*
X118019925Y-30962342D02*
X117972306Y-30867104D01*
X117972306Y-30867104D02*
X117972306Y-30771866D01*
X117972306Y-30771866D02*
X118019925Y-30676628D01*
X118019925Y-30676628D02*
X118067544Y-30629009D01*
X118067544Y-30629009D02*
X118162782Y-30581390D01*
X118162782Y-30581390D02*
X118496115Y-30581390D01*
%TO.C,A1*%
D12*
X85485000Y-45025000D02*
X85485000Y-73625000D01*
X86985000Y-75125000D02*
X100985000Y-75125000D01*
X100985000Y-43525000D02*
X86985000Y-43525000D01*
X102485000Y-73625000D02*
X102485000Y-45025000D01*
X85485000Y-45025000D02*
G75*
G02*
X86985000Y-43525000I1500000J0D01*
G01*
X86985000Y-75125000D02*
G75*
G02*
X85485000Y-73625000I1J1500001D01*
G01*
X100985000Y-43525000D02*
G75*
G02*
X102485000Y-45025000I0J-1500000D01*
G01*
X102485000Y-73625000D02*
G75*
G02*
X100985000Y-75125000I-1500001J1D01*
G01*
%TO.C,J2*%
D13*
X91500000Y-25000000D02*
X97500000Y-25000000D01*
X91500000Y-29030000D02*
X91500000Y-25000000D01*
X91500000Y-31170000D02*
X91500000Y-36030000D01*
X91500000Y-39000000D02*
X91500000Y-38170000D01*
X97500000Y-25000000D02*
X97500000Y-31030000D01*
D11*
X97500000Y-27500000D02*
X91500000Y-27500000D01*
D13*
X97500000Y-33170000D02*
X97500000Y-39000000D01*
X97500000Y-39000000D02*
X91500000Y-39000000D01*
D14*
X91100000Y-29000000D02*
G75*
G02*
X90900000Y-29000000I-100000J0D01*
G01*
X90900000Y-29000000D02*
G75*
G02*
X91100000Y-29000000I100000J0D01*
G01*
%TO.C,J1*%
D12*
X105250000Y-78910000D02*
X114616667Y-78910000D01*
X105250001Y-27950000D02*
X105250000Y-78910000D01*
X114800000Y-78910000D02*
X133349999Y-78910000D01*
X133349999Y-78910000D02*
X133350000Y-27950000D01*
X133350000Y-27950000D02*
X105250001Y-27950000D01*
D11*
X112800000Y-27930000D02*
X125800000Y-27930000D01*
X125800000Y-33430000D01*
X112800000Y-33430000D01*
X112800000Y-27930000D01*
%TD*%
%LPC*%
D15*
%TO.C,A1*%
X87635000Y-73630000D03*
X90175000Y-73630000D03*
X92715000Y-73630000D03*
X95255000Y-73630000D03*
X97795000Y-73630000D03*
X100335000Y-73630000D03*
X87000000Y-46960000D03*
X87000000Y-49500000D03*
X87000000Y-52040000D03*
X87000000Y-54580000D03*
X87000000Y-57120000D03*
X87000000Y-59660000D03*
X87000000Y-62200000D03*
X87000000Y-64740000D03*
X87000000Y-67280000D03*
%TD*%
D16*
%TO.C,REF\u002A\u002A*%
X84500000Y-79000000D03*
%TD*%
%TO.C,REF\u002A\u002A*%
X84500000Y-31500000D03*
%TD*%
%TO.C,REF\u002A\u002A*%
X138000000Y-79000000D03*
%TD*%
D17*
%TO.C,J2*%
X94500000Y-30000000D03*
X94500000Y-36000000D03*
D18*
X92000000Y-30200000D03*
X92000000Y-37000000D03*
X97000000Y-32500000D03*
%TD*%
D16*
%TO.C,REF\u002A\u002A*%
X137500000Y-31500000D03*
%TD*%
D15*
%TO.C,J1*%
X132000000Y-77560000D03*
X132000000Y-75020000D03*
X132000000Y-72480000D03*
X132000000Y-69940000D03*
X132000000Y-67400000D03*
X132000000Y-64860000D03*
X132000000Y-62320000D03*
X132000000Y-59780000D03*
X132000000Y-57240000D03*
X132000000Y-54700000D03*
X132000000Y-52160000D03*
X132000000Y-49620000D03*
X132000000Y-47080000D03*
X132000000Y-44540000D03*
X132000000Y-42000000D03*
X132000000Y-39460000D03*
X132000000Y-36920000D03*
X132000000Y-34380000D03*
X132000000Y-31840000D03*
X132000000Y-29300000D03*
X106500000Y-77560000D03*
X106500000Y-75020000D03*
X106500000Y-72480000D03*
X106500000Y-69940000D03*
X106500000Y-67400000D03*
X106500000Y-64860000D03*
X106500000Y-62320000D03*
X106500000Y-59780000D03*
X106500000Y-57240000D03*
X106500000Y-54700000D03*
X106500000Y-52160000D03*
X106500000Y-49620000D03*
X106500000Y-47080000D03*
X106500000Y-44540000D03*
X106500000Y-42000000D03*
X106500000Y-39460000D03*
X106500000Y-36920000D03*
X106500000Y-34380000D03*
X106500000Y-31840000D03*
X106500000Y-29300000D03*
%TD*%
%LPD*%
M02*
